SplineFontDB: 3.0
FontName: IndieFlower
FullName: Indie Flower
FamilyName: Indie Flower
Weight: Book
Copyright: Copyright (c) 2010, Kimberly Geswein (kimberlygeswein.com)
Version: 1.001 2010
ItalicAngle: 0
UnderlinePosition: -52
UnderlineWidth: 51
Ascent: 819
Descent: 205
sfntRevision: 0x00010042
LayerCount: 2
Layer: 0 1 "Back"  1
Layer: 1 1 "Fore"  0
XUID: [1021 496 529952750 2515810]
FSType: 4
OS2Version: 3
OS2_WeightWidthSlopeOnly: 0
OS2_UseTypoMetrics: 1
CreationTime: 1297184023
ModificationTime: 1299376293
PfmFamily: 17
TTFWeight: 400
TTFWidth: 5
LineGap: 0
VLineGap: 0
Panose: 2 0 0 0 0 0 0 0 0 0
OS2TypoAscent: 664
OS2TypoAOffset: 0
OS2TypoDescent: -334
OS2TypoDOffset: 0
OS2TypoLinegap: 0
OS2WinAscent: 664
OS2WinAOffset: 0
OS2WinDescent: 334
OS2WinDOffset: 0
HheadAscent: 664
HheadAOffset: 0
HheadDescent: -334
HheadDOffset: 0
OS2SubXSize: 717
OS2SubYSize: 666
OS2SubXOff: 0
OS2SubYOff: 143
OS2SupXSize: 717
OS2SupYSize: 666
OS2SupXOff: 0
OS2SupYOff: 488
OS2StrikeYSize: 51
OS2StrikeYPos: 256
OS2Vendor: '    '
OS2CodePages: 00000093.00000000
OS2UnicodeRanges: a000002f.5000004a.00000000.00000000
MarkAttachClasses: 1
DEI: 91125
TtTable: prep
PUSHW_1
 0
CALL
SVTCA[y-axis]
PUSHW_3
 1
 4
 7
CALL
PUSHW_1
 0
DUP
RCVT
RDTG
ROUND[Black]
RTG
WCVTP
EndTTInstrs
TtTable: fpgm
PUSHW_1
 0
FDEF
MPPEM
PUSHW_1
 9
LT
IF
PUSHB_2
 1
 1
INSTCTRL
EIF
PUSHW_1
 511
SCANCTRL
PUSHW_1
 132
SCVTCI
PUSHW_2
 9
 3
SDS
SDB
ENDF
PUSHW_1
 1
FDEF
DUP
DUP
RCVT
ROUND[Black]
WCVTP
PUSHB_1
 1
ADD
ENDF
PUSHW_1
 2
FDEF
PUSHW_1
 1
LOOPCALL
POP
ENDF
PUSHW_1
 3
FDEF
DUP
GC[cur]
PUSHB_1
 3
CINDEX
GC[cur]
GT
IF
SWAP
EIF
DUP
ROLL
DUP
ROLL
MD[grid]
ABS
ROLL
DUP
GC[cur]
DUP
ROUND[Grey]
SUB
ABS
PUSHB_1
 4
CINDEX
GC[cur]
DUP
ROUND[Grey]
SUB
ABS
GT
IF
SWAP
NEG
ROLL
EIF
MDAP[rnd]
DUP
PUSHB_1
 0
GTEQ
IF
ROUND[Black]
DUP
PUSHB_1
 0
EQ
IF
POP
PUSHB_1
 64
EIF
ELSE
ROUND[Black]
DUP
PUSHB_1
 0
EQ
IF
POP
PUSHB_1
 64
NEG
EIF
EIF
MSIRP[no-rp0]
ENDF
PUSHW_1
 4
FDEF
DUP
GC[cur]
PUSHB_1
 4
CINDEX
GC[cur]
GT
IF
SWAP
ROLL
EIF
DUP

StartChar: exclam
Encoding: 33 33 4
Width: 102
VWidth: 512
Flags: HW
LayerCount: 2
Fore
SplineSet
11 32 m 0,0,1
 11 52 11 52 25.5 61 c 128,-1,2
 40 70 40 70 61 70 c 0,3,4
 68 70 68 70 73.5 66.5 c 128,-1,5
 79 63 79 63 82.5 57.5 c 128,-1,6
 86 52 86 52 88 45 c 128,-1,7
 90 38 90 38 90 32 c 0,8,9
 90 24 90 24 85 18.5 c 128,-1,10
 80 13 80 13 72 8.5 c 128,-1,11
 64 4 64 4 56 2 c 128,-1,12
 48 0 48 0 42 -0 c 0,13,14
 26 0 26 0 18.5 8 c 128,-1,15
 11 16 11 16 11 32 c 0,0,1
32 182 m 1,16,17
 30 200 30 200 28 230 c 128,-1,18
 26 260 26 260 26 295.5 c 128,-1,19
 26 331 26 331 26 369.5 c 128,-1,20
 26 408 26 408 26.5 444 c 128,-1,21
 27 480 27 480 26.5 510 c 128,-1,22
 26 540 26 540 26 557 c 1,23,-1
 58 563 l 1,24,25
 58 551 l 0,26,27
 58 539 58 539 59 519.5 c 128,-1,28
 60 500 60 500 60 475 c 128,-1,29
 60 450 60 450 60.5 422 c 128,-1,30
 61 394 61 394 61.5 367 c 128,-1,31
 62 340 62 340 62 316 c 128,-1,32
 62 292 62 292 63 273.5 c 0,33,34
 64 254 64 254 64 246 c 0,35,36
 64 245 64 245 64 241.5 c 128,-1,37
 64 238 64 238 64 233 c 128,-1,38
 64 228 64 228 64 223 c 128,-1,39
 64 218 64 218 64 216 c 0,40,41
 64 210 64 210 65 203 c 128,-1,42
 66 196 66 196 65 190 c 128,-1,43
 64 184 64 184 60 179.5 c 128,-1,44
 56 175 56 175 48 175 c 0,45,46
 44 175 44 175 39 175 c 128,-1,47
 34 175 34 175 32 182 c 1,16,17
EndSplineSet
EndChar

StartChar: quotedbl
Encoding: 34 34 5
Width: 160
VWidth: 512
Flags: HW
LayerCount: 2
Fore
SplineSet
103 365 m 0,0,1
 101 388 101 388 100 407 c 128,-1,2
 99 426 99 426 98.5 443 c 128,-1,3
 98 460 98 460 97 476 c 128,-1,4
 96 492 96 492 96 512 c 2,5,-1
 96 538 l 1,6,7
 96 539 96 539 99 541.5 c 128,-1,8
 102 544 102 544 103 544 c 1,9,-1
 104 544 l 2,10,11
 105 544.5 l 0,12,-1
 106 545 l 0,13,14
 114 545 114 545 120 532.5 c 128,-1,15
 126 520 126 520 130 501 c 128,-1,16
 134 482 134 482 136.5 460 c 128,-1,17
 139 438 139 438 140 418 c 128,-1,18
 141 398 141 398 141.5 384 c 128,-1,19
 142 370 142 370 142 368 c 2,20,-1
 142 346 l 1,21,22
 141 344 141 344 135.5 339 c 128,-1,23
 130 334 130 334 128 333 c 0,24,25
 127 332 l 2,26,-1
 125 332 l 2,27,28
 121 332 121 332 117 337 c 128,-1,29
 113 342 113 342 110 348 c 128,-1,30
 107 354 107 354 105 359 c 128,-1,31
 103 364 103 364 103 365 c 0,0,1
6 518 m 1,32,33
 8 524 8 524 12 525 c 128,-1,34
 16 526 16 526 20 526 c 0,35,36
 26 526 26 526 32 516 c 128,-1,37
 38 506 38 506 42.5 490.5 c 128,-1,38
 47 475 47 475 51.5 456 c 128,-1,39
 56 437 56 437 60 418.5 c 128,-1,40
 64 400 64 400 68 384 c 128,-1,41
 72 368 72 368 78 358 c 1,42,43
 74 350 74 350 69.5 347.5 c 128,-1,44
 65 345 65 345 58 345 c 0,45,46
 49 345 49 345 41.5 355.5 c 128,-1,47
 34 366 34 366 28.5 383 c 128,-1,48
 23 400 23 400 19 420.5 c 128,-1,49
 15 441 15 441 12.5 460.5 c 128,-1,50
 10 480 10 480 8 495 c 128,-1,51
 6 510 6 510 6 518 c 1,32,33
EndSplineSet
EndChar

StartChar: numbersign
Encoding: 35 35 6
Width: 525
VWidth: 512
Flags: HW
LayerCount: 2
Fore
SplineSet
262 102 m 1,0,-1
 262 45 l 2,1,2
 262 44 262 44 260 42 c 128,-1,3
 258 40 258 40 256 38 c 128,-1,4
 254 36 254 36 249 34 c 0,5,6
 244 32 l 0,7,8
 236 32 236 32 232 37 c 128,-1,9
 228 42 228 42 227 49 c 128,-1,10
 226 56 226 56 226 64.5 c 128,-1,11
 226 73 226 73 225 80.5 c 128,-1,12
 224 88 224 88 221 92.5 c 128,-1,13
 218 97 218 97 212 97 c 0,14,15
 211 97 211 97 208.5 96.5 c 0,16,-1
 206 96 l 0,17,18
 203 96 203 96 192.5 94.5 c 128,-1,19
 182 93 182 93 169 91 c 128,-1,20
 156 89 156 89 141 86.5 c 128,-1,21
 126 84 126 84 113 82 c 128,-1,22
 100 80 100 80 90 79 c 128,-1,23
 80 78 80 78 78 77 c 1,24,-1
 73 77 l 2,25,26
 66 77 66 77 62 83.5 c 128,-1,27
 58 90 58 90 58 96 c 0,28,29
 58 97 58 97 58 99.5 c 0,30,-1
 58 102 l 0,31,32
 91 110 91 110 122.5 116 c 128,-1,33
 154 122 154 122 186 128 c 0,34,35
 189 128 189 128 193.5 129 c 128,-1,36
 198 130 198 130 202 131 c 128,-1,37
 206 132 206 132 209 133 c 0,38,-1
 212 134 l 2,39,-1
 212 179 l 1,40,-1
 206 186 l 2,41,42
 203 186 l 0,43,44
 200 186 200 186 197 186.5 c 128,-1,45
 194 187 194 187 191 187 c 128,-1,46
 188 187 188 187 186 187 c 0,47,48
 164 187 164 187 142 180.5 c 128,-1,49
 120 174 120 174 99 166.5 c 128,-1,50
 78 159 78 159 59 152.5 c 128,-1,51
 40 146 40 146 22 146 c 0,52,53
 14 146 14 146 10 149 c 128,-1,54
 6 152 6 152 6 161 c 0,55,56
 6 173 6 173 21 182.5 c 128,-1,57
 36 192 36 192 58 198 c 128,-1,58
 80 204 80 204 106 209 c 128,-1,59
 132 214 132 214 154 217.5 c 128,-1,60
 176 221 176 221 191 224 c 0,61,62
 206 226 206 226 206 230 c 2,63,-1
 206 320 l 2,64,65
 206 323 206 323 208 325.5 c 128,-1,66
 210 328 210 328 214 330.5 c 128,-1,67
 218 333 218 333 222 334.5 c 128,-1,68
 226 336 226 336 230 336 c 1,69,70
 230 326 230 326 231 314 c 128,-1,71
 232 302 232 302 234 289 c 128,-1,72
 236 276 236 276 238.5 264.5 c 0,73,74
 242 253 242 253 244 243 c 1,75,76
 255 239 255 239 262 237.5 c 0,77,78
 270 236 270 236 280 236 c 0,79,80
 284 236 284 236 288 237.5 c 128,-1,81
 292 239 292 239 297 241.5 c 128,-1,82
 302 244 302 244 305 248 c 128,-1,83
 308 252 308 252 308 256 c 0,84,85
 308 262 308 262 306 268.5 c 128,-1,86
 304 275 304 275 301.5 281.5 c 128,-1,87
 299 288 299 288 297 294 c 128,-1,88
 295 300 295 300 295 307 c 0,89,90
 295 316 295 316 299.5 325 c 128,-1,91
 304 334 304 334 314 334 c 0,92,93
 315 334 315 334 317.5 333.5 c 0,94,-1
 320 333 l 1,95,96
 320 328 320 328 323 314 c 128,-1,97
 326 300 326 300 330 286 c 128,-1,98
 334 272 334 272 338.5 261 c 128,-1,99
 343 250 343 250 346 250 c 2,100,-1
 454 250 l 2,101,-1
 458 247 l 0,102,103
 462 244 462 244 466 240 c 128,-1,104
 470 236 470 236 474 232 c 128,-1,105
 478 228 478 228 480 224 c 1,106,-1
 480 223 l 2,107,108
 480 222 480 222 480.5 221.5 c 0,109,-1
 481 220 l 0,110,111
 481 218 481 218 478.5 215 c 128,-1,112
 476 212 476 212 473 210 c 128,-1,113
 470 208 470 208 467 206.5 c 128,-1,114
 464 205 464 205 462 205 c 0,115,-1
 459.5 205.5 l 0,116,117
 457 206 457 206 454.5 207.5 c 128,-1,118
 452 209 452 209 450.5 210 c 0,119,-1
 448 212 l 1,120,121
 447 212 447 212 443.5 213 c 128,-1,122
 440 214 440 214 434.5 215 c 128,-1,123
 429 216 429 216 424 216.5 c 0,124,125
 418 218 418 218 416 218 c 1,126,-1
 413 218 l 1,127,-1
 410 218 l 1,128,129
 403 217 403 217 393.5 215.5 c 128,-1,130
 384 214 384 214 374 214 c 0,131,132
 364 212 364 212 352 212 c 1,133,-1
 352 166 l 1,134,-1
 359 160 l 1,135,136
 373 162 373 162 383 163.5 c 128,-1,137
 393 165 393 165 402.5 165.5 c 128,-1,138
 412 166 412 166 421 166.5 c 128,-1,139
 430 167 430 167 442 167 c 0,140,141
 453 167 453 167 464.5 167.5 c 128,-1,142
 476 168 476 168 485.5 165 c 128,-1,143
 495 162 495 162 500.5 155 c 128,-1,144
 506 148 506 148 506 134 c 0,145,146
 506 122 506 122 494 122 c 2,147,-1
 487 122 l 2,148,149
 485 122 485 122 476.5 123 c 128,-1,150
 468 124 468 124 458 125 c 128,-1,151
 448 126 448 126 439.5 127 c 128,-1,152
 431 128 431 128 429 128 c 2,153,-1
 426 128 l 2,154,155
 421 128 421 128 410.5 126 c 128,-1,156
 400 124 400 124 389 121.5 c 128,-1,157
 378 119 378 119 369 117 c 128,-1,158
 360 115 360 115 359 115 c 1,159,160
 359 114 359 114 358.5 111 c 128,-1,161
 358 108 358 108 358 104 c 128,-1,162
 358 100 358 100 358 97 c 128,-1,163
 358 94 358 94 358 92 c 0,164,165
 358 76 358 76 362 61 c 128,-1,166
 366 46 366 46 366 31 c 0,167,168
 366 30 366 30 365.5 29 c 0,169,-1
 365 28 l 2,170,-1
 365 26 l 1,171,172
 364 25 364 25 361 21.5 c 128,-1,173
 358 18 358 18 354 13.5 c 128,-1,174
 350 9 350 9 346 5.5 c 128,-1,175
 342 2 342 2 340 0 c 0,176,177
 339 0 339 0 338 -0 c 2,178,-1
 336 -0 l 2,179,180
 332 0 332 0 330 7 c 128,-1,181
 328 14 328 14 326 26 c 128,-1,182
 324 38 324 38 322.5 51.5 c 128,-1,183
 321 65 321 65 319.5 77.5 c 128,-1,184
 318 90 318 90 317 98.5 c 128,-1,185
 316 107 316 107 314 109 c 2,186,-1
 308 115 l 1,187,-1
 262 102 l 1,0,-1
250 179 m 0,188,189
 250 177 250 177 251 171.5 c 128,-1,190
 252 166 252 166 253 160 c 128,-1,191
 254 154 254 154 255 148.5 c 128,-1,192
 256 143 256 143 256 141 c 1,193,-1
 314 154 l 1,194,195
 314 156 314 156 314 158 c 256,196,197
 314 160 314 160 315 162.5 c 0,198,199
 316 164 316 164 316 166 c 256,200,201
 316 168 316 168 315.5 171 c 128,-1,202
 315 174 315 174 314.5 177 c 128,-1,203
 314 180 314 180 314 183 c 0,204,-1
 314 186 l 0,205,206
 314 188 314 188 311 193 c 0,207,-1
 308 198 l 2,208,-1
 262 198 l 2,209,-1
 260 196 l 0,210,211
 258 194 258 194 256 192 c 128,-1,212
 254 190 254 190 252 185 c 128,-1,213
 250 180 250 180 250 179 c 0,188,189
EndSplineSet
EndChar

StartChar: dollar
Encoding: 36 36 7
Width: 397
VWidth: 512
Flags: HW
LayerCount: 2
Fore
SplineSet
195 73 m 1,0,1
 194 70 194 70 192 59 c 128,-1,2
 190 48 190 48 188 36 c 128,-1,3
 186 24 186 24 182 15 c 128,-1,4
 178 6 178 6 174 6 c 0,5,6
 160 6 160 6 155 16 c 128,-1,7
 150 26 150 26 149 39.5 c 128,-1,8
 148 53 148 53 149 65.5 c 128,-1,9
 150 78 150 78 148 84 c 0,10,11
 144 91 144 91 131 99.5 c 128,-1,12
 118 108 118 108 102 118 c 128,-1,13
 86 128 86 128 68 138 c 128,-1,14
 50 148 50 148 35.5 158.5 c 128,-1,15
 21 169 21 169 12.5 179.5 c 128,-1,16
 4 190 4 190 6 198 c 128,-1,17
 8 206 8 206 14 209 c 128,-1,18
 20 212 20 212 26 212 c 0,19,20
 40 212 40 212 53 200 c 128,-1,21
 66 188 66 188 79 173 c 128,-1,22
 92 158 92 158 105.5 146 c 0,23,24
 118 134 118 134 134 134 c 0,25,26
 143 134 143 134 149.5 146 c 128,-1,27
 156 158 156 158 160 176 c 128,-1,28
 164 194 164 194 167 216 c 128,-1,29
 170 238 170 238 171 259 c 128,-1,30
 172 280 172 280 173 297 c 128,-1,31
 174 314 174 314 174 323 c 0,32,33
 174 325 174 325 174 328 c 128,-1,34
 174 331 174 331 173.5 334.5 c 128,-1,35
 173 338 173 338 173 341 c 128,-1,36
 173 344 173 344 173 346 c 1,37,38
 163 358 163 358 151 367 c 128,-1,39
 139 376 139 376 128 386 c 128,-1,40
 117 396 117 396 109.5 408 c 128,-1,41
 102 420 102 420 102 438 c 0,42,43
 102 440 102 440 102.5 446 c 128,-1,44
 103 452 103 452 103 454 c 1,45,46
 119 478 119 478 142.5 494 c 128,-1,47
 166 510 166 510 192 518 c 1,48,49
 193 531 193 531 193.5 548.5 c 128,-1,50
 194 566 194 566 197.5 583 c 128,-1,51
 201 600 201 600 208.5 614 c 128,-1,52
 216 628 216 628 231 634 c 1,53,54
 231 624 231 624 233.5 615 c 128,-1,55
 236 606 236 606 237 596 c 0,56,57
 236 593.5 l 0,58,59
 235 591 235 591 234 588.5 c 128,-1,60
 233 586 233 586 232 584.5 c 0,61,-1
 231 582 l 256,62,-1
 230.5 579 l 0,63,64
 230 576 230 576 230 573 c 128,-1,65
 230 570 230 570 230 566 c 128,-1,66
 230 562 230 562 230 560 c 0,67,68
 230 559 230 559 230 555.5 c 128,-1,69
 230 552 230 552 230 548.5 c 128,-1,70
 230 545 230 545 230.5 541.5 c 0,71,-1
 231 538 l 1,72,73
 239 534 239 534 245 532 c 0,74,75
 252 530 252 530 260 530 c 0,76,77
 261 530 261 530 264.5 531 c 128,-1,78
 268 532 268 532 270 532 c 1,79,80
 270 541 270 541 269 554.5 c 128,-1,81
 268 568 268 568 270.5 581 c 128,-1,82
 273 594 273 594 279.5 603 c 128,-1,83
 286 612 286 612 301 612 c 1,84,-1
 301 512 l 1,85,86
 303 508 303 508 308.5 505 c 128,-1,87
 314 502 314 502 319 499 c 128,-1,88
 324 496 324 496 328 493.5 c 0,89,90
 332 490 332 490 332 486 c 0,91,92
 332 484 332 484 328 480 c 128,-1,93
 324 476 324 476 318.5 473 c 128,-1,94
 313 470 313 470 306.5 468 c 128,-1,95
 300 466 300 466 295 468 c 1,96,97
 292 442 292 442 286.5 418 c 128,-1,98
 281 394 281 394 281 368 c 0,99,100
 281 366 281 366 281.5 362 c 128,-1,101
 282 358 282 358 282 353.5 c 128,-1,102
 282 349 282 349 282 345 c 0,103,104
 282 342 282 342 282 340 c 1,105,106
 296 323 296 323 314 307.5 c 128,-1,107
 332 292 332 292 347.5 276 c 128,-1,108
 363 260 363 260 373.5 240.5 c 128,-1,109
 384 221 384 221 384 195 c 0,110,111
 384 125 384 125 347 87.5 c 128,-1,112
 310 50 310 50 244 45 c 1,113,114
 246 38 246 38 245 30 c 128,-1,115
 244 22 244 22 242 15 c 128,-1,116
 240 8 240 8 235 4 c 128,-1,117
 230 0 230 0 221 -0 c 0,118,119
 220 0 220 0 216 0 c 0,120,-1
 212 0 l 1,121,122
 210 18 210 18 208 34 c 1,123,124
 206 47 206 47 202.5 59 c 128,-1,125
 199 71 199 71 195 73 c 1,0,1
250 90 m 1,126,127
 252 89 252 89 256.5 86.5 c 0,128,129
 260 84 260 84 262 84 c 1,130,-1
 266 84 l 2,131,132
 287 84 287 84 302.5 93 c 128,-1,133
 318 102 318 102 327.5 117 c 128,-1,134
 337 132 337 132 341.5 151 c 128,-1,135
 346 170 346 170 346 187 c 0,136,137
 346 224 346 224 329 249 c 128,-1,138
 312 274 312 274 282 294 c 1,139,140
 274 290 274 290 268 278 c 128,-1,141
 262 266 262 266 258 250.5 c 128,-1,142
 254 235 254 235 252.5 216.5 c 128,-1,143
 251 198 251 198 250.5 181 c 128,-1,144
 250 164 250 164 250 149 c 128,-1,145
 250 134 250 134 250 125 c 0,146,147
 250 123 250 123 250 118 c 128,-1,148
 250 113 250 113 250 107.5 c 128,-1,149
 250 102 250 102 250 97 c 128,-1,150
 250 92 250 92 250 90 c 1,126,127
234 318 m 1,151,152
 236 320 236 320 233 321 c 128,-1,153
 230 322 230 322 227 322.5 c 128,-1,154
 224 323 224 323 221 322.5 c 128,-1,155
 218 322 218 322 218 320 c 1,156,157
 216 304 216 304 210 282 c 128,-1,158
 204 260 204 260 199 237 c 128,-1,159
 194 214 194 214 189.5 191 c 128,-1,160
 185 168 185 168 184.5 151 c 128,-1,161
 184 134 184 134 188.5 124 c 0,162,163
 194 114 194 114 206 116 c 1,164,165
 206 117 206 117 208 131.5 c 128,-1,166
 210 146 210 146 213 168 c 128,-1,167
 216 190 216 190 219.5 214.5 c 128,-1,168
 223 239 223 239 226.5 260.5 c 128,-1,169
 230 282 230 282 232 296.5 c 128,-1,170
 234 311 234 311 234 312 c 2,171,-1
 234 318 l 1,151,152
217 389 m 0,172,173
 217 384 217 384 216.5 377 c 128,-1,174
 216 370 216 370 217.5 362.5 c 128,-1,175
 219 355 219 355 222 348.5 c 128,-1,176
 225 342 225 342 231 340 c 1,177,178
 241 346 241 346 247 357 c 128,-1,179
 253 368 253 368 256.5 382 c 128,-1,180
 260 396 260 396 261.5 411 c 128,-1,181
 263 426 263 426 263.5 441 c 128,-1,182
 264 456 264 456 263.5 468 c 128,-1,183
 263 480 263 480 263 489 c 1,184,185
 261 489 261 489 256.5 488.5 c 128,-1,186
 252 488 252 488 247 488 c 128,-1,187
 242 488 242 488 237.5 487 c 128,-1,188
 233 486 233 486 231 486 c 128,-1,189
 229 486 229 486 226.5 484 c 128,-1,190
 224 482 224 482 224 480 c 0,191,192
 222 466 222 466 221 455 c 128,-1,193
 220 444 220 444 219 433 c 128,-1,194
 218 422 218 422 217.5 411.5 c 128,-1,195
 217 401 217 401 217 389 c 0,172,173
140 428 m 128,-1,197
 140 422 140 422 141 417.5 c 128,-1,198
 142 413 142 413 144 409.5 c 128,-1,199
 146 406 146 406 150 403 c 128,-1,200
 154 400 154 400 160 397 c 1,201,-1
 162 395.5 l 0,202,203
 164 394 164 394 166 392.5 c 128,-1,204
 168 391 168 391 170.5 390 c 128,-1,205
 173 389 173 389 174 390 c 0,206,207
 179 394 179 394 181.5 400.5 c 128,-1,208
 184 407 184 407 185 415.5 c 128,-1,209
 186 424 186 424 186 432 c 128,-1,210
 186 440 186 440 186 445 c 0,211,212
 186 447 186 447 185 451.5 c 128,-1,213
 184 456 184 456 181.5 459 c 128,-1,214
 179 462 179 462 176 465 c 128,-1,215
 173 468 173 468 170 468 c 0,216,217
 162 468 162 468 156.5 464 c 128,-1,218
 151 460 151 460 147.5 454 c 128,-1,219
 144 448 144 448 142 441 c 128,-1,196
 140 434 140 434 140 428 c 128,-1,197
EndSplineSet
EndChar

StartChar: percent
Encoding: 37 37 8
Width: 435
VWidth: 512
Flags: HW
LayerCount: 2
Fore
SplineSet
96 20 m 0,0,1
 96 32 96 32 106.5 56 c 128,-1,2
 117 80 117 80 134 110 c 128,-1,3
 151 140 151 140 173.5 175 c 128,-1,4
 196 210 196 210 219 244 c 128,-1,5
 242 278 242 278 265 309 c 128,-1,6
 288 340 288 340 307.5 364 c 128,-1,7
 327 388 327 388 340.5 402 c 128,-1,8
 354 416 354 416 359 416 c 0,9,10
 362 416 362 416 363.5 413.5 c 128,-1,11
 365 411 365 411 365.5 407.5 c 128,-1,12
 366 404 366 404 366 401 c 128,-1,13
 366 398 366 398 366 397 c 1,14,15
 350 371 350 371 332 349.5 c 128,-1,16
 314 328 314 328 296 306 c 128,-1,17
 278 284 278 284 261 260 c 128,-1,18
 244 236 244 236 231 205 c 1,19,20
 227 199 227 199 218 180.5 c 128,-1,21
 209 162 209 162 197 139.5 c 128,-1,22
 185 117 185 117 171.5 92.5 c 128,-1,23
 158 68 158 68 146 47 c 128,-1,24
 134 26 134 26 124 13 c 128,-1,25
 114 0 114 0 109 -0 c 0,26,27
 101 0 101 0 98.5 6.5 c 128,-1,28
 96 13 96 13 96 20 c 0,0,1
242 67 m 0,29,30
 242 79 242 79 246 94 c 128,-1,31
 250 109 250 109 257 124.5 c 128,-1,32
 264 140 264 140 273.5 154.5 c 128,-1,33
 283 169 283 169 294.5 180.5 c 128,-1,34
 306 192 306 192 319 199 c 128,-1,35
 332 206 332 206 346 206 c 128,-1,36
 360 206 360 206 373 198 c 128,-1,37
 386 190 386 190 396 177 c 128,-1,38
 406 164 406 164 411.5 149 c 128,-1,39
 417 134 417 134 417 121 c 0,40,41
 417 101 417 101 407.5 80.5 c 128,-1,42
 398 60 398 60 383 43.5 c 128,-1,43
 368 27 368 27 349 16.5 c 128,-1,44
 330 6 330 6 311 6 c 0,45,46
 297 6 297 6 284.5 9.5 c 128,-1,47
 272 13 272 13 262.5 20.5 c 128,-1,48
 253 28 253 28 247.5 39.5 c 128,-1,49
 242 51 242 51 242 67 c 0,29,30
276 51 m 1,50,51
 282 45 282 45 288 44.5 c 128,-1,52
 294 44 294 44 301 44 c 0,53,54
 315 44 315 44 329.5 50 c 128,-1,55
 344 56 344 56 354.5 66 c 128,-1,56
 365 76 365 76 371.5 89 c 128,-1,57
 378 102 378 102 378 117 c 0,58,59
 378 123 378 123 376.5 131.5 c 128,-1,60
 375 140 375 140 371 148 c 128,-1,61
 367 156 367 156 361 161 c 128,-1,62
 355 166 355 166 346 166 c 0,63,64
 331 166 331 166 317.5 155 c 128,-1,65
 304 144 304 144 295 128.5 c 128,-1,66
 286 113 286 113 280 96 c 128,-1,67
 274 79 274 79 274 67 c 0,68,69
 274 65 274 65 275 59 c 128,-1,70
 276 53 276 53 276 51 c 1,50,51
6 276 m 128,-1,72
 6 292 6 292 12 309 c 128,-1,73
 18 326 18 326 29.5 340 c 128,-1,74
 41 354 41 354 56.5 363 c 128,-1,75
 72 372 72 372 89 372 c 0,76,77
 105 372 105 372 121 365.5 c 128,-1,78
 137 359 137 359 150.5 347.5 c 128,-1,79
 164 336 164 336 172 321 c 128,-1,80
 180 306 180 306 180 289 c 0,81,82
 180 271 180 271 172.5 254.5 c 128,-1,83
 165 238 165 238 152.5 225 c 128,-1,84
 140 212 140 212 124 205 c 128,-1,85
 108 198 108 198 90 198 c 0,86,87
 76 198 76 198 61 204 c 128,-1,88
 46 210 46 210 34 221 c 128,-1,89
 22 232 22 232 14 246 c 128,-1,71
 6 260 6 260 6 276 c 128,-1,72
44 278 m 0,90,91
 44 272 44 272 45.5 265 c 128,-1,92
 47 258 47 258 50 251 c 128,-1,93
 53 244 53 244 58 238 c 0,94,95
 62 232 62 232 70 230 c 0,96,97
 80 228 80 228 93 231.5 c 128,-1,98
 106 235 106 235 118 242.5 c 128,-1,99
 130 250 130 250 139 260 c 128,-1,100
 148 270 148 270 148 282 c 0,101,102
 148 292 148 292 143 301 c 128,-1,103
 138 310 138 310 130 317 c 128,-1,104
 122 324 122 324 112 328.5 c 128,-1,105
 102 333 102 333 93 333 c 0,106,107
 82 333 82 333 73 328 c 128,-1,108
 64 323 64 323 58 315 c 128,-1,109
 52 307 52 307 48 297.5 c 128,-1,110
 44 288 44 288 44 278 c 0,90,91
EndSplineSet
EndChar

StartChar: ampersand
Encoding: 38 38 9
Width: 312
VWidth: 512
Flags: HW
LayerCount: 2
Fore
SplineSet
6 51 m 0,0,1
 6 85 6 85 18 113.5 c 128,-1,2
 30 142 30 142 46 169 c 128,-1,3
 62 196 62 196 76.5 223.5 c 0,4,5
 90 252 90 252 96 282 c 0,6,7
 96 284 96 284 96 289 c 128,-1,8
 96 294 96 294 96 301 c 128,-1,9
 96 308 96 308 96 313 c 128,-1,10
 96 318 96 318 96 320 c 0,11,12
 96 327 96 327 97 344.5 c 128,-1,13
 98 362 98 362 99 381 c 128,-1,14
 100 400 100 400 101 417.5 c 128,-1,15
 102 435 102 435 103 442 c 0,16,17
 103 444 103 444 104.5 449 c 128,-1,18
 106 454 106 454 108.5 459 c 128,-1,19
 111 464 111 464 114.5 468 c 128,-1,20
 118 472 118 472 122 474 c 0,21,22
 138 477 138 477 149 470 c 128,-1,23
 160 463 160 463 167 451.5 c 128,-1,24
 174 440 174 440 177 426 c 128,-1,25
 180 412 180 412 180 401 c 0,26,27
 180 380 180 380 177 363 c 128,-1,28
 174 346 174 346 168.5 330 c 128,-1,29
 163 314 163 314 154.5 298 c 128,-1,30
 146 282 146 282 134 262 c 1,31,32
 134 261 134 261 134 259 c 128,-1,33
 134 257 134 257 134 256 c 0,34,35
 134 246 134 246 137 234 c 128,-1,36
 140 222 140 222 145 210 c 128,-1,37
 150 198 150 198 155.5 187 c 128,-1,38
 161 176 161 176 167 166 c 1,39,-1
 180 166 l 1,40,41
 187 170 187 170 191.5 178 c 128,-1,42
 196 186 196 186 198.5 196 c 128,-1,43
 201 206 201 206 202.5 217 c 128,-1,44
 204 228 204 228 204.5 238 c 128,-1,45
 205 248 205 248 205 256.5 c 0,46,47
 206 265 206 265 206 269 c 1,48,49
 210 273 210 273 215.5 274.5 c 128,-1,50
 221 276 221 276 227.5 276.5 c 128,-1,51
 234 277 234 277 240 276.5 c 128,-1,52
 246 276 246 276 249 276 c 0,53,54
 257 276 257 276 265.5 278 c 128,-1,55
 274 280 274 280 282 279 c 128,-1,56
 290 278 290 278 294.5 273.5 c 0,57,58
 299 268 299 268 299 256 c 0,59,60
 299 250 299 250 296.5 247 c 128,-1,61
 294 244 294 244 286 244 c 0,62,63
 282 244 282 244 277 243 c 128,-1,64
 272 242 272 242 266.5 241 c 128,-1,65
 261 240 261 240 256 240 c 0,66,67
 252 240 252 240 248 240 c 1,68,69
 239 220 239 220 234.5 205 c 128,-1,70
 230 190 230 190 227 176 c 128,-1,71
 224 162 224 162 220 149 c 128,-1,72
 216 136 216 136 206 122 c 1,73,74
 206 120 206 120 205 119 c 0,75,76
 204 117 204 117 204 115 c 0,77,78
 204 106 204 106 212 92 c 128,-1,79
 220 78 220 78 229.5 63.5 c 128,-1,80
 239 49 239 49 248.5 36.5 c 128,-1,81
 258 24 258 24 262 18 c 1,82,83
 260 12 260 12 254.5 11 c 128,-1,84
 249 10 249 10 243 11 c 1,85,-1
 186 77 l 1,86,-1
 184 77 l 1,87,-1
 184 77 l 2,88,-1
 183 78 l 1,89,90
 175 78 175 78 168.5 72 c 128,-1,91
 162 66 162 66 155 57 c 128,-1,92
 148 48 148 48 140.5 38 c 128,-1,93
 133 28 133 28 123.5 19 c 128,-1,94
 114 10 114 10 102 4 c 128,-1,95
 90 -2 90 -2 74 -2 c 0,96,97
 72 -2 72 -2 68 -1.5 c 128,-1,98
 64 -1 64 -1 59.5 -0.5 c 128,-1,99
 55 -0 55 -0 50.5 0 c 128,-1,100
 46 0 46 0 45 0 c 1,101,102
 40 4 40 4 33 10 c 128,-1,103
 26 16 26 16 20 23 c 128,-1,104
 14 30 14 30 10 37 c 128,-1,105
 6 44 6 44 6 51 c 0,0,1
44 64 m 0,106,107
 44 60 44 60 46.5 54.5 c 128,-1,108
 49 49 49 49 52.5 43.5 c 128,-1,109
 56 38 56 38 61 35 c 128,-1,110
 66 32 66 32 70 32 c 0,111,112
 80 34 80 34 94.5 43.5 c 128,-1,113
 109 53 109 53 122.5 65.5 c 128,-1,114
 136 78 136 78 145 91.5 c 128,-1,115
 154 105 154 105 154 115 c 256,116,117
 154 125 154 125 149.5 136.5 c 128,-1,118
 145 148 145 148 138.5 159.5 c 128,-1,119
 132 171 132 171 125.5 182.5 c 0,120,121
 120 194 120 194 116 205 c 1,122,123
 108 203 108 203 99.5 193.5 c 128,-1,124
 91 184 91 184 83 169 c 128,-1,125
 75 154 75 154 68 137 c 128,-1,126
 61 120 61 120 55.5 105 c 128,-1,127
 50 90 50 90 47 78.5 c 128,-1,128
 44 67 44 67 44 64 c 0,106,107
EndSplineSet
EndChar

StartChar: quotesingle
Encoding: 39 39 10
Width: 70
VWidth: 512
Flags: HW
LayerCount: 2
Fore
SplineSet
13 475 m 0,0,1
 13 479 13 479 13.5 481.5 c 128,-1,2
 14 484 14 484 15 487 c 128,-1,3
 16 490 16 490 18.5 492.5 c 0,4,5
 22 495 22 495 26 499 c 1,6,7
 34 495 34 495 39 485 c 128,-1,8
 44 475 44 475 48 461.5 c 128,-1,9
 52 448 52 448 54 432.5 c 128,-1,10
 56 417 56 417 57 402.5 c 128,-1,11
 58 388 58 388 58 375 c 128,-1,12
 58 362 58 362 58 354 c 0,13,14
 58 345 58 345 57 338.5 c 128,-1,15
 56 332 56 332 45 332 c 0,16,17
 37 332 37 332 31 342 c 128,-1,18
 25 352 25 352 21.5 367.5 c 128,-1,19
 18 383 18 383 16 401 c 128,-1,20
 14 419 14 419 13.5 434.5 c 128,-1,21
 13 450 13 450 13 461.5 c 128,-1,22
 13 473 13 473 13 475 c 0,0,1
EndSplineSet
EndChar

StartChar: parenleft
Encoding: 40 40 11
Width: 288
VWidth: 512
Flags: HW
LayerCount: 2
Fore
SplineSet
13 131 m 0,0,1
 13 153 13 153 23.5 181 c 128,-1,2
 34 209 34 209 51 238.5 c 128,-1,3
 68 268 68 268 90.5 297 c 128,-1,4
 113 326 113 326 138 348 c 128,-1,5
 163 370 163 370 188.5 384 c 128,-1,6
 214 398 214 398 237 398 c 0,7,8
 243 398 243 398 249.5 395 c 128,-1,9
 256 392 256 392 262 387.5 c 128,-1,10
 268 383 268 383 272 377.5 c 128,-1,11
 276 372 276 372 276 366 c 0,12,13
 276 361 276 361 274 353 c 128,-1,14
 272 345 272 345 266 345 c 0,15,16
 262 345 262 345 258 347.5 c 128,-1,17
 254 350 254 350 250.5 352 c 128,-1,18
 247 354 247 354 243.5 356.5 c 128,-1,19
 240 359 240 359 234 359 c 0,20,21
 211 359 211 359 188.5 346.5 c 128,-1,22
 166 334 166 334 146 314 c 128,-1,23
 126 294 126 294 108 269 c 128,-1,24
 90 244 90 244 77.5 217 c 128,-1,25
 65 190 65 190 57.5 164 c 128,-1,26
 50 138 50 138 50 118 c 0,27,28
 50 86 50 86 61 66 c 128,-1,29
 72 46 72 46 91 34 c 128,-1,30
 110 22 110 22 134.5 16 c 128,-1,31
 159 10 159 10 186 6 c 1,32,33
 191 4 191 4 191.5 1 c 128,-1,34
 192 -2 192 -2 192 -6 c 0,35,36
 192 -16 192 -16 185.5 -20 c 128,-1,37
 179 -24 179 -24 170 -25.5 c 128,-1,38
 161 -27 161 -27 151.5 -26.5 c 128,-1,39
 142 -26 142 -26 138 -26 c 0,40,41
 106 -26 106 -26 83 -12 c 128,-1,42
 60 2 60 2 44 24.5 c 128,-1,43
 28 47 28 47 20.5 75 c 128,-1,44
 13 103 13 103 13 131 c 0,0,1
EndSplineSet
EndChar

StartChar: parenright
Encoding: 41 41 12
Width: 198
VWidth: 512
Flags: HW
LayerCount: 2
Fore
SplineSet
6 -13 m 0,0,1
 6 -8 6 -8 16.5 3 c 128,-1,2
 27 14 27 14 42.5 29 c 128,-1,3
 58 44 58 44 77 64 c 128,-1,4
 96 84 96 84 111.5 106 c 128,-1,5
 127 128 127 128 137.5 153 c 128,-1,6
 148 178 148 178 148 205 c 0,7,8
 148 230 148 230 141 253 c 128,-1,9
 134 276 134 276 121 297 c 128,-1,10
 108 318 108 318 92 336.5 c 128,-1,11
 76 355 76 355 58 371 c 1,12,13
 54 369 54 369 49 370 c 128,-1,14
 44 371 44 371 40 374 c 128,-1,15
 36 377 36 377 34 381.5 c 128,-1,16
 32 386 32 386 32 390 c 0,17,18
 32 400 32 400 38 402 c 128,-1,19
 44 404 44 404 52 404 c 0,20,21
 72 404 72 404 90 394 c 128,-1,22
 108 384 108 384 123 368 c 128,-1,23
 138 352 138 352 150 332 c 128,-1,24
 162 312 162 312 170 290 c 128,-1,25
 178 268 178 268 182 248 c 128,-1,26
 186 228 186 228 186 212 c 256,27,28
 186 196 186 196 179 171 c 128,-1,29
 172 146 172 146 159.5 118 c 128,-1,30
 147 90 147 90 130.5 62 c 128,-1,31
 114 34 114 34 96 11.5 c 128,-1,32
 78 -11 78 -11 59 -25 c 128,-1,33
 40 -39 40 -39 22 -39 c 0,34,35
 18 -39 18 -39 15 -36 c 128,-1,36
 12 -33 12 -33 10 -29 c 128,-1,37
 8 -25 8 -25 7 -20.5 c 128,-1,38
 6 -16 6 -16 6 -13 c 0,0,1
EndSplineSet
EndChar

StartChar: asterisk
Encoding: 42 42 13
Width: 281
VWidth: 512
Flags: HW
LayerCount: 2
Fore
SplineSet
122 269 m 0,0,1
 120 267.5 l 0,2,3
 118 266 118 266 116 264 c 128,-1,4
 114 262 114 262 112 260 c 128,-1,5
 110 258 110 258 109 256 c 0,6,7
 107 253 107 253 101.5 245 c 128,-1,8
 96 237 96 237 90 227.5 c 128,-1,9
 84 218 84 218 78 210 c 128,-1,10
 72 202 72 202 70 198 c 0,11,12
 69 197 69 197 66.5 196.5 c 128,-1,13
 64 196 64 196 61 195 c 128,-1,14
 58 194 58 194 55 193 c 128,-1,15
 52 192 52 192 51 192 c 0,16,17
 48 192 48 192 46.5 194 c 128,-1,18
 45 196 45 196 44.5 199 c 128,-1,19
 44 202 44 202 44 204.5 c 128,-1,20
 44 207 44 207 44 208 c 0,21,22
 44 217 44 217 47 225 c 128,-1,23
 50 233 50 233 53 240.5 c 128,-1,24
 56 248 56 248 58.5 256 c 128,-1,25
 61 264 61 264 61 273 c 1,26,27
 55 273 55 273 51 272.5 c 128,-1,28
 47 272 47 272 43.5 271 c 128,-1,29
 40 270 40 270 37 269 c 128,-1,30
 34 268 34 268 28 268 c 0,31,32
 26 268 26 268 22.5 268.5 c 128,-1,33
 19 269 19 269 16.5 270.5 c 128,-1,34
 14 272 14 272 13 274 c 128,-1,35
 12 276 12 276 13 282 c 0,36,37
 15 288 15 288 20.5 292.5 c 128,-1,38
 26 297 26 297 33.5 300.5 c 128,-1,39
 41 304 41 304 48.5 306 c 128,-1,40
 56 308 56 308 62 308 c 256,41,42
 68 308 68 308 69.5 306 c 128,-1,43
 71 304 71 304 72.5 301 c 128,-1,44
 74 298 74 298 75 296 c 128,-1,45
 76 294 76 294 80 294 c 2,46,-1
 82 294 l 2,47,-1
 84 294 l 0,48,49
 85 295 85 295 87.5 297.5 c 128,-1,50
 90 300 90 300 90 301 c 0,51,52
 90 313 90 313 80 323.5 c 128,-1,53
 70 334 70 334 59 343.5 c 128,-1,54
 48 353 48 353 39 361.5 c 128,-1,55
 30 370 30 370 32 378 c 0,56,57
 32 379 32 379 37 383.5 c 128,-1,58
 42 388 42 388 45 390 c 1,59,-1
 46 390 l 2,60,61
 47 390.5 l 0,62,-1
 48 391 l 1,63,64
 48 390 l 2,65,-1
 50 390 l 1,66,-1
 51 390 l 1,67,-1
 115 352 l 1,68,69
 114 356 114 356 114 362 c 128,-1,70
 114 368 114 368 115 373 c 128,-1,71
 116 378 116 378 119 382 c 128,-1,72
 122 386 122 386 128 386 c 0,73,74
 129 386 129 386 131.5 385 c 0,75,-1
 134 384 l 2,76,-1
 154 352 l 1,77,78
 163 358 163 358 174.5 368.5 c 128,-1,79
 186 379 186 379 199.5 389 c 128,-1,80
 213 399 213 399 227.5 407 c 0,81,82
 242 414 242 414 256 416 c 1,83,84
 260 410 260 410 261.5 406 c 128,-1,85
 263 402 263 402 263 397 c 0,86,87
 263 391 263 391 252.5 382 c 128,-1,88
 242 373 242 373 229 364 c 128,-1,89
 216 355 216 355 203 346.5 c 128,-1,90
 190 338 190 338 186 333 c 1,91,92
 191 333 191 333 200.5 333.5 c 128,-1,93
 210 334 210 334 219.5 333 c 128,-1,94
 229 332 229 332 236 329 c 128,-1,95
 243 326 243 326 243 320 c 0,96,97
 243 311 243 311 237 307.5 c 128,-1,98
 231 304 231 304 223.5 301 c 128,-1,99
 216 298 216 298 210 294 c 128,-1,100
 204 290 204 290 204 282 c 0,101,102
 204 272 204 272 209 262 c 128,-1,103
 214 252 214 252 220 242.5 c 128,-1,104
 226 233 226 233 233 223.5 c 128,-1,105
 240 214 240 214 243 205 c 1,106,107
 242 197 242 197 235.5 191.5 c 0,108,109
 228 186 228 186 220 186 c 2,110,-1
 218 186 l 1,111,112
 216 187 216 187 212.5 189.5 c 128,-1,113
 209 192 209 192 205 195 c 128,-1,114
 201 198 201 198 197.5 201 c 128,-1,115
 194 204 194 204 192 205 c 1,116,117
 193 190 193 190 187 175.5 c 0,118,119
 180 162 180 162 166 154 c 1,120,121
 162 158 162 158 160 168.5 c 128,-1,122
 158 179 158 179 155 192.5 c 128,-1,123
 152 206 152 206 149 220 c 128,-1,124
 146 234 146 234 142 246 c 128,-1,125
 138 258 138 258 133 264.5 c 128,-1,126
 128 271 128 271 122 269 c 0,0,1
EndSplineSet
EndChar

StartChar: plus
Encoding: 43 43 14
Width: 314
VWidth: 512
Flags: HW
LayerCount: 2
Fore
SplineSet
122 128 m 2,0,1
 109 128 109 128 96 126 c 128,-1,2
 83 124 83 124 70.5 121.5 c 128,-1,3
 58 119 58 119 45 117 c 128,-1,4
 32 115 32 115 20 115 c 0,5,6
 10 115 10 115 7.5 119.5 c 128,-1,7
 5 124 5 124 5 131 c 0,8,9
 5 139 5 139 7.5 142 c 0,10,11
 10 146 10 146 20 148 c 0,12,13
 26 149 26 149 39 151.5 c 128,-1,14
 52 154 52 154 67.5 157 c 128,-1,15
 83 160 83 160 96.5 163 c 128,-1,16
 110 166 110 166 116 166 c 0,17,18
 120 166 120 166 121 169.5 c 128,-1,19
 122 173 122 173 122.5 176.5 c 128,-1,20
 123 180 123 180 122.5 183.5 c 0,21,22
 122 186 122 186 122 188 c 0,23,24
 122 198 122 198 120 209 c 128,-1,25
 118 220 118 220 115.5 230.5 c 128,-1,26
 113 241 113 241 111 251.5 c 128,-1,27
 109 262 109 262 109 273 c 2,28,-1
 109 276 l 1,29,30
 110 278 110 278 115 282.5 c 0,31,32
 120 286 120 286 122 288 c 1,33,-1
 124 288 l 2,34,-1
 124 288.5 l 0,35,36
 124 289 124 289 125 289 c 256,37,-1
 125.5 288.5 l 0,38,39
 126 288 126 288 127 288 c 2,40,-1
 128 288 l 1,41,-1
 142 276 l 1,42,-1
 167 186 l 1,43,-1
 173 179 l 1,44,-1
 184.5 177.5 l 0,45,46
 196 176 196 176 211 174 c 128,-1,47
 226 172 226 172 242.5 170 c 0,48,49
 260 168 260 168 270 166 c 0,50,51
 272 166 272 166 277 166 c 128,-1,52
 282 166 282 166 287.5 165 c 128,-1,53
 293 164 293 164 297 161 c 128,-1,54
 301 158 301 158 301 154 c 0,55,56
 301 152 301 152 298.5 147.5 c 128,-1,57
 296 143 296 143 293 138.5 c 128,-1,58
 290 134 290 134 287 131 c 128,-1,59
 284 128 284 128 282 128 c 2,60,-1
 180 128 l 1,61,-1
 180 13 l 1,62,-1
 177.5 11.5 l 0,63,64
 175 10 175 10 172 8 c 128,-1,65
 169 6 169 6 165.5 3.5 c 128,-1,66
 162 1 162 1 160 0 c 0,67,-1
 159 -0 l 2,68,-1
 157 -0 l 2,69,70
 149 0 149 0 146 6.5 c 128,-1,71
 143 13 143 13 142 21.5 c 128,-1,72
 141 30 141 30 141.5 39 c 128,-1,73
 142 48 142 48 142 51 c 0,74,75
 142 55 142 55 140 66.5 c 128,-1,76
 138 78 138 78 136 90 c 128,-1,77
 134 102 134 102 132 113 c 128,-1,78
 130 124 130 124 128 128 c 1,79,-1
 122 128 l 2,0,1
EndSplineSet
EndChar

StartChar: comma
Encoding: 44 44 15
Width: 89
VWidth: 512
Flags: HW
LayerCount: 2
Fore
SplineSet
6 -106 m 0,0,1
 6 -90 6 -90 9 -73.5 c 128,-1,2
 12 -57 12 -57 16 -40.5 c 128,-1,3
 20 -24 20 -24 23 -7.5 c 0,4,5
 26 10 26 10 26 26 c 0,6,7
 26 28 26 28 26 31 c 128,-1,8
 26 34 26 34 26 38 c 128,-1,9
 26 42 26 42 26 46 c 128,-1,10
 26 50 26 50 26 51 c 1,11,12
 17 51 17 51 14.5 54.5 c 128,-1,13
 12 58 12 58 12 64 c 0,14,15
 12 77 12 77 17 87 c 128,-1,16
 22 97 22 97 36 97 c 0,17,18
 49 97 49 97 55.5 87.5 c 128,-1,19
 62 78 62 78 64 66 c 128,-1,20
 66 54 66 54 65.5 41 c 128,-1,21
 65 28 65 28 65 20 c 0,22,23
 65 14 65 14 63.5 1 c 128,-1,24
 62 -12 62 -12 59.5 -28.5 c 128,-1,25
 57 -45 57 -45 53 -63 c 128,-1,26
 49 -81 49 -81 44 -95.5 c 128,-1,27
 39 -110 39 -110 32.5 -120 c 128,-1,28
 26 -130 26 -130 20 -130 c 0,29,30
 16 -130 16 -130 13 -127 c 128,-1,31
 10 -124 10 -124 8 -121 c 128,-1,32
 6 -118 6 -118 6 -114 c 128,-1,33
 6 -110 6 -110 6 -106 c 0,0,1
EndSplineSet
EndChar

StartChar: hyphen
Encoding: 45 45 16
Width: 256
VWidth: 512
Flags: HW
LayerCount: 2
Fore
SplineSet
169 218 m 0,0,1
 179 218 179 218 189.5 217.5 c 128,-1,2
 200 217 200 217 209 214 c 128,-1,3
 218 211 218 211 224.5 204.5 c 128,-1,4
 231 198 231 198 231 186 c 0,5,6
 231 172 231 172 218 172 c 0,7,8
 204 172 204 172 191.5 176 c 0,9,10
 180 180 180 180 164 180 c 0,11,12
 144 180 144 180 125 177.5 c 128,-1,13
 106 175 106 175 87 172 c 128,-1,14
 68 169 68 169 49 166.5 c 128,-1,15
 30 164 30 164 10 164 c 1,16,17
 10 180 10 180 17 190 c 128,-1,18
 24 200 24 200 36 205 c 128,-1,19
 48 210 48 210 63.5 212 c 128,-1,20
 79 214 79 214 95 215 c 128,-1,21
 111 216 111 216 126.5 216 c 128,-1,22
 142 216 142 216 154 218 c 1,23,-1
 156 218 l 0,24,25
 158 218 158 218 160 218 c 128,-1,26
 162 218 162 218 164.5 218 c 128,-1,27
 167 218 167 218 169 218 c 0,0,1
EndSplineSet
EndChar

StartChar: period
Encoding: 46 46 17
Width: 139
VWidth: 512
Flags: HW
LayerCount: 2
Fore
SplineSet
30 64 m 0,0,1
 30 70 30 70 34 80.5 c 128,-1,2
 38 91 38 91 44 101.5 c 128,-1,3
 50 112 50 112 57 120 c 128,-1,4
 64 128 64 128 68 128 c 0,5,6
 82 128 82 128 92 121 c 128,-1,7
 102 114 102 114 108 104 c 128,-1,8
 114 94 114 94 117 81 c 128,-1,9
 120 68 120 68 120 57 c 0,10,11
 120 49 120 49 116 39.5 c 128,-1,12
 112 30 112 30 105 21 c 128,-1,13
 98 12 98 12 89 6 c 128,-1,14
 80 0 80 0 72 0 c 0,15,16
 62 0 62 0 54 7 c 128,-1,17
 46 14 46 14 41 24 c 128,-1,18
 36 34 36 34 33 45 c 128,-1,19
 30 56 30 56 30 64 c 0,0,1
EndSplineSet
EndChar

StartChar: slash
Encoding: 47 47 18
Width: 211
VWidth: 512
Flags: HW
LayerCount: 2
Fore
SplineSet
6 22 m 0,0,1
 6 31 6 31 11 45.5 c 128,-1,2
 16 60 16 60 22 74 c 128,-1,3
 28 88 28 88 34.5 101.5 c 128,-1,4
 41 115 41 115 45 122 c 1,5,-1
 154 422 l 1,6,7
 156 432 156 432 158 446 c 128,-1,8
 160 460 160 460 163 473.5 c 128,-1,9
 166 487 166 487 172 498 c 128,-1,10
 178 509 178 509 186 512 c 1,11,12
 192 510 192 510 195 507 c 128,-1,13
 198 504 198 504 199 499.5 c 128,-1,14
 200 495 200 495 199.5 490.5 c 128,-1,15
 199 486 199 486 199 482 c 0,16,17
 199 472 199 472 192.5 445.5 c 128,-1,18
 186 419 186 419 176 383.5 c 128,-1,19
 166 348 166 348 152 305.5 c 128,-1,20
 138 263 138 263 123.5 220.5 c 128,-1,21
 109 178 109 178 94 138 c 128,-1,22
 79 98 79 98 65.5 67.5 c 128,-1,23
 52 37 52 37 42 18.5 c 128,-1,24
 32 0 32 0 26 0 c 0,25,26
 18 0 18 0 12 7.5 c 128,-1,27
 6 15 6 15 6 22 c 0,0,1
EndSplineSet
EndChar

StartChar: zero
Encoding: 48 48 19
Width: 294
VWidth: 512
Flags: HW
LayerCount: 2
Fore
SplineSet
12 148 m 0,0,1
 12 171 12 171 24.5 196.5 c 128,-1,2
 37 222 37 222 56.5 244 c 128,-1,3
 76 266 76 266 101 280 c 128,-1,4
 126 294 126 294 150 294 c 0,5,6
 166 294 166 294 181 287 c 128,-1,7
 196 280 196 280 210 269 c 128,-1,8
 224 258 224 258 236 243 c 128,-1,9
 248 228 248 228 257 211.5 c 128,-1,10
 266 195 266 195 271 178.5 c 128,-1,11
 276 162 276 162 276 148 c 0,12,13
 276 123 276 123 269 96.5 c 128,-1,14
 262 70 262 70 247 49 c 128,-1,15
 232 28 232 28 210 14 c 128,-1,16
 188 0 188 0 158 -0 c 0,17,18
 127 0 127 0 100.5 11.5 c 128,-1,19
 74 23 74 23 54.5 43.5 c 128,-1,20
 35 64 35 64 23.5 90.5 c 128,-1,21
 12 117 12 117 12 148 c 0,0,1
45 154 m 0,22,23
 42 130 42 130 49 109 c 128,-1,24
 56 88 56 88 70 72 c 128,-1,25
 84 56 84 56 104 47 c 128,-1,26
 124 38 124 38 148 38 c 0,27,28
 156 38 156 38 163 39 c 128,-1,29
 170 40 170 40 176 42 c 128,-1,30
 182 44 182 44 189 48 c 128,-1,31
 196 52 196 52 205 58 c 1,32,33
 206 67 206 67 211 74 c 128,-1,34
 216 81 216 81 222 89.5 c 128,-1,35
 228 98 228 98 233 108.5 c 0,36,37
 238 120 238 120 238 136 c 0,38,39
 238 158 238 158 231 178.5 c 128,-1,40
 224 199 224 199 210 215 c 128,-1,41
 196 231 196 231 177 240.5 c 128,-1,42
 158 250 158 250 134 250 c 0,43,44
 116 250 116 250 100.5 241 c 128,-1,45
 85 232 85 232 73.5 218 c 128,-1,46
 62 204 62 204 54.5 187 c 128,-1,47
 47 170 47 170 45 154 c 0,22,23
EndSplineSet
EndChar

StartChar: one
Encoding: 49 49 20
Width: 217
VWidth: 512
Flags: HW
LayerCount: 2
Fore
SplineSet
122 13 m 0,0,1
 122 14 122 14 122 17 c 128,-1,2
 122 20 122 20 122 24 c 128,-1,3
 122 28 122 28 122 31 c 128,-1,4
 122 34 122 34 122 36 c 0,5,6
 122 42 122 42 122.5 55 c 128,-1,7
 123 68 123 68 124.5 83 c 128,-1,8
 126 98 126 98 127 115.5 c 128,-1,9
 128 133 128 133 129 148.5 c 128,-1,10
 130 164 130 164 131 177 c 128,-1,11
 132 190 132 190 132 196 c 0,12,13
 132 200 132 200 132 204 c 128,-1,14
 132 208 132 208 131 212 c 128,-1,15
 130 216 130 216 127 219 c 128,-1,16
 124 222 124 222 119 223 c 1,17,18
 116 221 116 221 109.5 212.5 c 128,-1,19
 103 204 103 204 94.5 194 c 128,-1,20
 86 184 86 184 76.5 173 c 128,-1,21
 67 162 67 162 57.5 153 c 128,-1,22
 48 144 48 144 40 138 c 128,-1,23
 32 132 32 132 26 132 c 0,24,25
 10 132 10 132 10 150 c 2,26,-1
 10 153 l 1,27,28
 11 155 11 155 12.5 157.5 c 128,-1,29
 14 160 14 160 16 163 c 128,-1,30
 18 166 18 166 20 168.5 c 128,-1,31
 22 171 22 171 22 172 c 2,32,-1
 144 300 l 2,33,34
 150 306 150 306 153 316 c 128,-1,35
 156 326 156 326 158.5 337 c 128,-1,36
 161 348 161 348 163.5 360 c 128,-1,37
 166 372 166 372 169 381.5 c 128,-1,38
 172 391 172 391 176.5 397 c 0,39,40
 180 403 180 403 188 403 c 0,41,42
 192 403 192 403 196 402.5 c 128,-1,43
 200 402 200 402 202 396 c 1,44,45
 202 394 202 394 202 391 c 128,-1,46
 202 388 202 388 202 385 c 128,-1,47
 202 382 202 382 202 378.5 c 128,-1,48
 202 375 202 375 202 374 c 0,49,50
 202 371 202 371 200 353.5 c 128,-1,51
 198 336 198 336 195 309 c 128,-1,52
 192 282 192 282 188 249 c 128,-1,53
 184 216 184 216 179.5 181 c 128,-1,54
 175 146 175 146 170 114 c 128,-1,55
 165 82 165 82 160 56 c 128,-1,56
 155 30 155 30 150.5 15 c 128,-1,57
 146 0 146 0 142 -0 c 0,58,59
 135 0 135 0 130.5 2.5 c 128,-1,60
 126 5 126 5 122 13 c 0,0,1
EndSplineSet
EndChar

StartChar: two
Encoding: 50 50 21
Width: 339
VWidth: 512
Flags: HW
LayerCount: 2
Fore
SplineSet
186 20 m 0,0,1
 162 20 162 20 140 16 c 128,-1,2
 118 12 118 12 94 12 c 0,3,4
 81 12 81 12 66.5 15 c 128,-1,5
 52 18 52 18 39 25 c 128,-1,6
 26 32 26 32 17 43 c 128,-1,7
 8 54 8 54 6 70 c 0,8,9
 4 80 4 80 9 87 c 128,-1,10
 14 94 14 94 21 97 c 128,-1,11
 28 100 28 100 36.5 101.5 c 0,12,13
 46 103 46 103 52 103 c 0,14,15
 68 103 68 103 82 98 c 128,-1,16
 96 93 96 93 111 86.5 c 128,-1,17
 126 80 126 80 140 75 c 128,-1,18
 154 70 154 70 170 70 c 0,19,20
 184 70 184 70 196 80 c 128,-1,21
 208 90 208 90 218 105 c 128,-1,22
 228 120 228 120 235 138.5 c 128,-1,23
 242 157 242 157 247 175 c 128,-1,24
 252 193 252 193 254.5 208.5 c 128,-1,25
 257 224 257 224 257 234 c 128,-1,26
 257 244 257 244 254.5 261 c 128,-1,27
 252 278 252 278 246 296 c 128,-1,28
 240 314 240 314 230 327 c 128,-1,29
 220 340 220 340 206 340 c 128,-1,30
 192 340 192 340 185 330 c 128,-1,31
 178 320 178 320 174 307.5 c 128,-1,32
 170 295 170 295 166 283.5 c 128,-1,33
 162 272 162 272 154 269 c 1,34,35
 144 276 144 276 142 286.5 c 128,-1,36
 140 297 140 297 140 307 c 0,37,38
 140 320 140 320 145.5 332 c 128,-1,39
 151 344 151 344 160.5 352.5 c 128,-1,40
 170 361 170 361 182 366 c 128,-1,41
 194 371 194 371 208 371 c 0,42,43
 232 371 232 371 248.5 357 c 128,-1,44
 265 343 265 343 275.5 322.5 c 128,-1,45
 286 302 286 302 291 278.5 c 128,-1,46
 296 255 296 255 296 237 c 0,47,48
 296 220 296 220 295 207 c 128,-1,49
 294 194 294 194 291 181 c 128,-1,50
 288 168 288 168 283 154 c 128,-1,51
 278 140 278 140 270 122 c 1,52,53
 266 118 266 118 259 111 c 128,-1,54
 252 104 252 104 246 95 c 128,-1,55
 240 86 240 86 235.5 77.5 c 128,-1,56
 231 69 231 69 231 64 c 0,57,58
 231 57 231 57 237.5 53.5 c 128,-1,59
 244 50 244 50 254 48 c 128,-1,60
 264 46 264 46 276 45 c 128,-1,61
 288 44 288 44 298 41 c 128,-1,62
 308 38 308 38 314.5 33 c 128,-1,63
 321 28 321 28 321 20 c 0,64,65
 321 13 321 13 314.5 6.5 c 128,-1,66
 308 0 308 0 301 0 c 0,67,68
 286 0 286 0 272 3 c 128,-1,69
 258 6 258 6 244 10 c 128,-1,70
 230 14 230 14 215.5 17 c 128,-1,71
 201 20 201 20 186 20 c 0,0,1
EndSplineSet
EndChar

StartChar: three
Encoding: 51 51 22
Width: 294
VWidth: 512
Flags: HW
LayerCount: 2
Fore
SplineSet
13 84 m 0,0,1
 12 86 l 2,2,-1
 12 89 l 2,3,4
 12 101 12 101 18.5 108.5 c 0,5,6
 24 116 24 116 36 116 c 0,7,8
 40 116 40 116 50 104 c 128,-1,9
 60 92 60 92 76.5 77 c 128,-1,10
 93 62 93 62 116.5 50 c 128,-1,11
 140 38 140 38 170 38 c 0,12,13
 182 38 182 38 194 40 c 128,-1,14
 206 42 206 42 216 46.5 c 128,-1,15
 226 51 226 51 232 59 c 0,16,17
 238 68 238 68 238 80 c 0,18,19
 238 108 238 108 223.5 126 c 128,-1,20
 209 144 209 144 187.5 155 c 128,-1,21
 166 166 166 166 141 172.5 c 128,-1,22
 116 179 116 179 94 184 c 128,-1,23
 72 189 72 189 58 194 c 128,-1,24
 44 199 44 199 44 208 c 0,25,26
 44 209 44 209 44 210 c 0,27,-1
 45 212 l 0,28,29
 46 214 46 214 51 218.5 c 0,30,31
 56 222 56 222 58 224 c 1,32,33
 65 226 65 226 78.5 228.5 c 128,-1,34
 92 231 92 231 107 234.5 c 128,-1,35
 122 238 122 238 138.5 243 c 128,-1,36
 155 248 155 248 168.5 255.5 c 128,-1,37
 182 263 182 263 190 272.5 c 128,-1,38
 198 282 198 282 198 294 c 0,39,40
 198 304 198 304 190.5 311 c 128,-1,41
 183 318 183 318 172.5 321 c 128,-1,42
 162 324 162 324 151 325.5 c 128,-1,43
 140 327 140 327 134 327 c 0,44,45
 127 327 127 327 114.5 326.5 c 128,-1,46
 102 326 102 326 89 324.5 c 128,-1,47
 76 323 76 323 67 320.5 c 128,-1,48
 58 318 58 318 58 314 c 2,49,-1
 58 300 l 1,50,51
 42 300 42 300 33.5 307 c 128,-1,52
 25 314 25 314 25 330 c 0,53,54
 25 336 25 336 28.5 341.5 c 128,-1,55
 32 347 32 347 38 350.5 c 128,-1,56
 44 354 44 354 51 356 c 128,-1,57
 58 358 58 358 64 358 c 2,58,-1
 160 358 l 2,59,60
 176 358 176 358 189 351 c 128,-1,61
 202 344 202 344 211 333 c 128,-1,62
 220 322 220 322 225.5 308 c 128,-1,63
 231 294 231 294 231 280 c 256,64,65
 231 266 231 266 221.5 257 c 128,-1,66
 212 248 212 248 201 240.5 c 128,-1,67
 190 233 190 233 181 225.5 c 128,-1,68
 172 218 172 218 172 208 c 0,69,-1
 172.5 207 l 0,70,71
 173 206 173 206 173 205 c 0,72,73
 193 197 193 197 212 184.5 c 128,-1,74
 231 172 231 172 245.5 156 c 128,-1,75
 260 140 260 140 268 120 c 128,-1,76
 276 100 276 100 276 77 c 0,77,78
 276 57 276 57 267 42 c 128,-1,79
 258 27 258 27 244 17.5 c 128,-1,80
 230 8 230 8 212 4 c 128,-1,81
 194 0 194 0 176 -0 c 1,82,83
 160 1 160 1 145 2.5 c 128,-1,84
 130 4 130 4 112 12 c 128,-1,85
 94 20 94 20 70.5 37 c 128,-1,86
 47 54 47 54 13 84 c 0,0,1
EndSplineSet
EndChar

StartChar: four
Encoding: 52 52 23
Width: 281
VWidth: 512
Flags: HW
LayerCount: 2
Fore
SplineSet
202 148 m 1,0,1
 192 142 192 142 181 135 c 128,-1,2
 170 128 170 128 157 121 c 128,-1,3
 144 114 144 114 131 110 c 128,-1,4
 118 106 118 106 106 109 c 1,5,6
 80 109 80 109 62 123.5 c 128,-1,7
 44 138 44 138 33 159.5 c 128,-1,8
 22 181 22 181 17 205.5 c 128,-1,9
 12 230 12 230 12 249 c 0,10,11
 12 271 12 271 14 288.5 c 128,-1,12
 16 306 16 306 20.5 323 c 128,-1,13
 25 340 25 340 31 357.5 c 128,-1,14
 37 375 37 375 45 397 c 1,15,16
 46 404 46 404 52.5 407.5 c 128,-1,17
 59 411 59 411 66.5 411.5 c 128,-1,18
 74 412 74 412 79.5 409 c 128,-1,19
 85 406 85 406 84 400 c 1,20,21
 84 382 84 382 78 364.5 c 128,-1,22
 72 347 72 347 64 328.5 c 128,-1,23
 56 310 56 310 50 291 c 128,-1,24
 44 272 44 272 44 252 c 0,25,26
 44 238 44 238 48 222 c 128,-1,27
 52 206 52 206 59.5 192 c 128,-1,28
 67 178 67 178 79 168 c 0,29,30
 92 158 92 158 108 158 c 0,31,32
 130 158 130 158 148.5 169 c 128,-1,33
 167 180 167 180 181.5 197 c 128,-1,34
 196 214 196 214 207 233 c 128,-1,35
 218 252 218 252 226 268.5 c 128,-1,36
 234 285 234 285 238 296 c 128,-1,37
 242 307 242 307 243 307 c 0,38,39
 259 307 259 307 263.5 301.5 c 128,-1,40
 268 296 268 296 268 287 c 0,41,42
 268 273 268 273 265 256.5 c 128,-1,43
 262 240 262 240 258.5 222.5 c 128,-1,44
 255 205 255 205 252 188.5 c 128,-1,45
 249 172 249 172 249 158 c 0,46,47
 249 142 249 142 251.5 126 c 128,-1,48
 254 110 254 110 256 94 c 128,-1,49
 258 78 258 78 260.5 62 c 128,-1,50
 263 46 263 46 263 30 c 0,51,52
 263 17 263 17 254.5 7.5 c 128,-1,53
 246 -2 246 -2 233 -2 c 0,54,55
 225 -2 225 -2 221 9 c 128,-1,56
 217 20 217 20 215.5 37 c 128,-1,57
 214 54 214 54 214 73 c 128,-1,58
 214 92 214 92 213.5 109 c 128,-1,59
 213 126 213 126 210.5 137 c 128,-1,60
 208 148 208 148 202 148 c 1,0,1
EndSplineSet
EndChar

StartChar: five
Encoding: 53 53 24
Width: 390
VWidth: 512
Flags: HW
LayerCount: 2
Fore
SplineSet
12 96 m 1,0,1
 11 114 11 114 16.5 127 c 128,-1,2
 22 140 22 140 28 141 c 128,-1,3
 34 142 34 142 39 129 c 128,-1,4
 44 116 44 116 42 84 c 0,5,6
 42 77 42 77 50.5 71.5 c 128,-1,7
 59 66 59 66 72.5 61.5 c 128,-1,8
 86 57 86 57 101.5 53.5 c 128,-1,9
 117 50 117 50 131.5 48 c 128,-1,10
 146 46 146 46 156 45 c 128,-1,11
 166 44 166 44 170 44 c 0,12,13
 192 44 192 44 214 48 c 128,-1,14
 236 52 236 52 254.5 62 c 128,-1,15
 273 72 273 72 284.5 89 c 128,-1,16
 296 106 296 106 296 132 c 0,17,18
 296 160 296 160 286 179 c 128,-1,19
 276 198 276 198 259 211 c 128,-1,20
 242 224 242 224 221 231 c 128,-1,21
 200 238 200 238 177 243 c 128,-1,22
 154 248 154 248 131 250 c 128,-1,23
 108 252 108 252 90 256 c 1,24,25
 86 262 86 262 84 266 c 128,-1,26
 82 270 82 270 82 276 c 0,27,28
 82 277 82 277 83 279 c 0,29,-1
 84 282 l 0,30,31
 87 288 87 288 94 301 c 128,-1,32
 101 314 101 314 109.5 329.5 c 128,-1,33
 118 345 118 345 125 358.5 c 128,-1,34
 132 372 132 372 134 378 c 0,35,36
 135.5 381 l 0,37,38
 137 384 137 384 138 387 c 128,-1,39
 139 390 139 390 140 393 c 128,-1,40
 141 396 141 396 141 397 c 128,-1,41
 141 398 141 398 140.5 400 c 128,-1,42
 140 402 140 402 140 404 c 1,43,-1
 126 404 l 1,44,45
 126 417 126 417 133 425.5 c 128,-1,46
 140 434 140 434 151.5 439 c 128,-1,47
 163 444 163 444 177.5 446 c 128,-1,48
 192 448 192 448 206.5 448.5 c 128,-1,49
 221 449 221 449 234 448.5 c 128,-1,50
 247 448 247 448 256 448 c 0,51,52
 270 448 270 448 286 449 c 128,-1,53
 302 450 302 450 318 448 c 128,-1,54
 334 446 334 446 348 440.5 c 0,55,56
 362 434 362 434 371 422 c 0,57,-1
 371.5 421 l 0,58,-1
 372 420 l 0,59,60
 372 417 372 417 369.5 414 c 128,-1,61
 367 411 367 411 364 408.5 c 128,-1,62
 361 406 361 406 357.5 405 c 128,-1,63
 354 404 354 404 352 404 c 128,-1,64
 350 404 350 404 345 405 c 128,-1,65
 340 406 340 406 333 407 c 128,-1,66
 326 408 326 408 321 409 c 128,-1,67
 316 410 316 410 314 410 c 256,68,69
 312 410 312 410 303.5 410 c 128,-1,70
 295 410 295 410 284.5 410 c 128,-1,71
 274 410 274 410 263 410.5 c 128,-1,72
 252 411 252 411 246 411 c 0,73,74
 242 411 242 411 234 410.5 c 128,-1,75
 226 410 226 410 219 410 c 128,-1,76
 212 410 212 410 206 410 c 128,-1,77
 200 410 200 410 198 410 c 2,78,-1
 179 404 l 1,79,80
 177 392 177 392 170.5 378 c 128,-1,81
 164 364 164 364 157.5 350 c 128,-1,82
 151 336 151 336 145.5 323 c 128,-1,83
 140 310 140 310 140 301 c 0,84,85
 140 300 140 300 140.5 297.5 c 0,86,87
 141 294 l 0,88,89
 177 288 177 288 212 276 c 128,-1,90
 247 264 247 264 274 243 c 128,-1,91
 301 222 301 222 317.5 191.5 c 0,92,93
 334 160 334 160 334 118 c 1,94,95
 337 93 337 93 324.5 72.5 c 128,-1,96
 312 52 312 52 292.5 36 c 128,-1,97
 273 20 273 20 248.5 11 c 128,-1,98
 224 2 224 2 202 0 c 1,99,100
 186 0 186 0 166 1 c 128,-1,101
 146 2 146 2 125 5 c 128,-1,102
 104 8 104 8 84 14 c 128,-1,103
 64 20 64 20 48 31 c 128,-1,104
 32 42 32 42 22 57.5 c 128,-1,105
 12 73 12 73 12 96 c 1,0,1
EndSplineSet
EndChar

StartChar: six
Encoding: 54 54 25
Width: 301
VWidth: 512
Flags: HW
LayerCount: 2
Fore
SplineSet
12 142 m 128,-1,1
 12 168 12 168 20.5 197 c 128,-1,2
 29 226 29 226 44 255 c 128,-1,3
 59 284 59 284 79.5 311 c 128,-1,4
 100 338 100 338 124 359 c 128,-1,5
 148 380 148 380 175 393.5 c 0,6,7
 202 408 202 408 230 410 c 0,8,9
 236 410 236 410 245.5 408.5 c 128,-1,10
 255 407 255 407 263 403 c 128,-1,11
 271 399 271 399 276.5 392.5 c 128,-1,12
 282 386 282 386 282 378 c 0,13,14
 282 374 282 374 281 369.5 c 128,-1,15
 280 365 280 365 278 360.5 c 128,-1,16
 276 356 276 356 273 353.5 c 128,-1,17
 270 351 270 351 266 351 c 0,18,19
 264 351 264 351 259 353.5 c 128,-1,20
 254 356 254 356 249 360 c 128,-1,21
 244 364 244 364 239 367 c 128,-1,22
 234 370 234 370 230 371 c 1,23,-1
 228 371 l 2,24,25
 215 371 215 371 198 363.5 c 128,-1,26
 181 356 181 356 163.5 344 c 128,-1,27
 146 332 146 332 129.5 316 c 128,-1,28
 113 300 113 300 99.5 283.5 c 128,-1,29
 86 267 86 267 78 250.5 c 128,-1,30
 70 234 70 234 70 220 c 2,31,-1
 70 218 l 1,32,33
 84 223 84 223 95 225.5 c 128,-1,34
 106 228 106 228 116 229 c 128,-1,35
 126 230 126 230 137 230.5 c 128,-1,36
 148 231 148 231 161 231 c 0,37,38
 187 231 187 231 209.5 222.5 c 128,-1,39
 232 214 232 214 248 198 c 128,-1,40
 264 182 264 182 273 160 c 128,-1,41
 282 138 282 138 282 112 c 0,42,43
 282 81 282 81 268 59.5 c 128,-1,44
 254 38 254 38 232 25 c 128,-1,45
 210 12 210 12 182 6 c 128,-1,46
 154 0 154 0 128 -0 c 0,47,48
 97 0 97 0 75 12 c 128,-1,49
 53 24 53 24 39.5 44 c 128,-1,50
 26 64 26 64 19 90 c 128,-1,0
 12 116 12 116 12 142 c 128,-1,1
45 128 m 1,51,52
 53 86 53 86 77 66 c 0,53,54
 102 46 102 46 138 44 c 1,55,56
 156 44 156 44 175 47 c 128,-1,57
 194 50 194 50 209 59 c 128,-1,58
 224 68 224 68 234 83 c 128,-1,59
 244 98 244 98 244 120 c 0,60,61
 244 132 244 132 236 146 c 128,-1,62
 228 160 228 160 216.5 172 c 128,-1,63
 205 184 205 184 191.5 192 c 128,-1,64
 178 200 178 200 166 200 c 0,65,66
 142 200 142 200 119 195.5 c 128,-1,67
 96 191 96 191 79 182 c 128,-1,68
 62 173 62 173 52.5 159.5 c 128,-1,69
 43 146 43 146 45 128 c 1,51,52
EndSplineSet
EndChar

StartChar: seven
Encoding: 55 55 26
Width: 281
VWidth: 512
Flags: HW
LayerCount: 2
Fore
SplineSet
122 20 m 1,0,1
 132 56 132 56 139 88.5 c 128,-1,2
 146 121 146 121 146 158 c 1,3,4
 124 158 124 158 100 160 c 128,-1,5
 76 162 76 162 56 162 c 1,6,7
 48 175 48 175 50.5 182.5 c 128,-1,8
 53 190 53 190 61 193 c 128,-1,9
 69 196 69 196 81.5 196 c 128,-1,10
 94 196 94 196 107 196 c 128,-1,11
 120 196 120 196 132.5 196 c 0,12,13
 146 196 146 196 154 198 c 1,14,-1
 155 200.5 l 0,15,16
 156 203 156 203 157 206 c 128,-1,17
 158 209 158 209 159 212.5 c 128,-1,18
 160 216 160 216 160 218 c 0,19,20
 164 232 164 232 166 243.5 c 128,-1,21
 168 255 168 255 168 267.5 c 128,-1,22
 168 280 168 280 168 294.5 c 0,23,24
 168 308 168 308 166 326 c 1,25,26
 154 327 154 327 136 326.5 c 128,-1,27
 118 326 118 326 100 326 c 128,-1,28
 82 326 82 326 64 326.5 c 128,-1,29
 46 327 46 327 35 331 c 128,-1,30
 24 335 24 335 20 343 c 128,-1,31
 16 351 16 351 25 365 c 1,32,33
 37 363 37 363 59.5 361.5 c 128,-1,34
 82 360 82 360 107 359 c 128,-1,35
 132 358 132 358 158 357.5 c 0,36,37
 184 356 184 356 205 358 c 1,38,39
 205 355 205 355 205 348.5 c 128,-1,40
 205 342 205 342 205.5 334 c 128,-1,41
 206 326 206 326 206 319.5 c 0,42,43
 206 312 206 312 206 310 c 0,44,45
 206 281 206 281 202.5 253.5 c 128,-1,46
 199 226 199 226 199 197 c 1,47,48
 207 197 207 197 219 197.5 c 128,-1,49
 231 198 231 198 242.5 195 c 128,-1,50
 254 192 254 192 262 186 c 128,-1,51
 270 180 270 180 270 167 c 0,52,53
 270 160 270 160 267.5 153 c 0,54,55
 264 146 264 146 256 146 c 0,56,57
 249 146 249 146 242.5 148.5 c 128,-1,58
 236 151 236 151 229.5 154 c 128,-1,59
 223 157 223 157 216.5 159.5 c 128,-1,60
 210 162 210 162 202 162 c 0,61,62
 200 162 200 162 196 161.5 c 0,63,-1
 192 160 l 2,64,-1
 160 13 l 1,65,66
 158 5 158 5 152.5 2.5 c 128,-1,67
 147 0 147 0 141 -0 c 0,68,69
 133 0 133 0 128.5 6 c 128,-1,70
 124 12 124 12 122 20 c 1,0,1
EndSplineSet
EndChar

StartChar: eight
Encoding: 56 56 27
Width: 256
VWidth: 512
Flags: HW
LayerCount: 2
Fore
SplineSet
32 148 m 1,0,1
 39 162 39 162 50.5 175 c 128,-1,2
 62 188 62 188 77 205 c 1,3,-1
 77 206 l 2,4,5
 77.5 207 l 0,6,-1
 78 208 l 0,7,8
 78 209 78 209 77.5 209.5 c 128,-1,9
 77 210 77 210 77 212 c 1,10,11
 68 220 68 220 56 228 c 128,-1,12
 44 236 44 236 34 245 c 128,-1,13
 24 254 24 254 18 265 c 128,-1,14
 12 276 12 276 12 288 c 1,15,16
 8 296 8 296 11.5 307 c 128,-1,17
 15 318 15 318 22.5 330 c 128,-1,18
 30 342 30 342 42 354 c 128,-1,19
 54 366 54 366 66.5 374.5 c 128,-1,20
 79 383 79 383 91.5 387.5 c 128,-1,21
 104 392 104 392 114 391 c 1,22,23
 126 391 126 391 141 386.5 c 128,-1,24
 156 382 156 382 169 374 c 128,-1,25
 182 366 182 366 190.5 354 c 128,-1,26
 199 342 199 342 199 327 c 0,27,28
 199 309 199 309 190 295 c 128,-1,29
 181 281 181 281 170 268 c 128,-1,30
 159 255 159 255 150 242 c 0,31,32
 141 228 141 228 141 214 c 0,33,34
 141 206 141 206 148.5 198.5 c 128,-1,35
 156 191 156 191 166 181.5 c 128,-1,36
 176 172 176 172 189 162 c 128,-1,37
 202 152 202 152 212.5 139 c 128,-1,38
 223 126 223 126 230.5 111 c 128,-1,39
 238 96 238 96 238 77 c 0,40,41
 238 41 238 41 217 20.5 c 128,-1,42
 196 0 196 0 161 -0 c 0,43,44
 135 0 135 0 108 12 c 128,-1,45
 81 24 81 24 61.5 44 c 128,-1,46
 42 64 42 64 33 91 c 128,-1,47
 24 118 24 118 32 148 c 1,0,1
70 118 m 0,48,49
 70 100 70 100 77 84.5 c 128,-1,50
 84 69 84 69 96 57 c 128,-1,51
 108 45 108 45 123.5 38 c 0,52,53
 138 31 138 31 156 31 c 0,54,55
 163 31 163 31 171.5 33.5 c 128,-1,56
 180 36 180 36 187.5 40.5 c 128,-1,57
 195 45 195 45 200 51.5 c 128,-1,58
 205 58 205 58 205 67 c 0,59,60
 205 87 205 87 196.5 104.5 c 128,-1,61
 188 122 188 122 175 137.5 c 128,-1,62
 162 153 162 153 146 165.5 c 128,-1,63
 130 178 130 178 115 186 c 0,64,-1
 112.5 186.5 l 0,65,66
 110 187 110 187 109 187 c 0,67,68
 102 187 102 187 95 178.5 c 128,-1,69
 88 170 88 170 82 158.5 c 128,-1,70
 76 147 76 147 73 135.5 c 128,-1,71
 70 124 70 124 70 118 c 0,48,49
45 294 m 1,72,73
 43 284 43 284 50 275.5 c 128,-1,74
 57 267 57 267 67 259 c 128,-1,75
 77 251 77 251 87.5 245.5 c 128,-1,76
 98 240 98 240 102 237 c 1,77,78
 105 239 105 239 112.5 246.5 c 128,-1,79
 120 254 120 254 128 262 c 128,-1,80
 136 270 136 270 142 278 c 128,-1,81
 148 286 148 286 148 292 c 1,82,83
 154 298 154 298 157 307 c 128,-1,84
 160 316 160 316 157 325 c 128,-1,85
 154 334 154 334 144 341 c 128,-1,86
 134 348 134 348 114 350 c 1,87,88
 101 350 101 350 90.5 344 c 128,-1,89
 80 338 80 338 71 330 c 128,-1,90
 62 322 62 322 55.5 312 c 128,-1,91
 49 302 49 302 45 294 c 1,72,73
EndSplineSet
EndChar

StartChar: nine
Encoding: 57 57 28
Width: 205
VWidth: 512
Flags: HW
LayerCount: 2
Fore
SplineSet
6 301 m 0,0,1
 6 323 6 323 13 342.5 c 128,-1,2
 20 362 20 362 33 377 c 128,-1,3
 46 392 46 392 64 401 c 128,-1,4
 82 410 82 410 104 410 c 0,5,6
 122 410 122 410 139 403 c 128,-1,7
 156 396 156 396 169.5 384 c 128,-1,8
 183 372 183 372 191 355.5 c 128,-1,9
 199 339 199 339 199 320 c 1,10,11
 193 292 193 292 189 260.5 c 128,-1,12
 185 229 185 229 182.5 197.5 c 128,-1,13
 180 166 180 166 178.5 135 c 128,-1,14
 177 104 177 104 177 80 c 128,-1,15
 177 56 177 56 178 39 c 128,-1,16
 179 22 179 22 181 18 c 1,17,18
 181 10 181 10 173.5 7.5 c 128,-1,19
 166 5 166 5 155 5 c 0,20,21
 147 5 147 5 144.5 19 c 128,-1,22
 142 33 142 33 141 54.5 c 128,-1,23
 140 76 140 76 141 101 c 128,-1,24
 142 126 142 126 142.5 147 c 128,-1,25
 143 168 143 168 141.5 183 c 128,-1,26
 140 198 140 198 134 198 c 0,27,28
 110 202 110 202 87 206 c 128,-1,29
 64 210 64 210 46 220 c 128,-1,30
 28 230 28 230 17 249 c 128,-1,31
 6 268 6 268 6 301 c 0,0,1
44 306 m 0,32,33
 44 294 44 294 48 281.5 c 128,-1,34
 52 269 52 269 59 258.5 c 128,-1,35
 66 248 66 248 77 242 c 128,-1,36
 88 236 88 236 102 236 c 0,37,38
 109 236 109 236 116 237 c 0,39,40
 122 238 122 238 128 243 c 1,41,42
 128 251 128 251 133 266.5 c 128,-1,43
 138 282 138 282 142.5 299 c 128,-1,44
 147 316 147 316 150.5 329 c 128,-1,45
 154 342 154 342 154 346 c 0,46,47
 154 352 154 352 149 358 c 128,-1,48
 144 364 144 364 137 368.5 c 128,-1,49
 130 373 130 373 122.5 375.5 c 0,50,51
 116 378 116 378 110 378 c 0,52,53
 77 378 77 378 60.5 358 c 128,-1,54
 44 338 44 338 44 306 c 0,32,33
EndSplineSet
EndChar

StartChar: colon
Encoding: 58 58 29
Width: 58
VWidth: 512
Flags: HW
LayerCount: 2
Fore
SplineSet
13 67 m 0,0,1
 13 75 13 75 19.5 79.5 c 128,-1,2
 26 84 26 84 32 84 c 0,3,4
 40 84 40 84 43 79.5 c 128,-1,5
 46 75 46 75 46 67 c 0,6,7
 46 57 46 57 42 53.5 c 128,-1,8
 38 50 38 50 28 50 c 0,9,10
 13 50 13 50 13 67 c 0,0,1
12 214 m 0,11,12
 12 220 12 220 14 225 c 128,-1,13
 16 230 16 230 22 230 c 0,14,15
 28 230 28 230 34 226.5 c 128,-1,16
 40 223 40 223 44 217.5 c 128,-1,17
 48 212 48 212 50 205 c 128,-1,18
 52 198 52 198 51 192 c 0,19,20
 51 191 51 191 46.5 186.5 c 128,-1,21
 42 182 42 182 38 179 c 0,22,23
 37 178 l 2,24,-1
 36 178 l 2,25,26
 30 178 30 178 26 182 c 128,-1,27
 22 186 22 186 19 192 c 128,-1,28
 16 198 16 198 14 204 c 128,-1,29
 12 210 12 210 12 214 c 0,11,12
EndSplineSet
EndChar

StartChar: semicolon
Encoding: 59 59 30
Width: 88
VWidth: 512
Flags: HW
LayerCount: 2
Fore
SplineSet
-10 -105 m 0,0,1
 -10 -83 -10 -83 -5 -68.5 c 128,-1,2
 0 -54 0 -54 7 -42 c 128,-1,3
 14 -30 14 -30 21 -16 c 128,-1,4
 28 -2 28 -2 32 20 c 0,5,6
 33 26 33 26 33.5 36.5 c 128,-1,7
 34 47 34 47 35 58.5 c 128,-1,8
 36 70 36 70 39.5 80 c 128,-1,9
 43 90 43 90 51 96 c 1,10,11
 65 88 65 88 68 74 c 128,-1,12
 71 60 71 60 71 46 c 0,13,14
 71 35 71 35 68.5 17.5 c 128,-1,15
 66 0 66 0 62 -19 c 128,-1,16
 58 -38 58 -38 52 -57 c 128,-1,17
 46 -76 46 -76 38 -91 c 128,-1,18
 30 -106 30 -106 20.5 -116 c 128,-1,19
 11 -126 11 -126 0 -126 c 0,20,21
 -4 -126 -4 -126 -6.5 -123.5 c 128,-1,22
 -9 -121 -9 -121 -9.5 -118 c 128,-1,23
 -10 -115 -10 -115 -10 -111.5 c 128,-1,24
 -10 -108 -10 -108 -10 -105 c 0,0,1
13 256 m 1,25,26
 13 264 13 264 19.5 266 c 128,-1,27
 26 268 26 268 34 266 c 128,-1,28
 42 264 42 264 48 261 c 128,-1,29
 54 258 54 258 51 256 c 1,30,31
 57 242 57 242 57.5 233.5 c 128,-1,32
 58 225 58 225 56 219.5 c 128,-1,33
 54 214 54 214 50 210.5 c 128,-1,34
 46 207 46 207 42 205 c 1,35,36
 33 205 33 205 26.5 209.5 c 128,-1,37
 20 214 20 214 17 221.5 c 128,-1,38
 14 229 14 229 12.5 238 c 128,-1,39
 11 247 11 247 13 256 c 1,25,26
EndSplineSet
EndChar

StartChar: less
Encoding: 60 60 31
Width: 333
VWidth: 512
Flags: HW
LayerCount: 2
Fore
SplineSet
52 122 m 2,0,1
 53 122 53 122 62.5 129 c 128,-1,2
 72 136 72 136 87 147 c 128,-1,3
 102 158 102 158 121 171 c 128,-1,4
 140 184 140 184 159 197 c 128,-1,5
 178 210 178 210 195 222 c 128,-1,6
 212 234 212 234 224 243 c 0,7,8
 231 248 231 248 240.5 253 c 128,-1,9
 250 258 250 258 259 263.5 c 128,-1,10
 268 269 268 269 277.5 273.5 c 128,-1,11
 287 278 287 278 295 282 c 1,12,13
 297 281 297 281 299.5 278.5 c 128,-1,14
 302 276 302 276 305 273 c 128,-1,15
 308 270 308 270 310.5 267 c 128,-1,16
 313 264 313 264 314 262 c 0,17,18
 306 256 l 0,19,20
 298 250 298 250 285 241.5 c 128,-1,21
 272 233 272 233 257 222.5 c 128,-1,22
 242 212 242 212 229 203 c 128,-1,23
 216 194 216 194 205.5 187.5 c 0,24,25
 194 181 194 181 192 179 c 0,26,27
 178 169 178 169 162 159.5 c 128,-1,28
 146 150 146 150 129.5 139 c 128,-1,29
 113 128 113 128 97.5 116 c 128,-1,30
 82 104 82 104 70 90 c 1,31,32
 72 87 72 87 80.5 83.5 c 128,-1,33
 89 80 89 80 101 78 c 128,-1,34
 113 76 113 76 126.5 73 c 128,-1,35
 140 70 140 70 153 68 c 128,-1,36
 166 66 166 66 175 65 c 128,-1,37
 184 64 184 64 186 64 c 0,38,39
 194 62 194 62 211.5 60 c 128,-1,40
 229 58 229 58 246.5 52 c 128,-1,41
 264 46 264 46 277 38 c 128,-1,42
 290 30 290 30 290 16 c 0,43,44
 290 0 290 0 272 0 c 0,45,46
 265 0 265 0 258.5 2.5 c 128,-1,47
 252 5 252 5 245 8.5 c 128,-1,48
 238 12 238 12 231 15 c 128,-1,49
 224 18 224 18 218 20 c 0,50,51
 213 21 213 21 199.5 22.5 c 128,-1,52
 186 24 186 24 168 26 c 128,-1,53
 150 28 150 28 129 30 c 128,-1,54
 108 32 108 32 87.5 35.5 c 128,-1,55
 67 39 67 39 49 43.5 c 128,-1,56
 31 48 31 48 19.5 53 c 128,-1,57
 8 58 8 58 3.5 64 c 0,58,59
 -2 70 -2 70 6 77 c 2,60,-1
 52 122 l 2,0,1
EndSplineSet
EndChar

StartChar: equal
Encoding: 61 61 32
Width: 358
VWidth: 512
Flags: HW
LayerCount: 2
Fore
SplineSet
13 115 m 0,0,1
 13 117 13 117 15.5 119.5 c 128,-1,2
 18 122 18 122 20 122 c 0,3,4
 48 124 48 124 70 125 c 128,-1,5
 92 126 92 126 112 127 c 128,-1,6
 132 128 132 128 152 128 c 128,-1,7
 172 128 172 128 197 128 c 0,8,9
 208 128 208 128 227 130 c 128,-1,10
 246 132 246 132 265 130.5 c 128,-1,11
 284 129 284 129 299 123 c 0,12,13
 314 116 314 116 320 102 c 1,14,-1
 294 90 l 1,15,-1
 51 90 l 2,16,17
 43 90 43 90 35.5 90 c 128,-1,18
 28 90 28 90 23 93 c 128,-1,19
 18 96 18 96 15.5 100.5 c 128,-1,20
 13 105 13 105 13 115 c 0,0,1
270 231 m 0,21,22
 255 231 255 231 239 228.5 c 128,-1,23
 223 226 223 226 197.5 224 c 128,-1,24
 172 222 172 222 134 221 c 128,-1,25
 96 220 96 220 36 223 c 0,26,27
 28 223 28 223 20 226.5 c 128,-1,28
 12 230 12 230 12 240 c 1,29,30
 17 248 17 248 31.5 253 c 128,-1,31
 46 258 46 258 66 260.5 c 128,-1,32
 86 263 86 263 110.5 263.5 c 128,-1,33
 135 264 135 264 161 264 c 128,-1,34
 187 264 187 264 213 263 c 0,35,36
 238 262 238 262 262 263 c 0,37,38
 272 263 272 263 285.5 262.5 c 128,-1,39
 299 262 299 262 311 259 c 128,-1,40
 323 256 323 256 331.5 248 c 128,-1,41
 340 240 340 240 340 224 c 0,42,43
 340 222 340 222 334.5 218 c 0,44,45
 328 214 328 214 326 212 c 0,46,47
 325 212 325 212 325 211 c 0,48,49
 324 210 324 210 323 210 c 0,50,51
 316 210 316 210 310 213.5 c 128,-1,52
 304 217 304 217 297.5 220.5 c 128,-1,53
 291 224 291 224 284.5 227.5 c 128,-1,54
 278 231 278 231 270 231 c 0,21,22
EndSplineSet
EndChar

StartChar: greater
Encoding: 62 62 33
Width: 275
VWidth: 512
Flags: HW
LayerCount: 2
Fore
SplineSet
19 23 m 1,0,1
 21 29 21 29 32.5 39 c 128,-1,2
 44 49 44 49 61 61.5 c 128,-1,3
 78 74 78 74 99 88 c 128,-1,4
 120 102 120 102 140 116.5 c 128,-1,5
 160 131 160 131 177 145 c 128,-1,6
 194 159 194 159 204.5 170.5 c 128,-1,7
 215 182 215 182 216.5 191 c 128,-1,8
 218 200 218 200 206 205 c 1,9,10
 194 205 194 205 176 209.5 c 128,-1,11
 158 214 158 214 138 221 c 128,-1,12
 118 228 118 228 98.5 236.5 c 128,-1,13
 79 245 79 245 62.5 255 c 128,-1,14
 46 265 46 265 34 275 c 0,15,16
 22 284 22 284 20 294 c 0,17,-1
 19.5 297 l 0,18,19
 19 300 19 300 19 301 c 0,20,21
 19 309 19 309 25.5 311.5 c 128,-1,22
 32 314 32 314 39 314 c 0,23,24
 49 314 49 314 56.5 309.5 c 128,-1,25
 64 305 64 305 71 298.5 c 128,-1,26
 78 292 78 292 85.5 285.5 c 0,27,28
 93 280 93 280 103 276 c 0,29,30
 138 263 138 263 178 249.5 c 128,-1,31
 218 236 218 236 256 230 c 1,32,33
 266 226 266 226 268 220 c 128,-1,34
 270 214 270 214 270 206 c 1,35,36
 272 194 272 194 268 184.5 c 128,-1,37
 264 175 264 175 257 166.5 c 128,-1,38
 250 158 250 158 241 150 c 128,-1,39
 232 142 232 142 224 134 c 1,40,41
 220 131 220 131 205.5 120 c 128,-1,42
 191 109 191 109 170.5 94 c 128,-1,43
 150 79 150 79 127 62.5 c 128,-1,44
 104 46 104 46 84 32 c 128,-1,45
 64 18 64 18 50.5 9 c 128,-1,46
 37 0 37 0 35 -0 c 0,47,48
 23 0 23 0 21 7 c 128,-1,49
 19 14 19 14 19 23 c 1,0,1
EndSplineSet
EndChar

StartChar: question
Encoding: 63 63 34
Width: 186
VWidth: 512
Flags: HW
LayerCount: 2
Fore
SplineSet
122 26 m 128,-1,1
 122 38 122 38 129 45 c 128,-1,2
 136 52 136 52 148 52 c 0,3,4
 159 52 159 52 163.5 42 c 128,-1,5
 168 32 168 32 168 22 c 0,6,7
 168 14 168 14 163 7 c 128,-1,8
 158 0 158 0 148 0 c 0,9,10
 135 0 135 0 128.5 7 c 128,-1,0
 122 14 122 14 122 26 c 128,-1,1
52 256 m 0,11,12
 52 276 52 276 58 295 c 128,-1,13
 64 314 64 314 73 332 c 128,-1,14
 82 350 82 350 93 367.5 c 128,-1,15
 104 385 104 385 113 403.5 c 128,-1,16
 122 422 122 422 128.5 441 c 128,-1,17
 135 460 135 460 135 482 c 0,18,19
 135 516 135 516 116 533 c 0,20,21
 98 550 98 550 64 550 c 0,22,23
 51 550 51 550 35.5 543 c 128,-1,24
 20 536 20 536 14 525 c 1,25,26
 10 525 10 525 8 528.5 c 128,-1,27
 6 532 6 532 5.5 536 c 128,-1,28
 5 540 5 540 5.5 544 c 0,29,-1
 6 548 l 0,30,31
 6 558 6 558 13 566 c 128,-1,32
 20 574 20 574 30 579 c 128,-1,33
 40 584 40 584 51 586.5 c 128,-1,34
 62 589 62 589 70 589 c 0,35,36
 95 589 95 589 114.5 578.5 c 128,-1,37
 134 568 134 568 147 551.5 c 128,-1,38
 160 535 160 535 167 513.5 c 128,-1,39
 174 492 174 492 174 470 c 0,40,41
 174 444 174 444 165 417 c 128,-1,42
 156 390 156 390 143.5 364 c 128,-1,43
 131 338 131 338 116.5 313.5 c 128,-1,44
 102 289 102 289 90 269 c 1,45,46
 91 266 91 266 93.5 263 c 128,-1,47
 96 260 96 260 102 257 c 128,-1,48
 108 254 108 254 120.5 251.5 c 0,49,50
 133 248 133 248 154 246 c 0,51,52
 158 246 158 246 160 244 c 128,-1,53
 162 242 162 242 164 238 c 128,-1,54
 166 234 166 234 167 230 c 128,-1,55
 168 226 168 226 168 223 c 0,56,57
 168 217 168 217 163 214.5 c 128,-1,58
 158 212 158 212 152 211 c 128,-1,59
 146 210 146 210 139 210 c 128,-1,60
 132 210 132 210 128 210 c 0,61,62
 118 210 118 210 105 212 c 128,-1,63
 92 214 92 214 80 219 c 128,-1,64
 68 224 68 224 60 233 c 128,-1,65
 52 242 52 242 52 256 c 0,11,12
EndSplineSet
EndChar

StartChar: at
Encoding: 64 64 35
Width: 557
VWidth: 512
Flags: HW
LayerCount: 2
Fore
SplineSet
256 0 m 1,0,1
 201 23 201 23 156.5 56.5 c 128,-1,2
 112 90 112 90 80.5 133 c 128,-1,3
 49 176 49 176 31.5 229 c 128,-1,4
 14 282 14 282 12 344 c 1,5,6
 12 376 12 376 21 408 c 128,-1,7
 30 440 30 440 47 469.5 c 128,-1,8
 64 499 64 499 86.5 524.5 c 128,-1,9
 109 550 109 550 136.5 569 c 128,-1,10
 164 588 164 588 195.5 598.5 c 128,-1,11
 227 609 227 609 261 609 c 0,12,13
 283 609 283 609 307 602.5 c 128,-1,14
 331 596 331 596 355.5 585 c 128,-1,15
 380 574 380 574 404 560 c 128,-1,16
 428 546 428 546 450 529 c 128,-1,17
 472 512 472 512 489 495 c 128,-1,18
 506 478 506 478 518 461 c 0,19,20
 524 451 524 451 528.5 437 c 128,-1,21
 533 423 533 423 535 407.5 c 128,-1,22
 537 392 537 392 537.5 377.5 c 0,23,24
 538 362 538 362 538 352 c 0,25,26
 538 336 538 336 536 317 c 128,-1,27
 534 298 534 298 529 278 c 128,-1,28
 524 258 524 258 515.5 239 c 128,-1,29
 507 220 507 220 495 205.5 c 128,-1,30
 483 191 483 191 466.5 182 c 128,-1,31
 450 173 450 173 429 173 c 0,32,33
 419 173 419 173 410.5 176.5 c 128,-1,34
 402 180 402 180 393.5 185 c 128,-1,35
 385 190 385 190 378 197 c 128,-1,36
 371 204 371 204 365 212 c 1,37,38
 355 200 355 200 342.5 187 c 128,-1,39
 330 174 330 174 315 164 c 128,-1,40
 300 154 300 154 283 147.5 c 128,-1,41
 266 141 266 141 250 141 c 0,42,43
 226 141 226 141 207 150.5 c 128,-1,44
 188 160 188 160 174.5 175 c 128,-1,45
 161 190 161 190 153.5 210 c 128,-1,46
 146 230 146 230 146 252 c 0,47,48
 146 286 146 286 158 318 c 128,-1,49
 170 350 170 350 192 375 c 128,-1,50
 214 400 214 400 244 415 c 128,-1,51
 274 430 274 430 310 430 c 0,52,53
 321 430 321 430 341 425 c 128,-1,54
 361 420 361 420 380.5 410 c 128,-1,55
 400 400 400 400 414.5 387 c 128,-1,56
 429 374 429 374 429 358 c 0,57,58
 429 348 429 348 423.5 340 c 128,-1,59
 418 332 418 332 410 326 c 1,60,61
 400 342 400 342 389.5 355.5 c 128,-1,62
 379 369 379 369 366 378.5 c 128,-1,63
 353 388 353 388 337.5 393 c 128,-1,64
 322 398 322 398 302 398 c 0,65,66
 272 398 272 398 249 385 c 128,-1,67
 226 372 226 372 210 351.5 c 128,-1,68
 194 331 194 331 186 305 c 0,69,70
 178 278 178 278 178 252 c 0,71,72
 178 236 178 236 182 223 c 128,-1,73
 186 210 186 210 194.5 200 c 128,-1,74
 203 190 203 190 216 184.5 c 0,75,76
 228 179 228 179 246 179 c 0,77,78
 259 179 259 179 273.5 185 c 128,-1,79
 288 191 288 191 300.5 200.5 c 128,-1,80
 313 210 313 210 323.5 221 c 128,-1,81
 334 232 334 232 340 243 c 1,82,83
 340 245 340 245 339 253 c 128,-1,84
 338 261 338 261 337.5 271.5 c 128,-1,85
 337 282 337 282 337.5 294 c 128,-1,86
 338 306 338 306 341 316 c 128,-1,87
 344 326 344 326 350 333 c 128,-1,88
 356 340 356 340 365 340 c 128,-1,89
 374 340 374 340 380 333 c 128,-1,90
 386 326 386 326 388.5 316 c 128,-1,91
 391 306 391 306 392 294 c 128,-1,92
 393 282 393 282 392.5 271.5 c 128,-1,93
 392 261 392 261 391 253 c 128,-1,94
 390 245 390 245 390 243 c 1,95,96
 391 241 391 241 396.5 235.5 c 128,-1,97
 402 230 402 230 408.5 224 c 128,-1,98
 415 218 415 218 422.5 214 c 128,-1,99
 430 210 430 210 435 212 c 0,100,101
 453 217 453 217 466.5 234.5 c 128,-1,102
 480 252 480 252 489 273 c 128,-1,103
 498 294 498 294 502 316 c 128,-1,104
 506 338 506 338 506 351 c 1,105,106
 508 388 508 388 496 418 c 128,-1,107
 484 448 484 448 463 472 c 128,-1,108
 442 496 442 496 415.5 514 c 128,-1,109
 389 532 389 532 360.5 544.5 c 128,-1,110
 332 557 332 557 305 564.5 c 128,-1,111
 278 572 278 572 256 576 c 1,112,113
 214 573 214 573 175 552.5 c 128,-1,114
 136 532 136 532 105.5 500 c 128,-1,115
 75 468 75 468 56.5 428 c 128,-1,116
 38 388 38 388 38 348 c 0,117,118
 38 312 38 312 49 274.5 c 128,-1,119
 60 237 60 237 79 202 c 128,-1,120
 98 167 98 167 124 135.5 c 128,-1,121
 150 104 150 104 181.5 81 c 128,-1,122
 213 58 213 58 248 44 c 128,-1,123
 283 30 283 30 320 30 c 0,124,125
 344 30 344 30 368 35.5 c 128,-1,126
 392 41 392 41 415.5 47.5 c 128,-1,127
 439 54 439 54 462.5 59 c 128,-1,128
 486 64 486 64 509 64 c 1,129,130
 515 52 515 52 507.5 42.5 c 128,-1,131
 500 33 500 33 482 25 c 128,-1,132
 464 17 464 17 438 11.5 c 128,-1,133
 412 6 412 6 381 2.5 c 128,-1,134
 350 -1 350 -1 318 -1.5 c 128,-1,135
 286 -2 286 -2 256 0 c 1,0,1
EndSplineSet
EndChar

StartChar: A
Encoding: 65 65 36
Width: 384
VWidth: 512
Flags: HW
LayerCount: 2
Fore
SplineSet
313 16 m 0,0,1
 313 28 313 28 315.5 39 c 128,-1,2
 318 50 318 50 320 62 c 128,-1,3
 322 74 322 74 324.5 85.5 c 128,-1,4
 327 97 327 97 327 109 c 0,5,6
 327 127 327 127 325.5 149 c 128,-1,7
 324 171 324 171 318 190 c 1,8,9
 299 186 299 186 279.5 187 c 128,-1,10
 260 188 260 188 240.5 191 c 128,-1,11
 221 194 221 194 201 196.5 c 128,-1,12
 181 199 181 199 161 199 c 0,13,14
 155 199 155 199 142.5 198.5 c 128,-1,15
 130 198 130 198 116 197.5 c 128,-1,16
 102 197 102 197 91 195.5 c 128,-1,17
 80 194 80 194 77 192 c 2,18,-1
 70 186 l 2,19,20
 70 183 l 0,21,22
 70 180 70 180 70 177 c 128,-1,23
 70 174 70 174 70 171 c 128,-1,24
 70 168 70 168 70 166 c 0,25,26
 70 146 70 146 73 126.5 c 128,-1,27
 76 107 76 107 79.5 88 c 128,-1,28
 83 69 83 69 86.5 50.5 c 128,-1,29
 90 32 90 32 90 13 c 2,30,-1
 90 6 l 1,31,32
 80 -3 80 -3 72 0.5 c 128,-1,33
 64 4 64 4 57 15.5 c 128,-1,34
 50 27 50 27 46 45.5 c 128,-1,35
 42 64 42 64 39.5 85 c 128,-1,36
 37 106 37 106 36.5 129 c 128,-1,37
 36 152 36 152 38 173 c 1,38,39
 36 175 36 175 33 179.5 c 128,-1,40
 30 184 30 184 25.5 189 c 128,-1,41
 21 194 21 194 17.5 198.5 c 128,-1,42
 14 203 14 203 13 205 c 0,43,-1
 12 206 l 2,44,-1
 12 208 l 2,45,46
 12 212 12 212 15 214 c 128,-1,47
 18 216 18 216 21 217.5 c 128,-1,48
 24 219 24 219 27.5 220.5 c 0,49,50
 30 222 30 222 32 224 c 0,51,-1
 32 227 l 0,52,53
 32 230 32 230 32 233 c 128,-1,54
 32 236 32 236 32 239 c 128,-1,55
 32 242 32 242 32 243 c 0,56,57
 34 271 34 271 36.5 302.5 c 128,-1,58
 39 334 39 334 43.5 364.5 c 128,-1,59
 48 395 48 395 56.5 423 c 128,-1,60
 65 451 65 451 81 472.5 c 128,-1,61
 97 494 97 494 122 506.5 c 128,-1,62
 147 519 147 519 184 519 c 0,63,64
 214 519 214 519 237 505 c 128,-1,65
 260 491 260 491 279 467.5 c 128,-1,66
 298 444 298 444 311 412.5 c 128,-1,67
 324 381 324 381 334 346.5 c 128,-1,68
 344 312 344 312 350 276.5 c 128,-1,69
 356 241 356 241 359.5 209 c 128,-1,70
 363 177 363 177 364.5 150.5 c 128,-1,71
 366 124 366 124 366 107 c 0,72,73
 366 95 366 95 365.5 84.5 c 128,-1,74
 365 74 365 74 364.5 64 c 128,-1,75
 364 54 364 54 362.5 43.5 c 0,76,77
 360 34 360 34 358 20 c 1,78,79
 352 12 352 12 344 6 c 128,-1,80
 336 0 336 0 326 -0 c 0,81,82
 318 0 318 0 315.5 4 c 128,-1,83
 313 8 313 8 313 16 c 0,0,1
298 217 m 2,84,85
 300 217 300 217 302.5 217.5 c 128,-1,86
 305 218 305 218 307.5 221 c 128,-1,87
 310 224 310 224 312 230.5 c 128,-1,88
 314 237 314 237 314 249 c 1,89,90
 314 269 314 269 311 294 c 128,-1,91
 308 319 308 319 300 345.5 c 128,-1,92
 292 372 292 372 281 397 c 128,-1,93
 270 422 270 422 253.5 442 c 128,-1,94
 237 462 237 462 216.5 474.5 c 128,-1,95
 196 487 196 487 170 487 c 0,96,97
 142 487 142 487 123 472.5 c 128,-1,98
 104 458 104 458 92.5 435 c 128,-1,99
 81 412 81 412 74.5 383 c 128,-1,100
 68 354 68 354 66 326 c 128,-1,101
 64 298 64 298 63.5 272.5 c 0,102,103
 63 246 63 246 63 230 c 1,104,-1
 298 217 l 2,84,85
EndSplineSet
EndChar

StartChar: B
Encoding: 66 66 37
Width: 506
VWidth: 512
Flags: HW
LayerCount: 2
Fore
SplineSet
205 20 m 0,0,1
 203 20 203 20 194.5 24.5 c 128,-1,2
 186 29 186 29 176 35.5 c 128,-1,3
 166 42 166 42 159 50 c 128,-1,4
 152 58 152 58 154 64 c 1,5,6
 156 72 156 72 162 75 c 128,-1,7
 168 78 168 78 173.5 80.5 c 128,-1,8
 179 83 179 83 183 87.5 c 128,-1,9
 187 92 187 92 186 102 c 1,10,11
 174 182 174 182 165 243 c 128,-1,12
 156 304 156 304 146 345.5 c 128,-1,13
 136 387 136 387 123 408.5 c 128,-1,14
 110 430 110 430 92 430 c 0,15,16
 92 429.5 l 0,17,18
 92 429 92 429 91 429 c 2,19,-1
 90 429 l 1,20,21
 85 425 85 425 75.5 421.5 c 128,-1,22
 66 418 66 418 56 415 c 128,-1,23
 46 412 46 412 36 409 c 128,-1,24
 26 406 26 406 20 404 c 0,25,26
 19 404 19 404 16.5 403 c 128,-1,27
 14 402 14 402 13 402 c 1,28,-1
 13 422 l 2,29,30
 13 428 13 428 25 435 c 128,-1,31
 37 442 37 442 55.5 447 c 128,-1,32
 74 452 74 452 96 457 c 128,-1,33
 118 462 118 462 138.5 466 c 128,-1,34
 159 470 159 470 174.5 472 c 128,-1,35
 190 474 190 474 196 474 c 0,36,37
 208 474 208 474 225 471 c 128,-1,38
 242 468 242 468 260 462.5 c 128,-1,39
 278 457 278 457 296 448.5 c 128,-1,40
 314 440 314 440 328 430 c 128,-1,41
 342 420 342 420 350.5 406 c 128,-1,42
 359 392 359 392 359 377 c 0,43,44
 359 359 359 359 351.5 345 c 128,-1,45
 344 331 344 331 335.5 319.5 c 128,-1,46
 327 308 327 308 319.5 298.5 c 0,47,48
 312 290 312 290 312 282 c 0,49,50
 312 281 312 281 325.5 274.5 c 128,-1,51
 339 268 339 268 359.5 256 c 128,-1,52
 380 244 380 244 403 228 c 128,-1,53
 426 212 426 212 446 191.5 c 128,-1,54
 466 171 466 171 479.5 147.5 c 128,-1,55
 493 124 493 124 493 96 c 128,-1,56
 493 68 493 68 480.5 50 c 128,-1,57
 468 32 468 32 449 20.5 c 128,-1,58
 430 9 430 9 406.5 4.5 c 0,59,60
 382 0 382 0 360 -0 c 128,-1,61
 338 0 338 0 321 1 c 128,-1,62
 304 2 304 2 287.5 4 c 128,-1,63
 271 6 271 6 251.5 10 c 128,-1,64
 232 14 232 14 205 20 c 0,0,1
224 99 m 1,65,66
 216 85 216 85 219.5 75.5 c 128,-1,67
 223 66 223 66 234 58.5 c 128,-1,68
 245 51 245 51 261 46.5 c 128,-1,69
 277 42 277 42 293 40 c 128,-1,70
 309 38 309 38 322.5 37.5 c 128,-1,71
 336 37 336 37 343 38 c 1,72,73
 363 38 363 38 382 40 c 128,-1,74
 401 42 401 42 415.5 49 c 128,-1,75
 430 56 430 56 439 69 c 128,-1,76
 448 82 448 82 448 106 c 0,77,78
 448 138 448 138 431 160 c 128,-1,79
 414 182 414 182 388 197 c 128,-1,80
 362 212 362 212 332 222 c 128,-1,81
 302 232 302 232 276.5 241.5 c 128,-1,82
 251 251 251 251 234 260.5 c 128,-1,83
 217 270 217 270 217 284 c 0,84,85
 217 292 217 292 224.5 296 c 128,-1,86
 232 300 232 300 244 304 c 128,-1,87
 256 308 256 308 269.5 311.5 c 128,-1,88
 283 315 283 315 294.5 321.5 c 128,-1,89
 306 328 306 328 314 339 c 128,-1,90
 322 350 322 350 322 368 c 0,91,92
 322 382 322 382 314 394 c 128,-1,93
 306 406 306 406 294 413.5 c 128,-1,94
 282 421 282 421 267 425.5 c 128,-1,95
 252 430 252 430 240 430 c 0,96,97
 221 430 221 430 201.5 425.5 c 0,98,99
 182 422 182 422 166 410 c 1,100,101
 174 376 174 376 184 335 c 128,-1,102
 194 294 194 294 203 252.5 c 128,-1,103
 212 211 212 211 218 171 c 128,-1,104
 224 131 224 131 224 99 c 1,65,66
EndSplineSet
EndChar

StartChar: C
Encoding: 67 67 38
Width: 352
VWidth: 512
Flags: HW
LayerCount: 2
Fore
SplineSet
12 184 m 0,0,1
 12 210 12 210 21 240 c 128,-1,2
 30 270 30 270 45 298.5 c 128,-1,3
 60 327 60 327 81.5 353 c 128,-1,4
 103 379 103 379 128 398.5 c 128,-1,5
 153 418 153 418 180.5 430 c 128,-1,6
 208 442 208 442 237 442 c 0,7,8
 253 442 253 442 261.5 430 c 128,-1,9
 270 418 270 418 270 404 c 0,10,11
 270 396 270 396 266 384 c 128,-1,12
 262 372 262 372 256 361 c 128,-1,13
 250 350 250 350 241 342.5 c 128,-1,14
 232 335 232 335 222 335 c 1,15,16
 222 341 222 341 224.5 347.5 c 128,-1,17
 227 354 227 354 230 360 c 128,-1,18
 233 366 233 366 235.5 372 c 128,-1,19
 238 378 238 378 238 384 c 0,20,21
 238 394 238 394 230 396 c 128,-1,22
 222 398 222 398 214 398 c 0,23,24
 213 398 213 398 209.5 397.5 c 128,-1,25
 206 397 206 397 205 397 c 0,26,27
 174 385 174 385 145 365.5 c 128,-1,28
 116 346 116 346 93.5 320.5 c 128,-1,29
 71 295 71 295 57.5 263.5 c 128,-1,30
 44 232 44 232 44 198 c 0,31,32
 44 175 44 175 48 147.5 c 128,-1,33
 52 120 52 120 63 97 c 128,-1,34
 74 74 74 74 92 59 c 128,-1,35
 110 44 110 44 138 44 c 0,36,37
 161 44 161 44 183.5 48 c 128,-1,38
 206 52 206 52 228 57 c 128,-1,39
 250 62 250 62 272 66.5 c 128,-1,40
 294 71 294 71 318 71 c 0,41,42
 324 71 324 71 329 69.5 c 128,-1,43
 334 68 334 68 334 61 c 0,44,45
 334 57 334 57 329.5 52.5 c 128,-1,46
 325 48 325 48 319.5 43.5 c 128,-1,47
 314 39 314 39 308.5 36 c 0,48,49
 303 32 303 32 301 32 c 2,50,-1
 148 0 l 2,51,52
 147 0 147 0 142 0 c 0,53,54
 136 0 136 0 134 -0 c 0,55,56
 112 0 112 0 94.5 8.5 c 128,-1,57
 77 17 77 17 63.5 31.5 c 128,-1,58
 50 46 50 46 40 65 c 128,-1,59
 30 84 30 84 24 105 c 128,-1,60
 18 126 18 126 15 146 c 128,-1,61
 12 166 12 166 12 184 c 0,0,1
EndSplineSet
EndChar

StartChar: D
Encoding: 68 68 39
Width: 506
VWidth: 512
Flags: HW
LayerCount: 2
Fore
SplineSet
166 41 m 0,0,1
 166 47 166 47 167.5 52.5 c 128,-1,2
 169 58 169 58 176 58 c 0,3,4
 180 58 180 58 193 54 c 128,-1,5
 206 50 206 50 222.5 46 c 128,-1,6
 239 42 239 42 254 38 c 0,7,8
 270 34 270 34 276 32 c 1,9,-1
 278 32 l 2,10,11
 307 32 307 32 337.5 43.5 c 128,-1,12
 368 55 368 55 393 74.5 c 128,-1,13
 418 94 418 94 433 121 c 128,-1,14
 448 148 448 148 448 178 c 0,15,16
 448 202 448 202 439 225 c 128,-1,17
 430 248 430 248 414 269 c 128,-1,18
 398 290 398 290 377 308.5 c 128,-1,19
 356 327 356 327 333 341.5 c 128,-1,20
 310 356 310 356 286 366 c 128,-1,21
 262 376 262 376 240 380 c 1,22,23
 240 337 240 337 246.5 298.5 c 128,-1,24
 253 260 253 260 259.5 225.5 c 128,-1,25
 266 191 266 191 270 157.5 c 128,-1,26
 274 124 274 124 270 91 c 0,27,28
 270 87 270 87 269.5 82.5 c 128,-1,29
 269 78 269 78 267.5 74 c 128,-1,30
 266 70 266 70 262.5 67 c 128,-1,31
 259 64 259 64 253 64 c 1,32,33
 243 58 243 58 237.5 68 c 128,-1,34
 232 78 232 78 230 97 c 128,-1,35
 228 116 228 116 227 142 c 128,-1,36
 226 168 226 168 224.5 196 c 128,-1,37
 223 224 223 224 220.5 251.5 c 128,-1,38
 218 279 218 279 212 301 c 1,39,40
 211 309 211 309 208.5 322 c 128,-1,41
 206 335 206 335 203 348.5 c 128,-1,42
 200 362 200 362 195.5 373.5 c 0,43,44
 191 384 191 384 186 390 c 1,45,46
 138 390 138 390 109 387 c 128,-1,47
 80 384 80 384 63.5 380 c 128,-1,48
 47 376 47 376 39.5 372 c 128,-1,49
 32 368 32 368 26 365 c 0,50,51
 25 364 25 364 24 364 c 128,-1,52
 23 364 23 364 22 364 c 256,53,-1
 20 364 l 0,54,55
 20 365 l 256,56,57
 19 367.5 l 0,58,59
 18 370 18 370 17 373 c 128,-1,60
 16 376 16 376 15 379 c 128,-1,61
 14 382 14 382 13 384 c 1,62,-1
 13 387 l 2,63,64
 13 396 13 396 22.5 402.5 c 128,-1,65
 32 409 32 409 47 413.5 c 128,-1,66
 62 418 62 418 79 421 c 128,-1,67
 96 424 96 424 111 426 c 128,-1,68
 126 428 126 428 136 428.5 c 128,-1,69
 146 429 146 429 148 429 c 0,70,71
 182 429 182 429 220 421.5 c 128,-1,72
 258 414 258 414 296 399 c 128,-1,73
 334 384 334 384 368.5 363 c 128,-1,74
 403 342 403 342 429.5 313.5 c 128,-1,75
 456 285 456 285 471.5 250.5 c 128,-1,76
 487 216 487 216 487 176 c 0,77,78
 487 140 487 140 475.5 110 c 128,-1,79
 464 80 464 80 444 58 c 128,-1,80
 424 36 424 36 397.5 21.5 c 128,-1,81
 371 7 371 7 341 -0.5 c 128,-1,82
 311 -8 311 -8 279.5 -8 c 128,-1,83
 248 -8 248 -8 218 0 c 0,84,85
 212 2 212 2 203 5.5 c 128,-1,86
 194 9 194 9 186 14 c 128,-1,87
 178 19 178 19 172 26 c 128,-1,88
 166 33 166 33 166 41 c 0,0,1
EndSplineSet
EndChar

StartChar: E
Encoding: 69 69 40
Width: 358
VWidth: 512
Flags: HW
LayerCount: 2
Fore
SplineSet
62 380 m 2,0,1
 59 380 59 380 58 380 c 1,2,3
 61 374 61 374 61 371 c 2,4,-1
 61 250 l 1,5,6
 65 245 65 245 80.5 245 c 128,-1,7
 96 245 96 245 118 247.5 c 128,-1,8
 140 250 140 250 165 254 c 128,-1,9
 190 258 190 258 211 262 c 128,-1,10
 232 266 232 266 246.5 268 c 0,11,12
 260 270 260 270 262 269 c 1,13,14
 264 269 264 269 270 269.5 c 128,-1,15
 276 270 276 270 282.5 270.5 c 128,-1,16
 289 271 289 271 294.5 271.5 c 128,-1,17
 300 272 300 272 302 272 c 1,18,19
 302 256 302 256 284.5 246 c 128,-1,20
 267 236 267 236 240.5 230 c 128,-1,21
 214 224 214 224 183 221.5 c 128,-1,22
 152 219 152 219 124.5 217 c 128,-1,23
 97 215 97 215 78.5 212.5 c 128,-1,24
 60 210 60 210 58 205 c 0,25,26
 54 194 54 194 52.5 181 c 128,-1,27
 51 168 51 168 50.5 154 c 128,-1,28
 50 140 50 140 50 127 c 128,-1,29
 50 114 50 114 50 102 c 0,30,31
 50 99 50 99 50 93 c 128,-1,32
 50 87 50 87 50.5 79.5 c 128,-1,33
 51 72 51 72 51 66 c 128,-1,34
 51 60 51 60 51 58 c 1,35,36
 54 51 54 51 63 47.5 c 128,-1,37
 72 44 72 44 82.5 43.5 c 128,-1,38
 93 43 93 43 102.5 43.5 c 128,-1,39
 112 44 112 44 117 44 c 0,40,41
 139 44 139 44 162 46 c 128,-1,42
 185 48 185 48 207.5 51 c 128,-1,43
 230 54 230 54 252.5 56 c 0,44,45
 276 58 276 58 298 58 c 2,46,-1
 301 58 l 1,47,48
 303 58 303 58 305.5 57 c 128,-1,49
 308 56 308 56 311 55 c 128,-1,50
 314 54 314 54 316.5 53 c 128,-1,51
 319 52 319 52 320 51 c 0,52,53
 322 51 322 51 324 48.5 c 128,-1,54
 326 46 326 46 326 45 c 0,55,56
 326 33 326 33 312 24.5 c 128,-1,57
 298 16 298 16 277 11 c 128,-1,58
 256 6 256 6 230.5 3.5 c 128,-1,59
 205 1 205 1 182 0.5 c 128,-1,60
 159 -0 159 -0 142 -0 c 0,61,62
 124 0 124 0 120 -0 c 0,63,64
 93 0 93 0 73 4 c 128,-1,65
 53 8 53 8 39.5 19 c 128,-1,66
 26 30 26 30 19 49 c 128,-1,67
 12 68 12 68 12 97 c 0,68,69
 12 123 12 123 16 148 c 0,70,71
 20 174 20 174 20 200 c 0,72,73
 20 211 20 211 16.5 217.5 c 128,-1,74
 13 224 13 224 13 234 c 2,75,-1
 13 237 l 1,76,77
 14 238 14 238 17.5 243 c 0,78,79
 20 248 20 248 22 250 c 1,80,-1
 22 397 l 2,81,82
 22 408 22 408 25 413 c 128,-1,83
 28 418 28 418 36.5 420 c 128,-1,84
 45 422 45 422 61.5 422 c 128,-1,85
 78 422 78 422 106 420.5 c 128,-1,86
 134 419 134 419 176 418 c 128,-1,87
 218 417 218 417 277 418 c 1,88,89
 283 415 283 415 290.5 412 c 128,-1,90
 298 409 298 409 303 404.5 c 128,-1,91
 308 400 308 400 312 394 c 128,-1,92
 316 388 316 388 316 380 c 0,93,94
 316 378 316 378 313 375 c 128,-1,95
 310 372 310 372 309 372 c 2,96,-1
 277 386 l 1,97,-1
 62 380 l 2,0,1
EndSplineSet
EndChar

StartChar: F
Encoding: 70 70 41
Width: 351
VWidth: 512
Flags: HW
LayerCount: 2
Fore
SplineSet
129 12 m 1,0,1
 125 30 125 30 123 42.5 c 128,-1,2
 121 55 121 55 120.5 64.5 c 128,-1,3
 120 74 120 74 120 82 c 128,-1,4
 120 90 120 90 119 99 c 128,-1,5
 118 108 118 108 117 121 c 128,-1,6
 116 134 116 134 113 152 c 0,7,8
 111 165 111 165 103.5 169.5 c 128,-1,9
 96 174 96 174 87 175 c 128,-1,10
 78 176 78 176 67 174 c 128,-1,11
 56 172 56 172 47.5 172 c 128,-1,12
 39 172 39 172 33.5 176 c 128,-1,13
 28 180 28 180 28 193 c 0,14,15
 28 195 28 195 30.5 197.5 c 0,16,17
 32 200 32 200 34 200 c 0,18,19
 46 201 46 201 58 201.5 c 128,-1,20
 70 202 70 202 79 205 c 128,-1,21
 88 208 88 208 93 216 c 128,-1,22
 98 224 98 224 98 241 c 1,23,24
 93 273 93 273 93.5 297.5 c 128,-1,25
 94 322 94 322 92 337 c 128,-1,26
 90 352 90 352 81 358 c 128,-1,27
 72 364 72 364 47 360 c 0,28,29
 45 360 45 360 38.5 360 c 128,-1,30
 32 360 32 360 24.5 360 c 128,-1,31
 17 360 17 360 10.5 360 c 128,-1,32
 4 360 4 360 2 360 c 1,33,34
 0 359 0 359 -4.5 356.5 c 128,-1,35
 -9 354 -9 354 -11 354 c 0,36,37
 -12 354 -12 354 -12 353 c 128,-1,38
 -12 352 -12 352 -14 352 c 256,39,40
 -15 352 -15 352 -16 353 c 0,41,42
 -17 354 l 0,43,44
 -18 355 -18 355 -20 359.5 c 128,-1,45
 -22 364 -22 364 -24 366 c 1,46,-1
 -24 369 l 1,47,48
 -15 378 -15 378 8.5 386 c 128,-1,49
 32 394 32 394 64 399 c 128,-1,50
 96 404 96 404 134 407 c 128,-1,51
 172 410 172 410 211 409 c 128,-1,52
 250 408 250 408 286 403.5 c 128,-1,53
 322 399 322 399 351 389.5 c 128,-1,54
 380 380 380 380 398.5 366 c 0,55,56
 418 352 418 352 420 331 c 1,57,58
 399 331 399 331 378.5 336.5 c 128,-1,59
 358 342 358 342 337 348 c 128,-1,60
 316 354 316 354 295 359.5 c 128,-1,61
 274 365 274 365 252 365 c 0,62,63
 247 365 247 365 236 365.5 c 128,-1,64
 225 366 225 366 211.5 366 c 128,-1,65
 198 366 198 366 184 365 c 128,-1,66
 170 364 170 364 158.5 361 c 128,-1,67
 147 358 147 358 139.5 353 c 128,-1,68
 132 348 132 348 132 338 c 128,-1,69
 132 328 132 328 131 310.5 c 128,-1,70
 130 293 130 293 130.5 274.5 c 128,-1,71
 131 256 131 256 134.5 240 c 128,-1,72
 138 224 138 224 149 218 c 1,73,74
 151 218 151 218 154.5 218 c 128,-1,75
 158 218 158 218 162 217.5 c 128,-1,76
 166 217 166 217 169.5 217 c 0,77,78
 172 217 172 217 174 217 c 0,79,80
 224 221 224 221 255 219 c 128,-1,81
 286 217 286 217 299.5 211.5 c 128,-1,82
 313 206 313 206 309.5 198 c 128,-1,83
 306 190 306 190 287 183 c 128,-1,84
 268 176 268 176 234 172 c 128,-1,85
 200 168 200 168 152 169 c 1,86,87
 153 139 153 139 154.5 122.5 c 128,-1,88
 156 106 156 106 158 96 c 128,-1,89
 160 86 160 86 161.5 80.5 c 128,-1,90
 163 75 163 75 164.5 67.5 c 128,-1,91
 166 60 166 60 167.5 46.5 c 0,92,93
 168 33 168 33 170 8 c 1,94,95
 160 10 160 10 152.5 10 c 128,-1,96
 145 10 145 10 139.5 10 c 128,-1,97
 134 10 134 10 131 10 c 128,-1,98
 128 10 128 10 129 12 c 1,0,1
EndSplineSet
EndChar

StartChar: G
Encoding: 71 71 42
Width: 390
VWidth: 512
Flags: HW
LayerCount: 2
Fore
SplineSet
317 30 m 1,0,1
 315 30 315 30 309 30 c 128,-1,2
 303 30 303 30 301 30 c 0,3,4
 282 30 282 30 263 26 c 128,-1,5
 244 22 244 22 224 17 c 128,-1,6
 204 12 204 12 184.5 8 c 0,7,8
 164 4 164 4 144 4 c 0,9,10
 116 4 116 4 94 14 c 128,-1,11
 72 24 72 24 56 41 c 128,-1,12
 40 58 40 58 31 81.5 c 128,-1,13
 22 105 22 105 22 133 c 0,14,15
 22 163 22 163 35 190.5 c 128,-1,16
 48 218 48 218 69 242 c 128,-1,17
 90 266 90 266 117.5 286 c 128,-1,18
 145 306 145 306 175 321 c 128,-1,19
 205 336 205 336 235.5 345.5 c 128,-1,20
 266 355 266 355 292 357 c 0,21,22
 306 358 306 358 317.5 355 c 128,-1,23
 329 352 329 352 338 345 c 128,-1,24
 347 338 347 338 352.5 328 c 128,-1,25
 358 318 358 318 358 304 c 1,26,27
 348 304 348 304 339 306 c 128,-1,28
 330 308 330 308 322 311 c 128,-1,29
 314 314 314 314 304.5 316.5 c 128,-1,30
 295 319 295 319 285 319 c 0,31,32
 261 319 261 319 234.5 311.5 c 128,-1,33
 208 304 208 304 182 291 c 128,-1,34
 156 278 156 278 133 259.5 c 128,-1,35
 110 241 110 241 93 219 c 128,-1,36
 76 197 76 197 65.5 171.5 c 128,-1,37
 55 146 55 146 55 120 c 0,38,39
 55 101 55 101 64 86.5 c 128,-1,40
 73 72 73 72 87 62 c 128,-1,41
 101 52 101 52 118 47.5 c 0,42,43
 134 43 134 43 150 43 c 0,44,45
 180 43 180 43 211 44.5 c 128,-1,46
 242 46 242 46 267 54 c 128,-1,47
 292 62 292 62 308 80 c 128,-1,48
 324 98 324 98 324 132 c 0,49,50
 324 136 324 136 323 144 c 128,-1,51
 322 152 322 152 317 158 c 1,52,-1
 196 158 l 2,53,54
 191 158 191 158 186 161 c 128,-1,55
 181 164 181 164 177.5 168 c 128,-1,56
 174 172 174 172 171.5 177 c 128,-1,57
 169 182 169 182 169 186 c 0,58,59
 169 192 169 192 170.5 198 c 128,-1,60
 172 204 172 204 179 204 c 0,61,62
 185 204 185 204 191.5 201.5 c 128,-1,63
 198 199 198 199 205 196.5 c 128,-1,64
 212 194 212 194 219 192 c 128,-1,65
 226 190 226 190 232 190 c 0,66,67
 256 190 256 190 279 193.5 c 128,-1,68
 302 197 302 197 325 197 c 0,69,70
 331 197 331 197 336.5 194.5 c 128,-1,71
 342 192 342 192 347 187 c 128,-1,72
 352 182 352 182 355 176.5 c 128,-1,73
 358 171 358 171 358 165 c 2,74,-1
 358 -2 l 1,75,76
 360 -3 360 -3 363 -5.5 c 128,-1,77
 366 -8 366 -8 370 -11 c 128,-1,78
 374 -14 374 -14 377 -17 c 128,-1,79
 380 -20 380 -20 381 -21 c 1,80,81
 383 -25 383 -25 380.5 -29.5 c 128,-1,82
 378 -34 378 -34 374 -38 c 128,-1,83
 370 -42 370 -42 365 -44.5 c 128,-1,84
 360 -47 360 -47 356 -47 c 0,85,86
 342 -47 342 -47 334 -38.5 c 128,-1,87
 326 -30 326 -30 322 -17.5 c 128,-1,88
 318 -5 318 -5 317.5 8 c 128,-1,89
 317 21 317 21 317 30 c 1,0,1
EndSplineSet
EndChar

StartChar: H
Encoding: 72 72 43
Width: 358
VWidth: 512
Flags: HW
LayerCount: 2
Fore
SplineSet
243 224 m 2,0,1
 237 221 237 221 225 215.5 c 128,-1,2
 213 210 213 210 198 203 c 128,-1,3
 183 196 183 196 166.5 188.5 c 128,-1,4
 150 181 150 181 135 174 c 128,-1,5
 120 167 120 167 107.5 161.5 c 0,6,7
 96 156 96 156 90 154 c 1,8,-1
 91 20 l 2,9,10
 91 18 91 18 86.5 13 c 128,-1,11
 82 8 82 8 78 7 c 0,12,13
 68 5 68 5 64 15.5 c 128,-1,14
 60 26 60 26 58 43.5 c 128,-1,15
 56 61 56 61 55 81.5 c 128,-1,16
 54 102 54 102 50 118 c 128,-1,17
 46 134 46 134 38 143 c 128,-1,18
 30 152 30 152 13 148 c 1,19,20
 13 149 13 149 12 152.5 c 0,21,-1
 11 156 l 0,22,23
 11 164 11 164 15.5 167.5 c 128,-1,24
 20 171 20 171 25 173.5 c 128,-1,25
 30 176 30 176 34.5 179.5 c 0,26,27
 39 182 39 182 39 192 c 0,28,29
 39 218 39 218 36.5 245 c 128,-1,30
 34 272 34 272 32 298 c 128,-1,31
 30 324 30 324 27.5 350.5 c 0,32,33
 25 378 25 378 25 404 c 0,34,35
 25 406 25 406 25 410 c 128,-1,36
 25 414 25 414 25.5 419 c 128,-1,37
 26 424 26 424 26 429 c 128,-1,38
 26 434 26 434 26 435 c 1,39,40
 28 441 28 441 31 441.5 c 128,-1,41
 34 442 34 442 38 442 c 128,-1,42
 42 442 42 442 46 441 c 128,-1,43
 50 440 50 440 51 435 c 2,44,-1
 77 212 l 2,45,46
 77 210 77 210 79.5 205 c 128,-1,47
 82 200 82 200 84 198 c 1,48,-1
 86 198 l 1,49,-1
 90 198 l 1,50,51
 93 198 93 198 100.5 201 c 128,-1,52
 108 204 108 204 128 212 c 128,-1,53
 148 220 148 220 183.5 237 c 0,54,55
 218 254 218 254 278 284 c 1,56,-1
 282 435 l 2,57,58
 282 439 282 439 284 443.5 c 128,-1,59
 286 448 286 448 290 452 c 128,-1,60
 294 456 294 456 298.5 459 c 128,-1,61
 303 462 303 462 307 462 c 0,62,63
 313 462 313 462 316.5 459.5 c 128,-1,64
 320 457 320 457 320 448 c 0,65,66
 320 446 320 446 317.5 441 c 128,-1,67
 315 436 315 436 314 435 c 1,68,69
 314 433 314 433 314 425.5 c 128,-1,70
 314 418 314 418 314 411 c 128,-1,71
 314 404 314 404 313.5 397 c 128,-1,72
 313 390 313 390 313 387 c 0,73,74
 313 331 313 331 314.5 273.5 c 128,-1,75
 316 216 316 216 320 160 c 0,76,77
 320 154 320 154 322 137 c 128,-1,78
 324 120 324 120 326 100.5 c 128,-1,79
 328 81 328 81 330 63.5 c 128,-1,80
 332 46 332 46 333 38 c 0,81,82
 333 37 333 37 333.5 34.5 c 128,-1,83
 334 32 334 32 335.5 29 c 128,-1,84
 337 26 337 26 338 23 c 0,85,-1
 340 20 l 1,86,-1
 340 16 l 1,87,-1
 340 13 l 1,88,89
 338 11 338 11 335 9.5 c 128,-1,90
 332 8 332 8 329 6 c 128,-1,91
 326 4 326 4 323.5 2 c 128,-1,92
 321 0 321 0 320 0 c 0,93,94
 311 -2 311 -2 305 8 c 128,-1,95
 299 18 299 18 295.5 31.5 c 128,-1,96
 292 45 292 45 290.5 58.5 c 0,97,98
 288 72 288 72 288 77 c 0,99,-1
 288 86.5 l 0,100,101
 288 96 288 96 287 111 c 128,-1,102
 286 126 286 126 285 144 c 128,-1,103
 284 162 284 162 283 179.5 c 128,-1,104
 282 197 282 197 280 213 c 128,-1,105
 278 229 278 229 277 240 c 1,106,-1
 243 224 l 2,0,1
EndSplineSet
EndChar

StartChar: I
Encoding: 73 73 44
Width: 115
VWidth: 512
Flags: HW
LayerCount: 2
Fore
SplineSet
64 26 m 0,0,1
 60 50 60 50 57.5 77 c 128,-1,2
 55 104 55 104 52 131.5 c 128,-1,3
 49 159 49 159 46 185.5 c 0,4,5
 42 212 42 212 38 237 c 0,6,7
 36 247 36 247 31.5 263.5 c 128,-1,8
 27 280 27 280 22.5 299 c 128,-1,9
 18 318 18 318 14 337.5 c 128,-1,10
 10 357 10 357 10 373 c 1,11,12
 18 384 18 384 26 377.5 c 128,-1,13
 34 371 34 371 42 352.5 c 128,-1,14
 50 334 50 334 57.5 306 c 128,-1,15
 65 278 65 278 71.5 245.5 c 128,-1,16
 78 213 78 213 84 179.5 c 128,-1,17
 90 146 90 146 94 116 c 128,-1,18
 98 86 98 86 100 62 c 128,-1,19
 102 38 102 38 103 27 c 0,20,21
 103 23 103 23 103 19 c 128,-1,22
 103 15 103 15 102 11.5 c 128,-1,23
 101 8 101 8 98.5 5 c 128,-1,24
 96 2 96 2 90 0 c 0,25,26
 86 -1 86 -1 81.5 2.5 c 128,-1,27
 77 6 77 6 73.5 11 c 128,-1,28
 70 16 70 16 67 20.5 c 128,-1,29
 64 25 64 25 64 26 c 0,0,1
EndSplineSet
EndChar

StartChar: J
Encoding: 74 74 45
Width: 300
VWidth: 512
Flags: HW
LayerCount: 2
Fore
SplineSet
216 -0 m 1,0,1
 188 6 188 6 165 20 c 128,-1,2
 142 34 142 34 121.5 54 c 128,-1,3
 101 74 101 74 82 96.5 c 0,4,5
 62 119 62 119 44 141 c 0,6,7
 38 147 38 147 33 154 c 128,-1,8
 28 161 28 161 24 169 c 128,-1,9
 20 177 20 177 17 187 c 128,-1,10
 14 197 14 197 14 210 c 0,11,12
 14 222 14 222 23 232 c 128,-1,13
 32 242 32 242 47 242 c 1,14,15
 55 238 55 238 52.5 234 c 128,-1,16
 50 230 50 230 47 222 c 1,17,-1
 47 220 l 2,18,19
 47 202 47 202 55.5 182 c 128,-1,20
 64 162 64 162 79 141.5 c 128,-1,21
 94 121 94 121 112 102.5 c 128,-1,22
 130 84 130 84 149.5 69.5 c 128,-1,23
 169 55 169 55 187.5 46.5 c 128,-1,24
 206 38 206 38 220 38 c 0,25,26
 228 38 228 38 233.5 47 c 128,-1,27
 239 56 239 56 242.5 70 c 128,-1,28
 246 84 246 84 247.5 100 c 128,-1,29
 249 116 249 116 249.5 131 c 128,-1,30
 250 146 250 146 250 157 c 128,-1,31
 250 168 250 168 250 171 c 256,32,33
 250 175 250 175 250 181.5 c 128,-1,34
 250 188 250 188 250 194 c 128,-1,35
 250 200 250 200 250 205 c 128,-1,36
 250 210 250 210 250 212 c 2,37,-1
 214 462 l 1,38,39
 222 482 222 482 229.5 480 c 128,-1,40
 237 478 237 478 244 461 c 128,-1,41
 251 444 251 444 257.5 416 c 128,-1,42
 264 388 264 388 269 355 c 128,-1,43
 274 322 274 322 278 289 c 128,-1,44
 282 256 282 256 284.5 230 c 128,-1,45
 287 204 287 204 287.5 188 c 128,-1,46
 288 172 288 172 288 173 c 1,47,48
 288 163 288 163 288 145.5 c 128,-1,49
 288 128 288 128 286 109 c 128,-1,50
 284 90 284 90 279 70.5 c 128,-1,51
 274 51 274 51 266 35.5 c 128,-1,52
 258 20 258 20 246 10 c 128,-1,53
 234 0 234 0 216 -0 c 1,0,1
EndSplineSet
EndChar

StartChar: K
Encoding: 75 75 46
Width: 320
VWidth: 512
Flags: HW
LayerCount: 2
Fore
SplineSet
262 6 m 1,0,1
 252 14 252 14 235.5 26 c 128,-1,2
 219 38 219 38 200 50 c 128,-1,3
 181 62 181 62 161 76 c 128,-1,4
 141 90 141 90 123.5 103 c 128,-1,5
 106 116 106 116 91.5 129 c 0,6,7
 78 142 78 142 70 153 c 1,8,9
 67 141 67 141 67.5 125 c 128,-1,10
 68 109 68 109 71 92 c 128,-1,11
 74 75 74 75 76.5 58.5 c 128,-1,12
 79 42 79 42 79 28.5 c 128,-1,13
 79 15 79 15 75.5 6.5 c 128,-1,14
 72 -2 72 -2 62 -2 c 256,15,16
 52 -2 52 -2 46.5 12 c 128,-1,17
 41 26 41 26 37.5 46 c 128,-1,18
 34 66 34 66 33 91 c 128,-1,19
 32 116 32 116 32 138 c 128,-1,20
 32 160 32 160 32 177 c 128,-1,21
 32 194 32 194 32 198 c 0,22,23
 31 220 31 220 28 243.5 c 128,-1,24
 25 267 25 267 21.5 290.5 c 128,-1,25
 18 314 18 314 15 337.5 c 0,26,27
 12 362 12 362 12 382 c 0,28,29
 12 383 12 383 13.5 385.5 c 128,-1,30
 15 388 15 388 17 391 c 128,-1,31
 19 394 19 394 21.5 396.5 c 128,-1,32
 24 399 24 399 28 399 c 0,33,34
 34 399 34 399 37 394.5 c 128,-1,35
 40 390 40 390 41 385 c 128,-1,36
 42 380 42 380 43 374 c 128,-1,37
 44 368 44 368 45 365 c 0,38,39
 48 355 48 355 49.5 340 c 128,-1,40
 51 325 51 325 52.5 308.5 c 128,-1,41
 54 292 54 292 55.5 274 c 0,42,43
 58 256 58 256 60 240 c 1,44,45
 68 249 68 249 80 264.5 c 128,-1,46
 92 280 92 280 106 298 c 128,-1,47
 120 316 120 316 135 334.5 c 128,-1,48
 150 353 150 353 166.5 367.5 c 128,-1,49
 183 382 183 382 199 391 c 0,50,51
 214 400 214 400 230 400 c 1,52,53
 234 396 234 396 232.5 389 c 128,-1,54
 231 382 231 382 225 374.5 c 128,-1,55
 219 367 219 367 210 358 c 0,56,57
 201 350 201 350 192 340 c 1,58,59
 178 324 178 324 161.5 306 c 128,-1,60
 145 288 145 288 129 270.5 c 128,-1,61
 113 253 113 253 99 236.5 c 0,62,63
 84 220 84 220 76 205 c 1,64,65
 95 179 95 179 118.5 156.5 c 128,-1,66
 142 134 142 134 168.5 114.5 c 128,-1,67
 195 95 195 95 222.5 77.5 c 128,-1,68
 250 60 250 60 277 42 c 1,69,70
 285 40 285 40 291 34 c 128,-1,71
 297 28 297 28 300.5 22 c 128,-1,72
 304 16 304 16 303 10 c 128,-1,73
 302 4 302 4 298 1 c 128,-1,74
 294 -2 294 -2 285 -1.5 c 128,-1,75
 276 -1 276 -1 262 6 c 1,0,1
EndSplineSet
EndChar

StartChar: L
Encoding: 76 76 47
Width: 237
VWidth: 512
Flags: HW
LayerCount: 2
Fore
SplineSet
12 108 m 1,0,1
 14 132 14 132 16 161 c 128,-1,2
 18 190 18 190 20 220 c 128,-1,3
 22 250 22 250 26 278 c 128,-1,4
 30 306 30 306 34 326.5 c 128,-1,5
 38 347 38 347 44 358 c 0,6,7
 50 370 50 370 57 366 c 1,8,9
 67 365 67 365 69.5 351.5 c 128,-1,10
 72 338 72 338 71 316 c 128,-1,11
 70 294 70 294 66 266 c 128,-1,12
 62 238 62 238 58 208 c 128,-1,13
 54 178 54 178 52 149 c 128,-1,14
 50 120 50 120 51 96 c 0,15,16
 51 90 51 90 53.5 82.5 c 128,-1,17
 56 75 56 75 60 68.5 c 128,-1,18
 64 62 64 62 70 57 c 128,-1,19
 76 52 76 52 84 51 c 2,20,-1
 218 38 l 2,21,22
 224 38 224 38 224.5 32 c 128,-1,23
 225 26 225 26 225 22 c 0,24,25
 225 10 225 10 217.5 6 c 128,-1,26
 210 2 210 2 198 0 c 1,27,28
 196 0 196 0 189 0 c 128,-1,29
 182 -0 182 -0 174.5 -0.5 c 128,-1,30
 167 -1 167 -1 160 -1.5 c 0,31,32
 152 -2 152 -2 150 -2 c 0,33,34
 119 -2 119 -2 93.5 3 c 128,-1,35
 68 8 68 8 50 20 c 128,-1,36
 32 32 32 32 22 53.5 c 128,-1,37
 12 75 12 75 12 108 c 1,0,1
EndSplineSet
EndChar

StartChar: M
Encoding: 77 77 48
Width: 365
VWidth: 512
Flags: HW
LayerCount: 2
Fore
SplineSet
301 13 m 1,0,1
 300 20 300 20 298.5 34.5 c 128,-1,2
 297 49 297 49 295 67.5 c 128,-1,3
 293 86 293 86 291 106 c 128,-1,4
 289 126 289 126 287 144 c 128,-1,5
 285 162 285 162 283.5 177 c 128,-1,6
 282 192 282 192 282 198 c 1,7,8
 281 204 281 204 280.5 215 c 128,-1,9
 280 226 280 226 279 236.5 c 128,-1,10
 278 247 278 247 274 256 c 128,-1,11
 270 265 270 265 262 269 c 1,12,13
 238 256 238 256 214.5 249 c 128,-1,14
 191 242 191 242 164 242 c 0,15,16
 124 242 124 242 86 291 c 1,17,18
 83 291 83 291 81.5 287 c 128,-1,19
 80 283 80 283 80 277.5 c 128,-1,20
 80 272 80 272 80 266 c 128,-1,21
 80 260 80 260 80 256 c 2,22,-1
 80 33 l 2,23,24
 80 29 80 29 77 26.5 c 128,-1,25
 74 24 74 24 71 22 c 128,-1,26
 68 20 68 20 64 19.5 c 128,-1,27
 60 19 60 19 58 19 c 0,28,29
 48 19 48 19 44 27.5 c 128,-1,30
 40 36 40 36 38 46 c 1,31,-1
 38 141 l 2,32,33
 38 185 38 185 42 227.5 c 128,-1,34
 46 270 46 270 46 314 c 0,35,36
 46 328 46 328 40.5 339 c 128,-1,37
 35 350 35 350 29 360 c 128,-1,38
 23 370 23 370 17.5 380.5 c 0,39,40
 12 392 12 392 12 404 c 0,41,42
 12 418 12 418 26 417 c 0,43,44
 42 417 42 417 53.5 407.5 c 128,-1,45
 65 398 65 398 73.5 383.5 c 128,-1,46
 82 369 82 369 90.5 352 c 128,-1,47
 99 335 99 335 109.5 320.5 c 128,-1,48
 120 306 120 306 134.5 296.5 c 0,49,50
 148 287 148 287 170 287 c 1,51,52
 197 285 197 285 214.5 294.5 c 128,-1,53
 232 304 232 304 243.5 319 c 128,-1,54
 255 334 255 334 261.5 352 c 128,-1,55
 268 370 268 370 274 385 c 128,-1,56
 280 400 280 400 286 409 c 128,-1,57
 292 418 292 418 301 416 c 1,58,59
 309 417 309 417 312.5 412.5 c 128,-1,60
 316 408 316 408 318 401.5 c 128,-1,61
 320 395 320 395 320 388.5 c 128,-1,62
 320 382 320 382 320 378 c 0,63,64
 320 353 320 353 316.5 330.5 c 128,-1,65
 313 308 313 308 313 282 c 0,66,67
 313 248 313 248 318 214 c 128,-1,68
 323 180 323 180 329.5 147 c 128,-1,69
 336 114 336 114 341 80 c 128,-1,70
 346 46 346 46 346 13 c 0,71,72
 346 7 346 7 344 4.5 c 128,-1,73
 342 2 342 2 340 0.5 c 128,-1,74
 338 -1 338 -1 334 -1.5 c 128,-1,75
 330 -2 330 -2 326 -2 c 0,76,77
 318 -2 318 -2 311 0 c 128,-1,78
 304 2 304 2 301 13 c 1,0,1
EndSplineSet
EndChar

StartChar: N
Encoding: 78 78 49
Width: 416
VWidth: 512
Flags: HW
LayerCount: 2
Fore
SplineSet
20 40 m 0,0,1
 20 72 20 72 22 103 c 128,-1,2
 24 134 24 134 26.5 165 c 128,-1,3
 29 196 29 196 31 227 c 128,-1,4
 33 258 33 258 33 289 c 0,5,6
 33 307 33 307 29.5 322.5 c 128,-1,7
 26 338 26 338 26 356 c 2,8,-1
 26 358 l 1,9,10
 28 358 28 358 31 359.5 c 128,-1,11
 34 361 34 361 38 362 c 128,-1,12
 42 363 42 363 46 363.5 c 128,-1,13
 50 364 50 364 52 365 c 1,14,-1
 58 365 l 1,15,16
 64 341 64 341 73 308 c 128,-1,17
 82 275 82 275 94.5 240 c 128,-1,18
 107 205 107 205 124.5 170.5 c 128,-1,19
 142 136 142 136 164 109 c 128,-1,20
 186 82 186 82 214.5 66 c 0,21,22
 244 50 244 50 278 50 c 0,23,24
 298 50 298 50 313.5 57 c 128,-1,25
 329 64 329 64 339.5 76.5 c 128,-1,26
 350 89 350 89 355 105.5 c 128,-1,27
 360 122 360 122 360 142 c 0,28,29
 360 168 360 168 349.5 190.5 c 128,-1,30
 339 213 339 213 326.5 233.5 c 128,-1,31
 314 254 314 254 304 275 c 128,-1,32
 294 296 294 296 294 320 c 0,33,34
 294 329 294 329 296 334.5 c 128,-1,35
 298 340 298 340 308 340 c 128,-1,36
 318 340 318 340 329 328 c 128,-1,37
 340 316 340 316 350 297 c 128,-1,38
 360 278 360 278 369 255 c 128,-1,39
 378 232 378 232 384 210 c 128,-1,40
 390 188 390 188 394 168 c 128,-1,41
 398 148 398 148 398 138 c 0,42,43
 398 110 398 110 389 85.5 c 128,-1,44
 380 61 380 61 363 43.5 c 128,-1,45
 346 26 346 26 322 16 c 128,-1,46
 298 6 298 6 270 6 c 0,47,48
 238 6 238 6 213 18.5 c 128,-1,49
 188 31 188 31 168 49.5 c 128,-1,50
 148 68 148 68 133 90 c 128,-1,51
 118 112 118 112 107.5 130.5 c 128,-1,52
 97 149 97 149 89.5 161.5 c 128,-1,53
 82 174 82 174 78 174 c 0,54,55
 70 174 70 174 65 168 c 128,-1,56
 60 162 60 162 59 153.5 c 128,-1,57
 58 145 58 145 58 136.5 c 128,-1,58
 58 128 58 128 58 122 c 0,59,60
 58 101 58 101 61.5 82.5 c 128,-1,61
 65 64 65 64 65 44 c 0,62,63
 65 40 65 40 64.5 32 c 128,-1,64
 64 24 64 24 61 17 c 128,-1,65
 58 10 58 10 54 5 c 128,-1,66
 50 0 50 0 42 -0 c 0,67,68
 36 0 36 0 31.5 4.5 c 128,-1,69
 27 9 27 9 24.5 15.5 c 128,-1,70
 22 22 22 22 21 29 c 128,-1,71
 20 36 20 36 20 40 c 0,0,1
EndSplineSet
EndChar

StartChar: O
Encoding: 79 79 50
Width: 416
VWidth: 512
Flags: HW
LayerCount: 2
Fore
SplineSet
12 186 m 1,0,1
 10 215 10 215 19.5 240.5 c 128,-1,2
 29 266 29 266 46 285.5 c 128,-1,3
 63 305 63 305 87 316.5 c 0,4,5
 112 328 112 328 140 331 c 1,6,7
 190 323 190 323 235 305.5 c 128,-1,8
 280 288 280 288 315.5 260 c 128,-1,9
 351 232 351 232 373 194 c 0,10,11
 396 156 396 156 398 110 c 1,12,13
 392 76 392 76 370.5 56 c 128,-1,14
 349 36 349 36 321 24.5 c 128,-1,15
 293 13 293 13 261.5 8.5 c 128,-1,16
 230 4 230 4 203 -0 c 1,17,18
 161 0 161 0 126.5 13 c 128,-1,19
 92 26 92 26 66.5 50.5 c 128,-1,20
 41 75 41 75 26.5 109.5 c 128,-1,21
 12 144 12 144 12 186 c 1,0,1
44 189 m 0,22,23
 44 159 44 159 57.5 132.5 c 128,-1,24
 71 106 71 106 93 85.5 c 128,-1,25
 115 65 115 65 142.5 52 c 128,-1,26
 170 39 170 39 196 35 c 1,27,28
 205 35 205 35 220.5 36.5 c 128,-1,29
 236 38 236 38 254 42 c 128,-1,30
 272 46 272 46 291 52 c 128,-1,31
 310 58 310 58 325 67 c 128,-1,32
 340 76 340 76 349 88 c 128,-1,33
 358 100 358 100 358 116 c 1,34,35
 354 149 354 149 338 175.5 c 128,-1,36
 322 202 322 202 300 222 c 128,-1,37
 278 242 278 242 251 256 c 128,-1,38
 224 270 224 270 198 278 c 128,-1,39
 172 286 172 286 149 289 c 128,-1,40
 126 292 126 292 112 289 c 1,41,42
 92 281 92 281 78.5 269.5 c 128,-1,43
 65 258 65 258 57.5 244.5 c 128,-1,44
 50 231 50 231 47 217 c 128,-1,45
 44 203 44 203 44 189 c 0,22,23
EndSplineSet
EndChar

StartChar: P
Encoding: 80 80 51
Width: 429
VWidth: 512
Flags: HW
LayerCount: 2
Fore
SplineSet
205 0 m 1,0,1
 195 16 195 16 189.5 43 c 128,-1,2
 184 70 184 70 179.5 98 c 128,-1,3
 175 126 175 126 172.5 152 c 128,-1,4
 170 178 170 178 166 192 c 1,5,-1
 166 307 l 2,6,7
 166 315 166 315 172.5 321 c 128,-1,8
 179 327 179 327 186 327 c 0,9,10
 187 327 187 327 189.5 326.5 c 0,11,-1
 192 326 l 0,12,13
 195 308 195 308 196 289.5 c 128,-1,14
 197 271 197 271 198.5 252.5 c 128,-1,15
 200 234 200 234 202.5 215 c 0,16,17
 206 196 206 196 212 179 c 1,18,19
 223 177 223 177 234.5 175.5 c 128,-1,20
 246 174 246 174 262 173 c 1,21,22
 280 173 280 173 300 178.5 c 128,-1,23
 320 184 320 184 338 195 c 128,-1,24
 356 206 356 206 367 221.5 c 0,25,26
 378 236 378 236 378 256 c 0,27,28
 378 277 378 277 364.5 293.5 c 128,-1,29
 351 310 351 310 329 323 c 128,-1,30
 307 336 307 336 280.5 345 c 128,-1,31
 254 354 254 354 228 360 c 128,-1,32
 202 366 202 366 180 369 c 128,-1,33
 158 372 158 372 146 372 c 0,34,35
 142 372 142 372 131 372 c 128,-1,36
 120 372 120 372 107.5 372 c 128,-1,37
 95 372 95 372 83 370.5 c 128,-1,38
 71 369 71 369 64 365 c 0,39,40
 58 361 58 361 53 352.5 c 128,-1,41
 48 344 48 344 43 335 c 128,-1,42
 38 326 38 326 33 319.5 c 128,-1,43
 28 313 28 313 22 313 c 0,44,-1
 21 314 l 0,45,-1
 20 314 l 256,46,47
 19 314 19 314 17.5 316 c 128,-1,48
 16 318 16 318 15 323 c 128,-1,49
 14 328 14 328 13.5 338 c 128,-1,50
 13 348 13 348 13 365 c 0,51,52
 13 373 13 373 20.5 379 c 128,-1,53
 28 385 28 385 39 390 c 128,-1,54
 50 395 50 395 64 398.5 c 128,-1,55
 78 402 78 402 90 404.5 c 128,-1,56
 102 407 102 407 111.5 408.5 c 0,57,58
 120 410 120 410 124 410 c 0,59,60
 146 410 146 410 177 407 c 128,-1,61
 208 404 208 404 240 397 c 128,-1,62
 272 390 272 390 304 378.5 c 128,-1,63
 336 367 336 367 361 349.5 c 128,-1,64
 386 332 386 332 401 308 c 128,-1,65
 416 284 416 284 416 253 c 1,66,67
 420 231 420 231 409 211.5 c 128,-1,68
 398 192 398 192 378 177 c 128,-1,69
 358 162 358 162 333 151 c 128,-1,70
 308 140 308 140 285 134 c 128,-1,71
 262 128 262 128 243 126 c 128,-1,72
 224 124 224 124 218 128 c 1,73,-1
 218 122 l 2,74,75
 218 98 218 98 221.5 76 c 128,-1,76
 225 54 225 54 225 30 c 0,77,78
 225 28 225 28 224.5 22 c 128,-1,79
 224 16 224 16 222 11 c 128,-1,80
 220 6 220 6 215.5 2 c 128,-1,81
 211 -2 211 -2 205 0 c 1,0,1
EndSplineSet
EndChar

StartChar: Q
Encoding: 81 81 52
Width: 439
VWidth: 512
Flags: HW
LayerCount: 2
Fore
SplineSet
287 8 m 0,0,1
 285 8 285 8 279.5 8 c 128,-1,2
 274 8 274 8 273 8 c 0,3,4
 271 8 271 8 263.5 6.5 c 128,-1,5
 256 5 256 5 247.5 4 c 128,-1,6
 239 3 239 3 231.5 2 c 128,-1,7
 224 1 224 1 222 1 c 2,8,-1
 218 1 l 1,9,10
 178 -3 178 -3 141.5 10.5 c 128,-1,11
 105 24 105 24 77.5 50 c 128,-1,12
 50 76 50 76 33.5 111.5 c 128,-1,13
 17 147 17 147 17 187 c 2,14,-1
 17 196 l 2,15,16
 17 228 17 228 28.5 259 c 128,-1,17
 40 290 40 290 61 314 c 128,-1,18
 82 338 82 338 110.5 352 c 128,-1,19
 139 366 139 366 172 366 c 0,20,21
 194 366 194 366 221 355.5 c 128,-1,22
 248 345 248 345 276 326.5 c 128,-1,23
 304 308 304 308 330 284.5 c 128,-1,24
 356 261 356 261 376 235.5 c 128,-1,25
 396 210 396 210 408.5 184 c 128,-1,26
 421 158 421 158 421 136 c 0,27,28
 421 118 421 118 415.5 103 c 128,-1,29
 410 88 410 88 400 76 c 128,-1,30
 390 64 390 64 377 53 c 128,-1,31
 364 42 364 42 350 34 c 1,32,-1
 350 26 l 2,33,34
 350 14 350 14 357 5 c 128,-1,35
 364 -4 364 -4 374 -12 c 128,-1,36
 384 -20 384 -20 397 -26 c 128,-1,37
 410 -32 410 -32 420.5 -38 c 128,-1,38
 431 -44 431 -44 438.5 -50 c 128,-1,39
 446 -56 446 -56 446 -64 c 1,40,41
 432 -78 432 -78 419 -77.5 c 128,-1,42
 406 -77 406 -77 393.5 -68.5 c 128,-1,43
 381 -60 381 -60 368.5 -47 c 128,-1,44
 356 -34 356 -34 343 -21 c 128,-1,45
 330 -8 330 -8 316.5 0.5 c 128,-1,46
 303 9 303 9 287 8 c 0,0,1
55 187 m 1,47,48
 53 155 53 155 64 128.5 c 128,-1,49
 75 102 75 102 96 83.5 c 128,-1,50
 117 65 117 65 144.5 54.5 c 128,-1,51
 172 44 172 44 203 44 c 0,52,53
 209 44 209 44 215.5 44 c 128,-1,54
 222 44 222 44 228 46 c 128,-1,55
 234 48 234 48 237.5 53 c 128,-1,56
 241 58 241 58 241 68 c 1,57,58
 238 80 238 80 230 94 c 128,-1,59
 222 108 222 108 215 120 c 128,-1,60
 208 132 208 132 206 142 c 128,-1,61
 204 152 204 152 214 159 c 1,62,63
 224 159 224 159 235 147 c 128,-1,64
 246 135 246 135 257.5 119.5 c 128,-1,65
 269 104 269 104 279.5 88 c 128,-1,66
 290 72 290 72 298 65 c 1,67,68
 299 65 299 65 303 64.5 c 128,-1,69
 307 64 307 64 308 64 c 0,70,71
 317 64 317 64 330.5 70 c 128,-1,72
 344 76 344 76 357 85 c 128,-1,73
 370 94 370 94 379 105 c 128,-1,74
 388 116 388 116 388 126 c 0,75,76
 388 140 388 140 383 154 c 128,-1,77
 378 168 378 168 371 180.5 c 128,-1,78
 364 193 364 193 355 204.5 c 128,-1,79
 346 216 346 216 337 226 c 0,80,81
 331 232 331 232 322.5 240 c 128,-1,82
 314 248 314 248 305.5 256.5 c 128,-1,83
 297 265 297 265 289.5 270.5 c 128,-1,84
 282 276 282 276 280 276 c 1,85,86
 279 260 279 260 274 246 c 128,-1,87
 269 232 269 232 260 218 c 0,88,89
 259 218 l 0,90,91
 258 218 258 218 257 218 c 2,92,-1
 256 218 l 2,93,-1
 254 218 l 0,94,95
 251 220 l 0,96,97
 248 222 248 222 245 223.5 c 128,-1,98
 242 225 242 225 239 226.5 c 128,-1,99
 236 228 236 228 236 229 c 0,100,101
 248 259 248 259 245 277.5 c 128,-1,102
 242 296 242 296 229 306 c 128,-1,103
 216 316 216 316 198.5 320.5 c 128,-1,104
 181 325 181 325 164.5 325.5 c 128,-1,105
 148 326 148 326 137 324 c 128,-1,106
 126 322 126 322 126 321 c 1,107,108
 104 313 104 313 90 298.5 c 128,-1,109
 76 284 76 284 68 266 c 128,-1,110
 60 248 60 248 57.5 227.5 c 128,-1,111
 55 207 55 207 55 187 c 1,47,48
EndSplineSet
EndChar

StartChar: R
Encoding: 82 82 53
Width: 395
VWidth: 512
Flags: HW
LayerCount: 2
Fore
SplineSet
132 148 m 1,0,1
 136 118 136 118 142.5 93 c 128,-1,2
 149 68 149 68 152.5 49.5 c 128,-1,3
 156 31 156 31 154 19.5 c 128,-1,4
 152 8 152 8 141 5 c 1,5,6
 139 1 139 1 135.5 10 c 128,-1,7
 132 19 132 19 127 36.5 c 128,-1,8
 122 54 122 54 116 79 c 128,-1,9
 110 104 110 104 104 131.5 c 128,-1,10
 98 159 98 159 93 188 c 128,-1,11
 88 217 88 217 85.5 243.5 c 128,-1,12
 83 270 83 270 83 292.5 c 128,-1,13
 83 315 83 315 87 329 c 1,14,15
 95 335 95 335 101.5 332.5 c 128,-1,16
 108 330 108 330 111 323 c 128,-1,17
 114 316 114 316 115 307 c 128,-1,18
 116 298 116 298 115 292 c 1,19,20
 115 289 115 289 117 281.5 c 128,-1,21
 119 274 119 274 121 266 c 128,-1,22
 123 258 123 258 125 250.5 c 128,-1,23
 127 243 127 243 128 240 c 1,24,25
 138 241 138 241 156 243.5 c 128,-1,26
 174 246 174 246 195 250 c 128,-1,27
 216 254 216 254 238.5 260 c 128,-1,28
 261 266 261 266 279.5 274.5 c 128,-1,29
 298 283 298 283 309 293.5 c 128,-1,30
 320 304 320 304 320 317 c 0,31,32
 320 318 320 318 320 320 c 128,-1,33
 320 322 320 322 320 323 c 0,34,35
 301 345 301 345 281.5 357.5 c 128,-1,36
 262 370 262 370 241 377 c 128,-1,37
 220 384 220 384 196 386 c 128,-1,38
 172 388 172 388 144 388 c 0,39,40
 124 388 124 388 102 387.5 c 128,-1,41
 80 387 80 387 62 381.5 c 128,-1,42
 44 376 44 376 32 362 c 128,-1,43
 20 348 20 348 20 321 c 1,44,45
 14 321 14 321 9 325 c 128,-1,46
 4 329 4 329 0.5 334.5 c 128,-1,47
 -3 340 -3 340 -5 347 c 128,-1,48
 -7 354 -7 354 -7 358 c 0,49,50
 -7 368 -7 368 -2.5 376 c 128,-1,51
 2 384 2 384 8 391 c 128,-1,52
 14 398 14 398 22.5 403 c 0,53,54
 30 408 30 408 38 412 c 1,55,56
 59 416 59 416 75.5 419 c 128,-1,57
 92 422 92 422 107 423.5 c 128,-1,58
 122 425 122 425 137 425.5 c 128,-1,59
 152 426 152 426 170 426 c 256,60,61
 188 426 188 426 209.5 423 c 128,-1,62
 231 420 231 420 252 414 c 128,-1,63
 273 408 273 408 292.5 398 c 128,-1,64
 312 388 312 388 327 375 c 128,-1,65
 342 362 342 362 350.5 344 c 128,-1,66
 359 326 359 326 359 304 c 0,67,68
 359 284 359 284 346.5 270 c 128,-1,69
 334 256 334 256 314.5 245 c 128,-1,70
 295 234 295 234 270.5 227 c 128,-1,71
 246 220 246 220 222 214 c 128,-1,72
 198 208 198 208 176 204 c 128,-1,73
 154 200 154 200 141 195 c 1,74,75
 175 149 175 149 207.5 116.5 c 128,-1,76
 240 84 240 84 269 62 c 128,-1,77
 298 40 298 40 321 26.5 c 128,-1,78
 344 13 344 13 358.5 4 c 128,-1,79
 373 -5 373 -5 377 -10.5 c 0,80,81
 382 -16 382 -16 372 -23 c 1,82,83
 364 -32 364 -32 347.5 -27 c 128,-1,84
 331 -22 331 -22 309.5 -9 c 128,-1,85
 288 4 288 4 263 24.5 c 128,-1,86
 238 45 238 45 214 67 c 128,-1,87
 190 89 190 89 168.5 110.5 c 128,-1,88
 147 132 147 132 132 148 c 1,0,1
EndSplineSet
EndChar

StartChar: S
Encoding: 83 83 54
Width: 429
VWidth: 512
Flags: HW
LayerCount: 2
Fore
SplineSet
13 118 m 1,0,1
 13 124 13 124 15.5 132 c 128,-1,2
 18 140 18 140 23 147 c 128,-1,3
 28 154 28 154 34.5 159 c 0,4,5
 40 164 40 164 48 164 c 1,6,7
 48 120 48 120 64 95 c 128,-1,8
 80 70 80 70 106.5 57 c 128,-1,9
 133 44 133 44 168.5 39.5 c 0,10,11
 204 34 204 34 243 32 c 1,12,13
 257 32 257 32 278.5 33 c 128,-1,14
 300 34 300 34 320 38 c 128,-1,15
 340 42 340 42 354 52.5 c 0,16,17
 368 64 368 64 366 84 c 0,18,19
 366 94 366 94 366 101 c 128,-1,20
 366 108 366 108 363 113.5 c 128,-1,21
 360 119 360 119 355 124 c 0,22,23
 350 128 350 128 340 134 c 2,24,-1
 141 243 l 2,25,26
 130 249 130 249 120.5 258 c 128,-1,27
 111 267 111 267 104 277.5 c 128,-1,28
 97 288 97 288 93 300.5 c 128,-1,29
 89 313 89 313 89 325 c 0,30,31
 89 350 89 350 102.5 366 c 128,-1,32
 116 382 116 382 137 392 c 128,-1,33
 158 402 158 402 181 406 c 128,-1,34
 204 410 204 410 224 410 c 0,35,36
 234 410 234 410 249 408.5 c 128,-1,37
 264 407 264 407 280 403.5 c 128,-1,38
 296 400 296 400 312.5 394.5 c 128,-1,39
 329 389 329 389 342 380.5 c 128,-1,40
 355 372 355 372 363.5 361 c 128,-1,41
 372 350 372 350 372 336 c 1,42,43
 362 331 362 331 352.5 332.5 c 128,-1,44
 343 334 343 334 332.5 339.5 c 128,-1,45
 322 345 322 345 312 352 c 128,-1,46
 302 359 302 359 290 365.5 c 128,-1,47
 278 372 278 372 265.5 376 c 0,48,49
 254 380 254 380 240 378 c 1,50,51
 228 378 228 378 207.5 377 c 128,-1,52
 187 376 187 376 167.5 371 c 128,-1,53
 148 366 148 366 134.5 355.5 c 0,54,55
 121 344 121 344 121 326 c 128,-1,56
 121 308 121 308 134 293 c 128,-1,57
 147 278 147 278 168.5 265 c 128,-1,58
 190 252 190 252 217 239 c 128,-1,59
 244 226 244 226 272 213 c 128,-1,60
 300 200 300 200 326 186 c 128,-1,61
 352 172 352 172 372 156 c 128,-1,62
 392 140 392 140 402.5 120.5 c 128,-1,63
 413 101 413 101 410 77 c 0,64,65
 406 53 406 53 389 36 c 128,-1,66
 372 19 372 19 345.5 9.5 c 128,-1,67
 319 -0 319 -0 286 -3 c 128,-1,68
 253 -6 253 -6 218.5 -3 c 128,-1,69
 184 0 184 0 150 9.5 c 128,-1,70
 116 19 116 19 88 34.5 c 128,-1,71
 60 50 60 50 40 71 c 128,-1,72
 20 92 20 92 13 118 c 1,0,1
EndSplineSet
EndChar

StartChar: T
Encoding: 84 84 55
Width: 397
VWidth: 512
Flags: HW
LayerCount: 2
Fore
SplineSet
210 370 m 1,0,1
 163 370 163 370 113.5 377 c 128,-1,2
 64 384 64 384 20 390 c 1,3,4
 14 389 14 389 10.5 392.5 c 128,-1,5
 7 396 7 396 5 400.5 c 128,-1,6
 3 405 3 405 2.5 409.5 c 128,-1,7
 2 414 2 414 2 418 c 1,8,9
 12 418 12 418 36.5 417.5 c 128,-1,10
 61 417 61 417 94.5 416.5 c 128,-1,11
 128 416 128 416 168 414.5 c 128,-1,12
 208 413 208 413 248 410.5 c 128,-1,13
 288 408 288 408 325.5 404 c 128,-1,14
 363 400 363 400 391.5 395 c 128,-1,15
 420 390 420 390 437.5 382.5 c 0,16,17
 455 376 455 376 455 366 c 0,18,19
 455 359 455 359 453 352 c 0,20,21
 450 345 450 345 442 345 c 1,22,23
 418 347 418 347 394 353 c 128,-1,24
 370 359 370 359 346 364.5 c 128,-1,25
 322 370 322 370 297 372 c 128,-1,26
 272 374 272 374 246 367 c 1,27,28
 246 336 246 336 249.5 299.5 c 128,-1,29
 253 263 253 263 258.5 224.5 c 128,-1,30
 264 186 264 186 270 148 c 128,-1,31
 276 110 276 110 282 77 c 0,32,33
 284 69 284 69 288 60.5 c 128,-1,34
 292 52 292 52 296.5 44 c 128,-1,35
 301 36 301 36 304.5 28 c 128,-1,36
 308 20 308 20 308 12 c 0,37,38
 308 6 308 6 305 4 c 128,-1,39
 302 2 302 2 297 1 c 128,-1,40
 292 -0 292 -0 287 -0 c 128,-1,41
 282 0 282 0 278 -0 c 0,42,43
 264 0 264 0 257 10 c 128,-1,44
 250 20 250 20 246 35 c 128,-1,45
 242 50 242 50 240 65 c 128,-1,46
 238 80 238 80 237 90 c 0,47,48
 231 126 231 126 227.5 160.5 c 128,-1,49
 224 195 224 195 221 229.5 c 128,-1,50
 218 264 218 264 215.5 298.5 c 128,-1,51
 213 333 213 333 210 370 c 1,0,1
EndSplineSet
EndChar

StartChar: U
Encoding: 85 85 56
Width: 390
VWidth: 512
Flags: HW
LayerCount: 2
Fore
SplineSet
19 260 m 0,0,1
 19 266 19 266 19.5 276.5 c 128,-1,2
 20 287 20 287 21 299.5 c 128,-1,3
 22 312 22 312 24.5 325 c 128,-1,4
 27 338 27 338 32 348 c 128,-1,5
 37 358 37 358 45 365 c 0,6,7
 52 372 52 372 64 372 c 0,8,9
 72 372 72 372 76 368 c 128,-1,10
 80 364 80 364 80.5 358 c 128,-1,11
 81 352 81 352 77 345 c 0,12,13
 72 338 72 338 64 333 c 1,14,15
 58 333 58 333 55.5 324.5 c 128,-1,16
 53 316 53 316 51.5 305 c 128,-1,17
 50 294 50 294 50 284 c 128,-1,18
 50 274 50 274 50 272 c 0,19,20
 50 255 50 255 52 232.5 c 128,-1,21
 54 210 54 210 58 185 c 128,-1,22
 62 160 62 160 69 136 c 128,-1,23
 76 112 76 112 88.5 93 c 128,-1,24
 101 74 101 74 118.5 60.5 c 128,-1,25
 136 47 136 47 160 45 c 0,26,27
 179 43 179 43 203.5 51.5 c 128,-1,28
 228 60 228 60 250 75 c 128,-1,29
 272 90 272 90 286.5 110 c 128,-1,30
 301 130 301 130 301 150 c 2,31,-1
 301 154 l 1,32,33
 297 182 297 182 292 200.5 c 128,-1,34
 287 219 287 219 283.5 234.5 c 128,-1,35
 280 250 280 250 277.5 265.5 c 128,-1,36
 275 281 275 281 275 303 c 1,37,38
 277 334 277 334 281.5 349 c 128,-1,39
 286 364 286 364 292 365.5 c 128,-1,40
 298 367 298 367 304 357.5 c 128,-1,41
 310 348 310 348 314 330 c 128,-1,42
 318 312 318 312 320.5 288 c 128,-1,43
 323 264 323 264 322 236 c 1,44,45
 322 216 322 216 329 192 c 128,-1,46
 336 168 336 168 345 144 c 128,-1,47
 354 120 354 120 363 98 c 128,-1,48
 372 76 372 76 377 58.5 c 128,-1,49
 382 41 382 41 380 30.5 c 128,-1,50
 378 20 378 20 365 20 c 128,-1,51
 352 20 352 20 345 28 c 128,-1,52
 338 36 338 36 333.5 45.5 c 128,-1,53
 329 55 329 55 324.5 63 c 128,-1,54
 320 71 320 71 311 71 c 0,55,56
 305 71 305 71 295.5 65.5 c 128,-1,57
 286 60 286 60 274 52 c 128,-1,58
 262 44 262 44 248.5 35 c 128,-1,59
 235 26 235 26 220.5 18 c 128,-1,60
 206 10 206 10 190 5 c 128,-1,61
 174 0 174 0 159 -0 c 0,62,63
 131 0 131 0 109.5 13.5 c 128,-1,64
 88 27 88 27 72 49 c 128,-1,65
 56 71 56 71 46 99.5 c 128,-1,66
 36 128 36 128 30 156.5 c 128,-1,67
 24 185 24 185 21.5 212.5 c 128,-1,68
 19 240 19 240 19 260 c 0,0,1
EndSplineSet
EndChar

StartChar: V
Encoding: 86 86 57
Width: 288
VWidth: 512
Flags: HW
LayerCount: 2
Fore
SplineSet
12 343 m 0,0,1
 12 351 12 351 17.5 352.5 c 128,-1,2
 23 354 23 354 28 354 c 0,3,4
 40 354 40 354 51 339 c 128,-1,5
 62 324 62 324 71 304 c 128,-1,6
 80 284 80 284 87 264.5 c 128,-1,7
 94 245 94 245 100 235 c 0,8,9
 102 231 102 231 107.5 218.5 c 128,-1,10
 113 206 113 206 120.5 188.5 c 128,-1,11
 128 171 128 171 137 151.5 c 128,-1,12
 146 132 146 132 153.5 115 c 128,-1,13
 161 98 161 98 166.5 85 c 128,-1,14
 172 72 172 72 174 68 c 1,15,16
 178 72 178 72 182.5 87 c 128,-1,17
 187 102 187 102 191.5 123 c 128,-1,18
 196 144 196 144 201 170 c 128,-1,19
 206 196 206 196 211 222 c 128,-1,20
 216 248 216 248 221 273 c 128,-1,21
 226 298 226 298 231.5 316 c 128,-1,22
 237 334 237 334 242.5 345 c 128,-1,23
 248 356 248 356 252 354 c 1,24,25
 262 357 262 357 266 344.5 c 128,-1,26
 270 332 270 332 270 309 c 128,-1,27
 270 286 270 286 265 256 c 128,-1,28
 260 226 260 226 252 193 c 128,-1,29
 244 160 244 160 234.5 128 c 128,-1,30
 225 96 225 96 214 69 c 128,-1,31
 203 42 203 42 191.5 23 c 128,-1,32
 180 4 180 4 170 -0 c 0,33,34
 169 0 169 0 165.5 0 c 128,-1,35
 162 0 162 0 160 0 c 1,36,37
 156 6 156 6 148 23 c 128,-1,38
 140 40 140 40 131 58 c 128,-1,39
 122 76 122 76 114 92 c 128,-1,40
 106 108 106 108 102 115 c 0,41,42
 98 123 98 123 90 141.5 c 128,-1,43
 82 160 82 160 72 182 c 128,-1,44
 62 204 62 204 51.5 228.5 c 128,-1,45
 41 253 41 253 32.5 275.5 c 128,-1,46
 24 298 24 298 18 316 c 128,-1,47
 12 334 12 334 12 343 c 0,0,1
EndSplineSet
EndChar

StartChar: W
Encoding: 87 87 58
Width: 480
VWidth: 512
Flags: HW
LayerCount: 2
Fore
SplineSet
221 78 m 0,0,1
 220.5 77.5 l 0,2,-1
 220 77 l 2,3,-1
 218 77 l 1,4,5
 189 51 189 51 170.5 36.5 c 128,-1,6
 152 22 152 22 142 15 c 128,-1,7
 132 8 132 8 127 6.5 c 128,-1,8
 122 5 122 5 120 5 c 0,9,10
 94 5 94 5 76 19.5 c 128,-1,11
 58 34 58 34 45.5 57 c 128,-1,12
 33 80 33 80 25.5 108.5 c 128,-1,13
 18 137 18 137 14 165.5 c 128,-1,14
 10 194 10 194 8.5 220 c 0,15,16
 6 246 6 246 6 262 c 0,17,18
 6 264 6 264 6 277 c 128,-1,19
 6 290 6 290 8.5 304 c 128,-1,20
 11 318 11 318 16.5 329 c 128,-1,21
 22 340 22 340 33 340 c 0,22,23
 37 340 37 340 39.5 327.5 c 128,-1,24
 42 315 42 315 44 294.5 c 128,-1,25
 46 274 46 274 47.5 248 c 128,-1,26
 49 222 49 222 51.5 195 c 128,-1,27
 54 168 54 168 58 142 c 128,-1,28
 62 116 62 116 69 96 c 128,-1,29
 76 76 76 76 86.5 63 c 128,-1,30
 97 50 97 50 112 50 c 0,31,32
 124 50 124 50 135 57 c 128,-1,33
 146 64 146 64 155 73 c 128,-1,34
 164 82 164 82 172 92 c 128,-1,35
 180 102 180 102 186 109 c 1,36,37
 190 118 190 118 191.5 130 c 128,-1,38
 193 142 193 142 193.5 155 c 128,-1,39
 194 168 194 168 193.5 179.5 c 0,40,41
 192 190 192 190 192 198 c 1,42,43
 196 208 196 208 200.5 212 c 128,-1,44
 205 216 205 216 209.5 214 c 128,-1,45
 214 212 214 212 218 206.5 c 128,-1,46
 222 201 222 201 224 192 c 1,47,48
 228 170 228 170 236.5 144.5 c 128,-1,49
 245 119 245 119 259.5 96.5 c 128,-1,50
 274 74 274 74 295 59 c 128,-1,51
 316 44 316 44 342 44 c 0,52,53
 357 44 357 44 372.5 50 c 128,-1,54
 388 56 388 56 401 66.5 c 128,-1,55
 414 77 414 77 422 91 c 128,-1,56
 430 105 430 105 430 121 c 0,57,58
 430 147 430 147 421.5 171 c 128,-1,59
 413 195 413 195 403.5 218.5 c 128,-1,60
 394 242 394 242 386 266 c 128,-1,61
 378 290 378 290 378 314 c 1,62,63
 386 333 386 333 396.5 330 c 128,-1,64
 407 327 407 327 417.5 310 c 128,-1,65
 428 293 428 293 437 266.5 c 128,-1,66
 446 240 446 240 453 213 c 128,-1,67
 460 186 460 186 464 163 c 128,-1,68
 468 140 468 140 468 128 c 1,69,70
 468 103 468 103 457 80 c 128,-1,71
 446 57 446 57 428 39.5 c 128,-1,72
 410 22 410 22 386 11 c 128,-1,73
 362 0 362 0 336 0 c 0,74,75
 316 0 316 0 297.5 12 c 128,-1,76
 279 24 279 24 263.5 39 c 128,-1,77
 248 54 248 54 237 66 c 128,-1,78
 226 78 226 78 221 78 c 0,0,1
EndSplineSet
EndChar

StartChar: X
Encoding: 88 88 59
Width: 365
VWidth: 512
Flags: HW
LayerCount: 2
Fore
SplineSet
14 -20 m 0,0,1
 14 4 14 4 27 31.5 c 128,-1,2
 40 59 40 59 58.5 86.5 c 128,-1,3
 77 114 77 114 98 139 c 128,-1,4
 119 164 119 164 135 184 c 1,5,6
 135 195 135 195 129.5 208 c 128,-1,7
 124 221 124 221 115 234.5 c 128,-1,8
 106 248 106 248 96 262.5 c 128,-1,9
 86 277 86 277 77 290.5 c 128,-1,10
 68 304 68 304 62.5 317.5 c 0,11,12
 57 330 57 330 57 342 c 0,13,14
 57 350 57 350 59.5 354.5 c 128,-1,15
 62 359 62 359 70 359 c 1,16,17
 74 359 74 359 80 350.5 c 128,-1,18
 86 342 86 342 94 330 c 128,-1,19
 102 318 102 318 110 304 c 128,-1,20
 118 290 118 290 126 277 c 128,-1,21
 134 264 134 264 139.5 254 c 128,-1,22
 145 244 145 244 148 242 c 1,23,24
 154 230 154 230 161 224.5 c 128,-1,25
 168 219 168 219 181.5 225.5 c 128,-1,26
 195 232 195 232 218 252 c 128,-1,27
 241 272 241 272 280 310 c 0,28,29
 284 314 284 314 296 321 c 128,-1,30
 308 328 308 328 321.5 333 c 128,-1,31
 335 338 335 338 346 336.5 c 0,32,33
 358 336 358 336 360 322 c 1,34,35
 339 309 339 309 315 291.5 c 128,-1,36
 291 274 291 274 267.5 255 c 128,-1,37
 244 236 244 236 223 216 c 128,-1,38
 202 196 202 196 186 178 c 1,39,40
 192 162 192 162 207 140 c 128,-1,41
 222 118 222 118 238 97 c 128,-1,42
 254 76 254 76 269 56 c 128,-1,43
 284 36 284 36 292 22 c 128,-1,44
 300 8 300 8 297 2 c 128,-1,45
 294 -4 294 -4 275 2 c 1,46,47
 257 16 257 16 242 33.5 c 128,-1,48
 227 51 227 51 212.5 69.5 c 128,-1,49
 198 88 198 88 184 106.5 c 0,50,51
 170 126 170 126 154 140 c 1,52,-1
 151 140 l 2,53,54
 147 140 147 140 140.5 133.5 c 128,-1,55
 134 127 134 127 126 117.5 c 128,-1,56
 118 108 118 108 109.5 96 c 128,-1,57
 101 84 101 84 93.5 73 c 128,-1,58
 86 62 86 62 80 52 c 128,-1,59
 74 42 74 42 71 37 c 1,60,61
 67 33 67 33 61.5 20.5 c 128,-1,62
 56 8 56 8 50 -5 c 128,-1,63
 44 -18 44 -18 37.5 -29 c 128,-1,64
 31 -40 31 -40 26 -42 c 1,65,66
 18 -42 18 -42 16 -36 c 128,-1,67
 14 -30 14 -30 14 -20 c 0,0,1
EndSplineSet
EndChar

StartChar: Y
Encoding: 89 89 60
Width: 275
VWidth: 512
Flags: HW
LayerCount: 2
Fore
SplineSet
135 2 m 1,0,1
 135 4 135 4 135 9 c 128,-1,2
 135 14 135 14 134.5 20 c 128,-1,3
 134 26 134 26 134 31 c 128,-1,4
 134 36 134 36 134 38 c 0,5,6
 134 66 134 66 137 89 c 128,-1,7
 140 112 140 112 145.5 133 c 128,-1,8
 151 154 151 154 158.5 176 c 128,-1,9
 166 198 166 198 174 227 c 0,10,11
 174 228 174 228 174 232 c 0,12,-1
 174 236 l 1,13,14
 175 236 175 236 162.5 242.5 c 128,-1,15
 150 249 150 249 131 260.5 c 128,-1,16
 112 272 112 272 90 288 c 128,-1,17
 68 304 68 304 50 326 c 128,-1,18
 32 348 32 348 20.5 376 c 128,-1,19
 9 404 9 404 12 436 c 0,20,21
 15 436.5 l 0,22,23
 18 437 18 437 22 437.5 c 128,-1,24
 26 438 26 438 29 438 c 128,-1,25
 32 438 32 438 33 438 c 0,26,27
 37 424 37 424 45.5 408 c 128,-1,28
 54 392 54 392 65.5 375 c 128,-1,29
 77 358 77 358 91 341 c 128,-1,30
 105 324 105 324 120.5 311.5 c 128,-1,31
 136 299 136 299 153.5 291.5 c 0,32,33
 170 284 170 284 188 284 c 1,34,35
 200 310 200 310 207.5 325.5 c 128,-1,36
 215 341 215 341 218.5 349.5 c 128,-1,37
 222 358 222 358 223.5 363 c 128,-1,38
 225 368 225 368 225.5 372.5 c 128,-1,39
 226 377 226 377 227 384.5 c 128,-1,40
 228 392 228 392 231 406 c 1,41,42
 231 409 231 409 236 411.5 c 128,-1,43
 241 414 241 414 246.5 415 c 128,-1,44
 252 416 252 416 257 414 c 128,-1,45
 262 412 262 412 263 406 c 1,46,47
 263 370 263 370 254.5 337 c 128,-1,48
 246 304 246 304 234 272 c 128,-1,49
 222 240 222 240 209 209 c 128,-1,50
 196 178 196 178 186 145.5 c 128,-1,51
 176 113 176 113 172 77.5 c 128,-1,52
 168 42 168 42 174 2 c 1,53,54
 170 -6 170 -6 166 -8.5 c 128,-1,55
 162 -11 162 -11 154 -11 c 256,56,57
 147 -11 147 -11 143 -8.5 c 128,-1,58
 139 -6 139 -6 135 2 c 1,0,1
EndSplineSet
EndChar

StartChar: Z
Encoding: 90 90 61
Width: 390
VWidth: 512
Flags: HW
LayerCount: 2
Fore
SplineSet
115 48 m 256,0,1
 115 64 115 64 125 79 c 128,-1,2
 135 94 135 94 147 108 c 128,-1,3
 159 122 159 122 169 136 c 128,-1,4
 179 150 179 150 179 164 c 2,5,-1
 179 166 l 1,6,7
 179 168 179 168 176.5 173 c 128,-1,8
 174 178 174 178 173 179 c 1,9,10
 171 179 171 179 168 179 c 128,-1,11
 165 179 165 179 161.5 179.5 c 128,-1,12
 158 180 158 180 155 180 c 128,-1,13
 152 180 152 180 150 180 c 0,14,15
 130 180 130 180 112 176 c 128,-1,16
 94 172 94 172 73 172 c 1,17,18
 73 182 73 182 76.5 191.5 c 128,-1,19
 80 201 80 201 90 205 c 1,20,21
 112 212 112 212 131 215 c 128,-1,22
 150 218 150 218 166 220 c 128,-1,23
 182 222 182 222 195 226 c 128,-1,24
 208 230 208 230 218 239 c 128,-1,25
 228 248 228 248 234 263 c 128,-1,26
 240 278 240 278 242 304 c 1,27,28
 242 328 242 328 230 345 c 128,-1,29
 218 362 218 362 200 372 c 128,-1,30
 182 382 182 382 161 386 c 128,-1,31
 140 390 140 390 120 390 c 0,32,33
 104 390 104 390 90 386 c 128,-1,34
 76 382 76 382 64 377 c 128,-1,35
 52 372 52 372 40.5 368 c 128,-1,36
 29 364 29 364 18 364 c 0,37,38
 17 364 17 364 14.5 367 c 128,-1,39
 12 370 12 370 12 371 c 1,40,-1
 12 374 l 2,41,42
 12 391 12 391 23 401 c 128,-1,43
 34 411 34 411 50 416 c 128,-1,44
 66 421 66 421 83 422 c 128,-1,45
 100 423 100 423 110 423 c 0,46,47
 141 423 141 423 170.5 417.5 c 128,-1,48
 200 412 200 412 223 398 c 128,-1,49
 246 384 246 384 260 360 c 128,-1,50
 274 336 274 336 274 300 c 0,51,52
 274 290 274 290 272 282 c 128,-1,53
 270 274 270 274 268 267.5 c 128,-1,54
 266 261 266 261 264 253.5 c 128,-1,55
 262 246 262 246 262 237 c 0,56,57
 262 233 262 233 269 231.5 c 128,-1,58
 276 230 276 230 286 229 c 128,-1,59
 296 228 296 228 308 227 c 128,-1,60
 320 226 320 226 330 224 c 128,-1,61
 340 222 340 222 346.5 218.5 c 128,-1,62
 353 215 353 215 353 208 c 0,63,64
 352.5 207 l 0,65,66
 352 206 352 206 352 205 c 0,67,68
 348 203 348 203 342 199.5 c 128,-1,69
 336 196 336 196 329 193 c 128,-1,70
 322 190 322 190 315.5 188 c 128,-1,71
 309 186 309 186 304 186 c 0,72,73
 302 186 302 186 300 187 c 128,-1,74
 298 188 298 188 296.5 189 c 128,-1,75
 295 190 295 190 293.5 191 c 128,-1,76
 292 192 292 192 289 192 c 0,77,78
 263 192 263 192 244 179 c 128,-1,79
 225 166 225 166 210.5 147 c 128,-1,80
 196 128 196 128 184 105.5 c 128,-1,81
 172 83 172 83 160 64 c 1,82,83
 160 63 160 63 159.5 59.5 c 128,-1,84
 159 56 159 56 159 54 c 0,85,86
 159 43 159 43 163.5 40.5 c 128,-1,87
 168 38 168 38 178 38 c 0,88,89
 202 38 202 38 225.5 43 c 128,-1,90
 249 48 249 48 272.5 54 c 128,-1,91
 296 60 296 60 319 65.5 c 128,-1,92
 342 71 342 71 365 71 c 0,93,94
 373 71 373 71 375.5 66.5 c 128,-1,95
 378 62 378 62 378 54 c 128,-1,96
 378 46 378 46 376.5 41 c 128,-1,97
 375 36 375 36 365 32 c 0,98,99
 323 17 323 17 279.5 8.5 c 128,-1,100
 236 0 236 0 192 -0 c 0,101,102
 190 0 190 0 183 0 c 128,-1,103
 176 -0 176 -0 169 0 c 128,-1,104
 162 0 162 0 156 0 c 128,-1,105
 150 0 150 0 148 0 c 1,106,107
 132 5 132 5 123.5 18.5 c 128,-1,108
 115 32 115 32 115 48 c 256,0,1
EndSplineSet
EndChar

StartChar: bracketleft
Encoding: 91 91 62
Width: 326
VWidth: 512
Flags: HW
LayerCount: 2
Fore
SplineSet
13 384 m 1,0,-1
 13 387 l 2,1,2
 13 394 13 394 16.5 400 c 128,-1,3
 20 406 20 406 26 410 c 1,4,5
 55 422 55 422 90 434 c 128,-1,6
 125 446 125 446 162 456.5 c 128,-1,7
 199 467 199 467 235.5 473.5 c 128,-1,8
 272 480 272 480 304 480 c 2,9,-1
 307 480 l 1,10,11
 308 479 308 479 310.5 474.5 c 128,-1,12
 313 470 313 470 314 468 c 1,13,-1
 314 464 l 1,14,-1
 314 461 l 1,15,16
 313 460 313 460 310.5 457.5 c 0,17,18
 308 454 308 454 307 454 c 0,19,20
 279 448 279 448 247.5 441 c 128,-1,21
 216 434 216 434 185 425 c 128,-1,22
 154 416 154 416 123 406 c 128,-1,23
 92 396 92 396 64 384 c 1,24,-1
 58 384 l 1,25,26
 58 378 58 378 60.5 365.5 c 128,-1,27
 63 353 63 353 66.5 339.5 c 128,-1,28
 70 326 70 326 74.5 313.5 c 0,29,30
 80 300 80 300 84 294 c 1,31,32
 98 206 98 206 104.5 147 c 128,-1,33
 111 88 111 88 115.5 53 c 128,-1,34
 120 18 120 18 124 2.5 c 128,-1,35
 128 -13 128 -13 137 -13 c 0,36,37
 176 -13 176 -13 214 -9.5 c 128,-1,38
 252 -6 252 -6 292 -6 c 0,39,40
 295 -6 295 -6 303.5 -6 c 128,-1,41
 312 -6 312 -6 322 -6 c 128,-1,42
 332 -6 332 -6 340.5 -6 c 0,43,44
 348 -6 348 -6 352 -6 c 1,45,46
 358 -11 358 -11 365 -19 c 128,-1,47
 372 -27 372 -27 372 -36 c 0,48,-1
 371.5 -36.5 l 0,49,-1
 371 -38 l 2,50,-1
 371 -38 l 1,51,52
 370 -39 370 -39 365 -41.5 c 128,-1,53
 360 -44 360 -44 358 -44 c 1,54,55
 338 -44 338 -44 310.5 -44 c 128,-1,56
 283 -44 283 -44 253 -44 c 128,-1,57
 223 -44 223 -44 195 -46 c 0,58,59
 168 -48 168 -48 148 -51 c 0,60,61
 146 -51 146 -51 142.5 -52 c 128,-1,62
 139 -53 139 -53 135 -54 c 128,-1,63
 131 -55 131 -55 127.5 -56 c 0,64,65
 124 -58 124 -58 122 -58 c 0,66,67
 121 -58 121 -58 118.5 -59 c 128,-1,68
 116 -60 116 -60 112.5 -61 c 128,-1,69
 109 -62 109 -62 106 -63 c 0,70,-1
 102 -64 l 256,71,-1
 100 -61.5 l 0,72,73
 98 -60 98 -60 96 -58 c 128,-1,74
 94 -56 94 -56 92 -48 c 128,-1,75
 90 -40 90 -40 90 -38 c 128,-1,76
 90 -36 90 -36 89 -27.5 c 128,-1,77
 88 -19 88 -19 87.5 -7.5 c 128,-1,78
 87 4 87 4 86.5 16 c 128,-1,79
 86 28 86 28 85 39.5 c 128,-1,80
 84 51 84 51 84 59.5 c 128,-1,81
 84 68 84 68 84 70 c 0,82,83
 84 74 84 74 82 84 c 128,-1,84
 80 94 80 94 77.5 109 c 128,-1,85
 75 124 75 124 72.5 140.5 c 128,-1,86
 70 157 70 157 67 173 c 128,-1,87
 64 189 64 189 62 202.5 c 128,-1,88
 60 216 60 216 58 224 c 0,89,-1
 57 227 l 0,90,91
 56 230 56 230 54.5 233 c 128,-1,92
 53 236 53 236 52 239 c 128,-1,93
 51 242 51 242 51 243 c 2,94,-1
 51 250 l 1,95,-1
 13 384 l 1,0,-1
EndSplineSet
EndChar

StartChar: backslash
Encoding: 92 92 63
Width: 294
VWidth: 512
Flags: HW
LayerCount: 2
Fore
SplineSet
224 58 m 1,0,1
 218 66 218 66 205 82 c 128,-1,2
 192 98 192 98 175.5 119 c 128,-1,3
 159 140 159 140 140.5 163 c 128,-1,4
 122 186 122 186 106 207 c 128,-1,5
 90 228 90 228 77 244.5 c 128,-1,6
 64 261 64 261 58 269 c 0,7,8
 55 273 55 273 46.5 284 c 128,-1,9
 38 295 38 295 29 309 c 128,-1,10
 20 323 20 323 13 337.5 c 128,-1,11
 6 352 6 352 6 362 c 0,12,13
 6 368 6 368 11 370 c 128,-1,14
 16 372 16 372 20 372 c 0,15,16
 21 372 21 372 32.5 359.5 c 128,-1,17
 44 347 44 347 62.5 326.5 c 128,-1,18
 81 306 81 306 104.5 279.5 c 128,-1,19
 128 253 128 253 152.5 224 c 128,-1,20
 177 195 177 195 200.5 165.5 c 128,-1,21
 224 136 224 136 242 110 c 128,-1,22
 260 84 260 84 271 63 c 128,-1,23
 282 42 282 42 282 31 c 0,24,25
 282 27 282 27 280 21.5 c 128,-1,26
 278 16 278 16 275 11 c 128,-1,27
 272 6 272 6 267 2.5 c 128,-1,28
 262 -1 262 -1 256 0 c 0,29,30
 244 2 244 2 240 9 c 128,-1,31
 236 16 236 16 234 24 c 128,-1,32
 232 32 232 32 231 41 c 128,-1,33
 230 50 230 50 224 58 c 1,0,1
EndSplineSet
EndChar

StartChar: bracketright
Encoding: 93 93 64
Width: 294
VWidth: 512
Flags: HW
LayerCount: 2
Fore
SplineSet
44 -32 m 0,0,1
 44 -30 44 -30 44 -25 c 128,-1,2
 44 -20 44 -20 45 -19 c 1,3,-1
 58 -13 l 1,4,-1
 231 -13 l 2,5,6
 236 -13 236 -13 236.5 -8.5 c 128,-1,7
 237 -4 237 -4 237 -1 c 0,8,9
 237 32 237 32 237.5 74 c 128,-1,10
 238 116 238 116 238 162 c 128,-1,11
 238 208 238 208 236 256 c 128,-1,12
 234 304 234 304 229 348 c 128,-1,13
 224 392 224 392 215.5 431 c 0,14,15
 206 470 206 470 192 499 c 1,16,17
 183 504 183 504 166 508 c 128,-1,18
 149 512 149 512 128.5 515.5 c 128,-1,19
 108 519 108 519 86 522.5 c 128,-1,20
 64 526 64 526 46 530 c 128,-1,21
 28 534 28 534 17 540 c 128,-1,22
 6 546 6 546 6 554 c 1,23,24
 9 562 9 562 21.5 564 c 128,-1,25
 34 566 34 566 52 566 c 128,-1,26
 70 566 70 566 90.5 563 c 128,-1,27
 111 560 111 560 129.5 557.5 c 128,-1,28
 148 555 148 555 161.5 552.5 c 0,29,30
 176 550 176 550 180 550 c 1,31,32
 204 546 204 546 217 534 c 128,-1,33
 230 522 230 522 237.5 506 c 128,-1,34
 245 490 245 490 248.5 470 c 128,-1,35
 252 450 252 450 256 429 c 1,36,37
 256 416 256 416 258 392 c 128,-1,38
 260 368 260 368 261.5 337.5 c 128,-1,39
 263 307 263 307 265 271.5 c 128,-1,40
 267 236 267 236 269 199 c 128,-1,41
 271 162 271 162 273 126 c 128,-1,42
 275 90 275 90 276.5 59.5 c 128,-1,43
 278 29 278 29 279.5 5.5 c 128,-1,44
 281 -18 281 -18 282 -32 c 1,45,-1
 282 -44 l 2,46,47
 282 -49 282 -49 278.5 -52.5 c 128,-1,48
 275 -56 275 -56 270.5 -59 c 128,-1,49
 266 -62 266 -62 260 -63 c 128,-1,50
 254 -64 254 -64 250 -64 c 2,51,-1
 70 -64 l 2,52,53
 52 -64 52 -64 48 -55 c 128,-1,54
 44 -46 44 -46 44 -32 c 0,0,1
EndSplineSet
EndChar

StartChar: asciicircum
Encoding: 94 94 65
Width: 256
VWidth: 512
Flags: HW
LayerCount: 2
Fore
SplineSet
128 422 m 1,0,1
 116 406 116 406 101.5 391 c 128,-1,2
 87 376 87 376 73.5 367.5 c 128,-1,3
 60 359 60 359 49.5 361 c 0,4,5
 40 364 40 364 34 382 c 1,6,7
 53 400 53 400 65.5 410 c 128,-1,8
 78 420 78 420 87 430.5 c 128,-1,9
 96 441 96 441 102.5 455 c 128,-1,10
 109 469 109 469 115 493 c 0,11,12
 117 498 117 498 120.5 499 c 128,-1,13
 124 500 124 500 128 500 c 0,14,15
 138 500 138 500 143 495 c 128,-1,16
 148 490 148 490 154 480 c 0,17,18
 158 474 158 474 165 465.5 c 128,-1,19
 172 457 172 457 180 448.5 c 128,-1,20
 188 440 188 440 195 431.5 c 128,-1,21
 202 423 202 423 206 417 c 0,22,23
 210 409 210 409 212.5 404.5 c 128,-1,24
 215 400 215 400 216.5 397 c 128,-1,25
 218 394 218 394 218 390 c 128,-1,26
 218 386 218 386 218 379 c 0,27,28
 218 370 218 370 216.5 364 c 0,29,30
 216 358 216 358 206 358 c 128,-1,31
 196 358 196 358 187 365.5 c 128,-1,32
 178 373 178 373 169.5 383 c 128,-1,33
 161 393 161 393 150.5 403.5 c 128,-1,34
 140 414 140 414 128 422 c 1,0,1
EndSplineSet
EndChar

StartChar: underscore
Encoding: 95 95 66
Width: 448
VWidth: 512
Flags: HW
LayerCount: 2
Fore
SplineSet
19 58 m 0,0,1
 19 69 19 69 26.5 70 c 128,-1,2
 34 71 34 71 44 71 c 0,3,4
 68 71 68 71 93 65.5 c 128,-1,5
 118 60 118 60 142 58 c 1,6,-1
 148 58 l 2,7,8
 151 58 151 58 160.5 57 c 128,-1,9
 170 56 170 56 183 55.5 c 128,-1,10
 196 55 196 55 211 54.5 c 128,-1,11
 226 54 226 54 239 53 c 128,-1,12
 252 52 252 52 262 51.5 c 128,-1,13
 272 51 272 51 276 51 c 0,14,15
 279 51 279 51 288 51 c 128,-1,16
 297 51 297 51 309.5 51 c 128,-1,17
 322 51 322 51 336 51 c 128,-1,18
 350 51 350 51 363 51 c 128,-1,19
 376 51 376 51 385 51 c 128,-1,20
 394 51 394 51 398 51 c 0,21,22
 406 51 406 51 412 49 c 128,-1,23
 418 47 418 47 424 43.5 c 128,-1,24
 430 40 430 40 433 34 c 128,-1,25
 436 28 436 28 436 20 c 0,26,27
 436 13 436 13 432 6.5 c 128,-1,28
 428 0 428 0 420 0 c 0,29,30
 403 0 403 0 377 1 c 128,-1,31
 351 2 351 2 319.5 4 c 128,-1,32
 288 6 288 6 253.5 9 c 128,-1,33
 219 12 219 12 185.5 16 c 128,-1,34
 152 20 152 20 122 25 c 128,-1,35
 92 30 92 30 69 35 c 128,-1,36
 46 40 46 40 32.5 46 c 128,-1,37
 19 52 19 52 19 58 c 0,0,1
EndSplineSet
EndChar

StartChar: grave
Encoding: 96 96 67
Width: 118
VWidth: 512
Flags: HW
LayerCount: 2
Fore
SplineSet
59 366 m 1,0,1
 67 360 67 360 71.5 355.5 c 128,-1,2
 76 351 76 351 79.5 347.5 c 128,-1,3
 83 344 83 344 87.5 340 c 128,-1,4
 92 336 92 336 100 330 c 0,5,6
 102 329 102 329 104 324 c 128,-1,7
 106 319 106 319 106 317 c 0,8,9
 106 303 106 303 101 300.5 c 128,-1,10
 96 298 96 298 87 298 c 0,11,12
 86 298 86 298 83.5 298.5 c 128,-1,13
 81 299 81 299 74.5 303.5 c 128,-1,14
 68 308 68 308 57 318 c 128,-1,15
 46 328 46 328 27 346 c 1,16,17
 21 354 21 354 16.5 362 c 128,-1,18
 12 370 12 370 13.5 375 c 128,-1,19
 15 380 15 380 25 379 c 128,-1,20
 35 378 35 378 59 366 c 1,0,1
EndSplineSet
EndChar

StartChar: a
Encoding: 97 97 68
Width: 345
VWidth: 512
Flags: HW
LayerCount: 2
Fore
SplineSet
12 112 m 1,0,1
 12 124 12 124 19 139 c 128,-1,2
 26 154 26 154 38 167.5 c 128,-1,3
 50 181 50 181 69.5 192.5 c 128,-1,4
 89 204 89 204 115.5 208 c 128,-1,5
 142 212 142 212 176 208 c 128,-1,6
 210 204 210 204 251 188 c 1,7,8
 250.5 194.5 l 0,9,-1
 250 202 l 0,10,11
 250 220 250 220 240 237 c 128,-1,12
 230 254 230 254 214.5 269 c 128,-1,13
 199 284 199 284 180.5 293 c 128,-1,14
 162 302 162 302 146 302 c 0,15,16
 139 302 139 302 134 299.5 c 128,-1,17
 129 297 129 297 124.5 294.5 c 128,-1,18
 120 292 120 292 116 289.5 c 128,-1,19
 112 287 112 287 106 287 c 0,20,21
 105 288 105 288 104 288 c 256,22,23
 102 288 l 0,24,25
 100 289 100 289 98 291.5 c 0,26,-1
 96 294 l 0,27,28
 96 306 96 306 101 315 c 128,-1,29
 106 324 106 324 113 329.5 c 128,-1,30
 120 335 120 335 130 337.5 c 128,-1,31
 140 340 140 340 151 340 c 1,32,33
 178 337 178 337 202 323.5 c 128,-1,34
 226 310 226 310 246 289.5 c 128,-1,35
 266 269 266 269 282 242.5 c 128,-1,36
 298 216 298 216 308 187 c 128,-1,37
 318 158 318 158 322 128 c 128,-1,38
 326 98 326 98 322 71 c 0,39,40
 318 71.5 l 0,41,42
 314 72 314 72 310.5 72 c 128,-1,43
 307 72 307 72 303.5 72.5 c 0,44,-1
 300 73 l 1,45,46
 286 105 286 105 269 124.5 c 128,-1,47
 252 144 252 144 235 154.5 c 128,-1,48
 218 165 218 165 203 169.5 c 128,-1,49
 188 174 188 174 180 176 c 1,50,51
 170 176 170 176 156 174.5 c 128,-1,52
 142 173 142 173 127 169.5 c 128,-1,53
 112 166 112 166 97.5 161 c 128,-1,54
 83 156 83 156 71.5 148 c 128,-1,55
 60 140 60 140 52.5 128.5 c 0,56,57
 45 116 45 116 45 102 c 0,58,59
 45 86 45 86 58 75 c 128,-1,60
 71 64 71 64 88.5 57.5 c 128,-1,61
 106 51 106 51 125 48 c 128,-1,62
 144 45 144 45 156 45 c 0,63,64
 174 45 174 45 192 47 c 128,-1,65
 210 49 210 49 227.5 51.5 c 128,-1,66
 245 54 245 54 262.5 56 c 128,-1,67
 280 58 280 58 298 58 c 0,68,69
 300 58 300 58 303 58 c 128,-1,70
 306 58 306 58 309 58 c 128,-1,71
 312 58 312 58 315.5 58 c 128,-1,72
 319 58 319 58 320 58 c 0,73,74
 326 56 326 56 326.5 52 c 128,-1,75
 327 48 327 48 327 44 c 256,76,77
 327 40 327 40 318.5 35 c 128,-1,78
 310 30 310 30 297 25.5 c 128,-1,79
 284 21 284 21 267.5 16.5 c 128,-1,80
 251 12 251 12 235.5 8 c 128,-1,81
 220 4 220 4 207.5 2 c 128,-1,82
 195 0 195 0 189 0 c 0,83,84
 161 0 161 0 130 5 c 128,-1,85
 99 10 99 10 72.5 22 c 128,-1,86
 46 34 46 34 29 56 c 128,-1,87
 12 78 12 78 12 112 c 1,0,1
EndSplineSet
EndChar

StartChar: b
Encoding: 98 98 69
Width: 339
VWidth: 512
Flags: HW
LayerCount: 2
Fore
SplineSet
20 320 m 0,0,1
 16 350 16 350 11.5 370 c 128,-1,2
 7 390 7 390 7.5 404 c 128,-1,3
 8 418 8 418 16 425 c 128,-1,4
 24 432 24 432 45 435 c 1,5,6
 46 428 46 428 48 409.5 c 128,-1,7
 50 391 50 391 53 367.5 c 128,-1,8
 56 344 56 344 58.5 318 c 128,-1,9
 61 292 61 292 64 271 c 128,-1,10
 67 250 67 250 70 236 c 128,-1,11
 73 222 73 222 76 223 c 1,12,13
 88 223 88 223 100 227 c 128,-1,14
 112 231 112 231 124 231 c 0,15,16
 144 231 144 231 167 227.5 c 128,-1,17
 190 224 190 224 212.5 216 c 128,-1,18
 235 208 235 208 255.5 197 c 128,-1,19
 276 186 276 186 292 170 c 128,-1,20
 308 154 308 154 317.5 134.5 c 128,-1,21
 327 115 327 115 327 91 c 0,22,23
 327 60 327 60 311.5 42 c 128,-1,24
 296 24 296 24 273 14 c 128,-1,25
 250 4 250 4 223 2 c 128,-1,26
 196 0 196 0 171 -0 c 0,27,28
 138 0 138 0 116 8 c 128,-1,29
 94 16 94 16 80 30.5 c 128,-1,30
 66 45 66 45 58.5 64.5 c 128,-1,31
 51 84 51 84 47.5 107 c 128,-1,32
 44 130 44 130 42.5 155 c 0,33,34
 40 180 40 180 38 205 c 0,35,36
 38 209 38 209 35 226 c 128,-1,37
 32 243 32 243 29 262.5 c 128,-1,38
 26 282 26 282 23 299 c 128,-1,39
 20 316 20 316 20 320 c 0,0,1
84 145 m 1,40,41
 77 116 77 116 87 94.5 c 128,-1,42
 97 73 97 73 116.5 59.5 c 128,-1,43
 136 46 136 46 162 41 c 128,-1,44
 188 36 188 36 213 39 c 128,-1,45
 238 42 238 42 259 55 c 128,-1,46
 280 68 280 68 289 90 c 1,47,48
 289 108 289 108 280.5 122 c 128,-1,49
 272 136 272 136 259 148 c 128,-1,50
 246 160 246 160 229 168 c 128,-1,51
 212 176 212 176 194 181.5 c 128,-1,52
 176 187 176 187 159 189.5 c 128,-1,53
 142 192 142 192 128 192 c 0,54,55
 106 192 106 192 95 179.5 c 128,-1,56
 84 167 84 167 84 145 c 1,40,41
EndSplineSet
EndChar

StartChar: c
Encoding: 99 99 70
Width: 307
VWidth: 512
Flags: HW
LayerCount: 2
Fore
SplineSet
12 148 m 0,0,1
 12 178 12 178 24 206 c 128,-1,2
 36 234 36 234 55.5 255 c 128,-1,3
 75 276 75 276 101 289 c 128,-1,4
 127 302 127 302 156 302 c 0,5,6
 169 302 169 302 184.5 299 c 128,-1,7
 200 296 200 296 213 289 c 128,-1,8
 226 282 226 282 235 271 c 128,-1,9
 244 260 244 260 244 244 c 0,10,11
 244 241 244 241 242 232.5 c 128,-1,12
 240 224 240 224 237 216 c 128,-1,13
 234 208 234 208 231 202 c 128,-1,14
 228 196 228 196 224 196 c 1,15,16
 224 228 224 228 207 249 c 128,-1,17
 190 270 190 270 156 270 c 0,18,19
 130 270 130 270 111 259 c 128,-1,20
 92 248 92 248 78 231 c 128,-1,21
 64 214 64 214 57 192 c 128,-1,22
 50 170 50 170 50 148 c 0,23,24
 50 118 50 118 60.5 97 c 128,-1,25
 71 76 71 76 88.5 64 c 128,-1,26
 106 52 106 52 128.5 46 c 128,-1,27
 151 40 151 40 176 38 c 128,-1,28
 201 36 201 36 226.5 37 c 128,-1,29
 252 38 252 38 276 38 c 0,30,31
 278 38 278 38 282.5 36 c 0,32,33
 286 34 286 34 288 32 c 1,34,-1
 288 31 l 2,35,36
 288 30 288 30 288.5 29.5 c 0,37,-1
 289 28 l 0,38,39
 289 20 289 20 282 15 c 128,-1,40
 275 10 275 10 264.5 7 c 128,-1,41
 254 4 254 4 241 2.5 c 128,-1,42
 228 1 228 1 216 0.5 c 128,-1,43
 204 -0 204 -0 194 -0 c 128,-1,44
 184 0 184 0 180 -0 c 0,45,46
 142 0 142 0 111 8 c 128,-1,47
 80 16 80 16 58 34.5 c 128,-1,48
 36 53 36 53 24 81 c 128,-1,49
 12 109 12 109 12 148 c 0,0,1
EndSplineSet
EndChar

StartChar: d
Encoding: 100 100 71
Width: 358
VWidth: 512
Flags: HW
LayerCount: 2
Fore
SplineSet
12 152 m 0,0,1
 12 176 12 176 18.5 203.5 c 128,-1,2
 25 231 25 231 38.5 254 c 128,-1,3
 52 277 52 277 73.5 292.5 c 128,-1,4
 95 308 95 308 125 308 c 0,5,6
 141 308 141 308 157.5 303 c 128,-1,7
 174 298 174 298 191 289 c 128,-1,8
 208 280 208 280 226 268.5 c 0,9,10
 244 258 244 258 264 244 c 1,11,12
 266 270 266 270 262 298 c 128,-1,13
 258 326 258 326 251 353.5 c 128,-1,14
 244 381 244 381 236 405.5 c 128,-1,15
 228 430 228 430 224.5 449 c 128,-1,16
 221 468 221 468 223.5 481 c 128,-1,17
 226 494 226 494 240 498 c 1,18,19
 258 485 258 485 271 460.5 c 128,-1,20
 284 436 284 436 293 404 c 128,-1,21
 302 372 302 372 308 335 c 128,-1,22
 314 298 314 298 318 261 c 128,-1,23
 322 224 322 224 325 188.5 c 128,-1,24
 328 153 328 153 330 123.5 c 128,-1,25
 332 94 332 94 335 73 c 128,-1,26
 338 52 338 52 342 44 c 1,27,28
 342 34 342 34 334.5 31 c 0,29,30
 326 28 326 28 318 28 c 0,31,32
 311 28 311 28 307 32.5 c 128,-1,33
 303 37 303 37 300 44 c 128,-1,34
 297 51 297 51 294.5 59.5 c 128,-1,35
 292 68 292 68 290 75 c 128,-1,36
 288 82 288 82 284 86.5 c 128,-1,37
 280 91 280 91 276 91 c 0,38,39
 275 91 275 91 272.5 90.5 c 128,-1,40
 270 90 270 90 269 90 c 0,41,42
 257 72 257 72 239.5 56 c 128,-1,43
 222 40 222 40 202 27 c 128,-1,44
 182 14 182 14 160 7 c 128,-1,45
 138 0 138 0 115 0 c 0,46,47
 89 0 89 0 70.5 16.5 c 128,-1,48
 52 33 52 33 39 56.5 c 128,-1,49
 26 80 26 80 19 106 c 128,-1,50
 12 132 12 132 12 152 c 0,0,1
54 140 m 1,51,52
 60 116 60 116 66 98 c 128,-1,53
 72 80 72 80 79 68 c 128,-1,54
 86 56 86 56 97 50.5 c 128,-1,55
 108 45 108 45 125 45 c 0,56,57
 147 45 147 45 171 57.5 c 128,-1,58
 195 70 195 70 215.5 89 c 128,-1,59
 236 108 236 108 249.5 131.5 c 128,-1,60
 263 155 263 155 263 176 c 0,61,62
 263 178 263 178 262.5 184 c 128,-1,63
 262 190 262 190 262 192 c 1,64,65
 226 226 226 226 197 241 c 128,-1,66
 168 256 168 256 144.5 257 c 128,-1,67
 121 258 121 258 103.5 247 c 128,-1,68
 86 236 86 236 75 218.5 c 128,-1,69
 64 201 64 201 59 180.5 c 128,-1,70
 54 160 54 160 54 140 c 1,51,52
EndSplineSet
EndChar

StartChar: e
Encoding: 101 101 72
Width: 352
VWidth: 512
Flags: HW
LayerCount: 2
Fore
SplineSet
12 178 m 0,0,1
 12 212 12 212 22.5 244 c 128,-1,2
 33 276 33 276 52.5 300 c 128,-1,3
 72 324 72 324 101 338.5 c 128,-1,4
 130 353 130 353 166 353 c 1,5,6
 188 350 188 350 204.5 341 c 128,-1,7
 221 332 221 332 231.5 318 c 128,-1,8
 242 304 242 304 247 286.5 c 128,-1,9
 252 269 252 269 251 249 c 1,10,11
 251 225 251 225 236.5 205.5 c 128,-1,12
 222 186 222 186 201 173 c 128,-1,13
 180 160 180 160 155 153 c 128,-1,14
 130 146 130 146 109 146 c 0,15,16
 101 146 101 146 92.5 146.5 c 128,-1,17
 84 147 84 147 78 149.5 c 128,-1,18
 72 152 72 152 68 157.5 c 0,19,20
 64 164 64 164 64 174 c 0,21,22
 64 178 64 178 65 180 c 128,-1,23
 66 182 66 182 70 183 c 128,-1,24
 74 184 74 184 83 183 c 128,-1,25
 92 182 92 182 109 179 c 1,26,27
 118 179 118 179 136 185.5 c 128,-1,28
 154 192 154 192 172 202 c 128,-1,29
 190 212 190 212 204 224.5 c 128,-1,30
 218 237 218 237 218 250 c 256,31,32
 218 263 218 263 213 276 c 128,-1,33
 208 289 208 289 200 299 c 128,-1,34
 192 309 192 309 180 315 c 128,-1,35
 168 321 168 321 154 320 c 0,36,37
 130 318 130 318 111 307 c 128,-1,38
 92 296 92 296 78.5 279.5 c 128,-1,39
 65 263 65 263 57.5 242 c 128,-1,40
 50 221 50 221 50 199 c 0,41,42
 50 182 50 182 51 164 c 128,-1,43
 52 146 52 146 56 129.5 c 128,-1,44
 60 113 60 113 70 98 c 128,-1,45
 80 83 80 83 98 71.5 c 128,-1,46
 116 60 116 60 144 52 c 128,-1,47
 172 44 172 44 214 42 c 1,48,-1
 333 50 l 1,49,50
 322 36 322 36 306 26 c 128,-1,51
 290 16 290 16 272 10.5 c 128,-1,52
 254 5 254 5 235.5 2.5 c 0,53,54
 218 0 218 0 202 0 c 0,55,56
 164 0 164 0 129 12.5 c 128,-1,57
 94 25 94 25 68.5 48.5 c 128,-1,58
 43 72 43 72 27.5 104.5 c 128,-1,59
 12 137 12 137 12 178 c 0,0,1
EndSplineSet
EndChar

StartChar: f
Encoding: 102 102 73
Width: 257
VWidth: 512
Flags: HW
LayerCount: 2
Fore
SplineSet
225 212 m 1,0,1
 240 212 240 212 238 198 c 1,2,3
 244 190 244 190 237.5 184.5 c 128,-1,4
 231 179 231 179 216.5 175.5 c 128,-1,5
 202 172 202 172 180 173 c 128,-1,6
 158 174 158 174 132 179 c 1,7,8
 132 153 132 153 143.5 131.5 c 128,-1,9
 155 110 155 110 169 90 c 128,-1,10
 183 70 183 70 194.5 51 c 128,-1,11
 206 32 206 32 206 13 c 0,12,13
 206 5 206 5 201 2.5 c 128,-1,14
 196 0 196 0 189 -0 c 0,15,16
 182 0 182 0 175 5 c 128,-1,17
 168 10 168 10 161 17 c 128,-1,18
 154 24 154 24 149 32 c 128,-1,19
 144 40 144 40 142 45 c 0,20,21
 140 50 140 50 134.5 60 c 128,-1,22
 129 70 129 70 122.5 83.5 c 128,-1,23
 116 97 116 97 109 111.5 c 128,-1,24
 102 126 102 126 96 139 c 128,-1,25
 90 152 90 152 85 163 c 128,-1,26
 80 174 80 174 78 179 c 1,27,-1
 71 186 l 1,28,29
 67 185 67 185 58.5 183.5 c 128,-1,30
 50 182 50 182 39.5 179.5 c 128,-1,31
 29 177 29 177 19.5 175.5 c 128,-1,32
 10 174 10 174 7 173 c 1,33,-1
 4 173 l 2,34,35
 -2 173 -2 173 -4 176.5 c 128,-1,36
 -6 180 -6 180 -6 186 c 0,37,38
 -6 198 -6 198 2 204 c 128,-1,39
 10 210 10 210 21 212.5 c 128,-1,40
 32 215 32 215 44.5 215.5 c 128,-1,41
 57 216 57 216 65 218 c 1,42,43
 63 238 63 238 63 265 c 128,-1,44
 63 292 63 292 66 321 c 128,-1,45
 69 350 69 350 76.5 379 c 128,-1,46
 84 408 84 408 98.5 430 c 128,-1,47
 113 452 113 452 135.5 466 c 128,-1,48
 158 480 158 480 190 480 c 0,49,50
 208 480 208 480 229 471 c 128,-1,51
 250 462 250 462 268 447.5 c 128,-1,52
 286 433 286 433 298.5 414.5 c 128,-1,53
 311 396 311 396 311 378 c 1,54,-1
 296 378 l 2,55,56
 283 378 283 378 272 388 c 128,-1,57
 261 398 261 398 250 410 c 128,-1,58
 239 422 239 422 226.5 432 c 128,-1,59
 214 442 214 442 197 442 c 0,60,61
 175 442 175 442 156.5 432 c 128,-1,62
 138 422 138 422 124.5 406 c 128,-1,63
 111 390 111 390 104 369 c 128,-1,64
 97 348 97 348 97 326 c 2,65,-1
 97 320 l 1,66,-1
 110 224 l 1,67,68
 112 223 112 223 117.5 222.5 c 128,-1,69
 123 222 123 222 135.5 220 c 128,-1,70
 148 218 148 218 170 216 c 128,-1,71
 192 214 192 214 225 212 c 1,0,1
EndSplineSet
EndChar

StartChar: g
Encoding: 103 103 74
Width: 250
VWidth: 512
Flags: HW
LayerCount: 2
Fore
SplineSet
-90 -186 m 1,0,1
 -92 -177 -92 -177 -89 -169.5 c 128,-1,2
 -86 -162 -86 -162 -81 -157 c 128,-1,3
 -76 -152 -76 -152 -69 -151 c 128,-1,4
 -62 -150 -62 -150 -58 -153 c 128,-1,5
 -54 -156 -54 -156 -53 -164 c 128,-1,6
 -52 -172 -52 -172 -58 -186 c 1,7,8
 -58 -201 -58 -201 -45 -214.5 c 128,-1,9
 -32 -228 -32 -228 -13 -239.5 c 128,-1,10
 6 -251 6 -251 29.5 -260.5 c 128,-1,11
 53 -270 53 -270 75 -276 c 128,-1,12
 97 -282 97 -282 114.5 -286 c 128,-1,13
 132 -290 132 -290 139 -290 c 0,14,15
 155 -290 155 -290 167 -281 c 128,-1,16
 179 -272 179 -272 187.5 -258 c 128,-1,17
 196 -244 196 -244 200.5 -226 c 128,-1,18
 205 -208 205 -208 207.5 -190.5 c 128,-1,19
 210 -173 210 -173 211 -156.5 c 128,-1,20
 212 -140 212 -140 212 -128 c 0,21,22
 212 -123 212 -123 211 -108.5 c 128,-1,23
 210 -94 210 -94 208 -76 c 128,-1,24
 206 -58 206 -58 203 -37.5 c 128,-1,25
 200 -17 200 -17 197 0 c 128,-1,26
 194 17 194 17 190 28 c 128,-1,27
 186 39 186 39 182 39 c 0,28,29
 175 39 175 39 166.5 35 c 128,-1,30
 158 31 158 31 148.5 26 c 128,-1,31
 139 21 139 21 128.5 17 c 128,-1,32
 118 13 118 13 109 13 c 0,33,34
 90 13 90 13 72.5 21 c 128,-1,35
 55 29 55 29 41.5 42 c 128,-1,36
 28 55 28 55 20 72.5 c 128,-1,37
 12 90 12 90 12 108 c 0,38,39
 12 138 12 138 24 168.5 c 128,-1,40
 36 199 36 199 56 224.5 c 128,-1,41
 76 250 76 250 104 266 c 128,-1,42
 132 282 132 282 164 282 c 1,43,44
 188 276 188 276 202.5 252 c 128,-1,45
 217 228 217 228 225.5 193 c 128,-1,46
 234 158 234 158 237.5 115.5 c 128,-1,47
 241 73 241 73 242.5 29 c 128,-1,48
 244 -15 244 -15 245 -57.5 c 128,-1,49
 246 -100 246 -100 250 -134 c 1,50,51
 250 -150 250 -150 248.5 -171 c 128,-1,52
 247 -192 247 -192 243 -214 c 128,-1,53
 239 -236 239 -236 231.5 -257 c 128,-1,54
 224 -278 224 -278 213 -295 c 128,-1,55
 202 -312 202 -312 186 -323 c 128,-1,56
 170 -334 170 -334 148 -334 c 0,57,58
 131 -334 131 -334 106.5 -329.5 c 128,-1,59
 82 -325 82 -325 56 -316.5 c 128,-1,60
 30 -308 30 -308 4 -295.5 c 128,-1,61
 -22 -283 -22 -283 -43 -266.5 c 128,-1,62
 -64 -250 -64 -250 -77 -230 c 128,-1,63
 -90 -210 -90 -210 -90 -186 c 1,0,1
50 120 m 0,64,65
 50 108 50 108 54 97 c 128,-1,66
 58 86 58 86 65 77 c 128,-1,67
 72 68 72 68 82 63 c 128,-1,68
 92 58 92 58 106 58 c 0,69,70
 140 58 140 58 157 71 c 128,-1,71
 174 84 174 84 181 104 c 128,-1,72
 188 124 188 124 188 147 c 128,-1,73
 188 170 188 170 186 189 c 1,74,75
 186 198 186 198 185 207.5 c 128,-1,76
 184 217 184 217 180 225 c 128,-1,77
 176 233 176 233 169 238 c 128,-1,78
 162 243 162 243 150 243 c 0,79,80
 128 243 128 243 110 230.5 c 128,-1,81
 92 218 92 218 78.5 199.5 c 128,-1,82
 65 181 65 181 57.5 159.5 c 128,-1,83
 50 138 50 138 50 120 c 0,64,65
EndSplineSet
EndChar

StartChar: h
Encoding: 104 104 75
Width: 292
VWidth: 512
Flags: HW
LayerCount: 2
Fore
SplineSet
219 12 m 1,0,1
 221 29 221 29 222 47.5 c 128,-1,2
 223 66 223 66 223.5 85 c 128,-1,3
 224 104 224 104 224.5 122 c 128,-1,4
 225 140 225 140 225 155 c 0,5,6
 225 177 225 177 219.5 196 c 128,-1,7
 214 215 214 215 202 229.5 c 128,-1,8
 190 244 190 244 173 252 c 128,-1,9
 156 260 156 260 134 260 c 0,10,11
 124 260 124 260 117 259 c 128,-1,12
 110 258 110 258 103.5 255 c 128,-1,13
 97 252 97 252 89.5 247 c 128,-1,14
 82 242 82 242 71 234 c 1,15,16
 71 233 71 233 70.5 229.5 c 128,-1,17
 70 226 70 226 70 224 c 0,18,19
 70 209 70 209 73 185 c 128,-1,20
 76 161 76 161 79.5 134.5 c 128,-1,21
 83 108 83 108 86 84 c 128,-1,22
 89 60 89 60 89 44 c 0,23,24
 89 42 89 42 89 38 c 128,-1,25
 89 34 89 34 88.5 30 c 128,-1,26
 88 26 88 26 88 21.5 c 0,27,28
 88 18 88 18 88 16 c 1,29,30
 84 6 84 6 79 4 c 128,-1,31
 74 2 74 2 66 2 c 1,32,33
 58 0 58 0 54 13 c 128,-1,34
 50 26 50 26 48 50 c 128,-1,35
 46 74 46 74 44 107.5 c 128,-1,36
 42 141 42 141 39 181.5 c 128,-1,37
 36 222 36 222 30 268 c 128,-1,38
 24 314 24 314 14 362 c 1,39,40
 8 381 8 381 5 393.5 c 128,-1,41
 2 406 2 406 0 417 c 128,-1,42
 -2 428 -2 428 -4 438.5 c 0,43,44
 -6 448 -6 448 -10 464 c 1,45,-1
 -10 468 l 2,46,47
 -10 471 -10 471 -6.5 473 c 128,-1,48
 -3 475 -3 475 1.5 476.5 c 128,-1,49
 6 478 6 478 10.5 479 c 0,50,51
 16 480 16 480 18 480 c 1,52,53
 30 446 30 446 38 423.5 c 128,-1,54
 46 401 46 401 50.5 384.5 c 128,-1,55
 55 368 55 368 56.5 356.5 c 128,-1,56
 58 345 58 345 59.5 334.5 c 128,-1,57
 61 324 61 324 61.5 312.5 c 128,-1,58
 62 301 62 301 64 285 c 1,59,60
 99 306 99 306 127.5 308.5 c 128,-1,61
 156 311 156 311 178 300.5 c 128,-1,62
 200 290 200 290 216 269 c 128,-1,63
 232 248 232 248 243 221 c 128,-1,64
 254 194 254 194 260 164 c 128,-1,65
 266 134 266 134 267 106 c 128,-1,66
 268 78 268 78 265.5 54 c 128,-1,67
 263 30 263 30 256.5 16 c 128,-1,68
 250 2 250 2 240.5 0 c 128,-1,69
 231 -2 231 -2 219 12 c 1,0,1
EndSplineSet
EndChar

StartChar: i
Encoding: 105 105 76
Width: 119
VWidth: 512
Flags: HW
LayerCount: 2
Fore
SplineSet
42 230 m 0,0,1
 42 233 42 233 42 240.5 c 128,-1,2
 42 248 42 248 42 256 c 128,-1,3
 42 264 42 264 42 271 c 128,-1,4
 42 278 42 278 42 282 c 0,5,6
 39 302 39 302 55 302 c 0,7,8
 62 302 62 302 66.5 299 c 128,-1,9
 71 296 71 296 75 288 c 1,10,11
 73 253 73 253 77.5 221 c 128,-1,12
 82 189 82 189 89 157.5 c 128,-1,13
 96 126 96 126 101.5 94 c 128,-1,14
 107 62 107 62 107 28 c 0,15,16
 107 19 107 19 101.5 9.5 c 128,-1,17
 96 0 96 0 84 -0 c 0,18,19
 76 0 76 0 69 15 c 128,-1,20
 62 30 62 30 58 53 c 128,-1,21
 54 76 54 76 50.5 104 c 128,-1,22
 47 132 47 132 45.5 157 c 128,-1,23
 44 182 44 182 43 202 c 128,-1,24
 42 222 42 222 42 230 c 0,0,1
8 398 m 0,25,26
 8 406 8 406 12.5 408.5 c 0,27,28
 16 411 16 411 24 411 c 1,29,30
 28 411 28 411 36 405 c 128,-1,31
 44 399 44 399 49.5 391 c 128,-1,32
 55 383 55 383 55.5 375.5 c 128,-1,33
 56 368 56 368 46 367 c 1,34,-1
 42 367 l 2,35,36
 32 367 32 367 25.5 368 c 128,-1,37
 19 369 19 369 15.5 372.5 c 128,-1,38
 12 376 12 376 10 382 c 128,-1,39
 8 388 8 388 8 398 c 0,25,26
EndSplineSet
EndChar

StartChar: j
Encoding: 106 106 77
Width: 137
VWidth: 512
Flags: HW
LayerCount: 2
Fore
SplineSet
98 -306 m 1,0,1
 66 -298 66 -298 36 -278 c 128,-1,2
 6 -258 6 -258 -17 -230 c 128,-1,3
 -40 -202 -40 -202 -55.5 -169 c 128,-1,4
 -71 -136 -71 -136 -75 -102 c 1,5,6
 -75 -98 -75 -98 -75.5 -93.5 c 128,-1,7
 -76 -89 -76 -89 -75 -85 c 128,-1,8
 -74 -81 -74 -81 -71 -77.5 c 128,-1,9
 -68 -74 -68 -74 -62 -73 c 1,10,11
 -54 -77 -54 -77 -46 -92 c 128,-1,12
 -38 -107 -38 -107 -28.5 -126.5 c 128,-1,13
 -19 -146 -19 -146 -8 -168 c 128,-1,14
 3 -190 3 -190 17 -208.5 c 128,-1,15
 31 -227 31 -227 48.5 -239 c 128,-1,16
 66 -251 66 -251 90 -251 c 0,17,18
 98 -251 98 -251 102 -247 c 128,-1,19
 106 -243 106 -243 109 -237.5 c 128,-1,20
 112 -232 112 -232 113 -225 c 128,-1,21
 114 -218 114 -218 114 -212 c 0,22,23
 116 -153 116 -153 109 -95 c 128,-1,24
 102 -37 102 -37 91.5 21 c 128,-1,25
 81 79 81 79 70 136.5 c 128,-1,26
 59 194 59 194 54 251 c 1,27,28
 55 255 55 255 55.5 258.5 c 128,-1,29
 56 262 56 262 57 264 c 128,-1,30
 58 266 58 266 62 267.5 c 128,-1,31
 66 269 66 269 73 269 c 1,32,33
 79 265 79 265 87.5 245.5 c 128,-1,34
 96 226 96 226 104 196 c 128,-1,35
 112 166 112 166 120 128 c 128,-1,36
 128 90 128 90 134 48 c 128,-1,37
 140 6 140 6 145 -38 c 128,-1,38
 150 -82 150 -82 152 -122 c 128,-1,39
 154 -162 154 -162 152 -197.5 c 128,-1,40
 150 -233 150 -233 144 -258.5 c 128,-1,41
 138 -284 138 -284 127 -297 c 128,-1,42
 116 -310 116 -310 98 -306 c 1,0,1
20 385 m 0,43,44
 20 387 20 387 25 392 c 128,-1,45
 30 397 30 397 32 398 c 0,46,47
 42 400 42 400 48.5 396 c 128,-1,48
 55 392 55 392 59 384.5 c 128,-1,49
 63 377 63 377 64.5 368.5 c 128,-1,50
 66 360 66 360 66 354 c 1,51,52
 58 347 58 347 50 346.5 c 128,-1,53
 42 346 42 346 35 350 c 128,-1,54
 28 354 28 354 24 363.5 c 128,-1,55
 20 373 20 373 20 385 c 0,43,44
EndSplineSet
EndChar

StartChar: k
Encoding: 107 107 78
Width: 275
VWidth: 512
Flags: HW
LayerCount: 2
Fore
SplineSet
33 20 m 0,0,1
 33 22 33 22 34 27 c 128,-1,2
 35 32 35 32 36 38.5 c 128,-1,3
 37 45 37 45 38 50.5 c 128,-1,4
 39 56 39 56 39 58 c 0,5,6
 39 59 39 59 39 64.5 c 128,-1,7
 39 70 39 70 39.5 78 c 128,-1,8
 40 86 40 86 40 93.5 c 0,9,10
 40 102 40 102 40 106 c 128,-1,11
 40 110 40 110 40 116.5 c 128,-1,12
 40 123 40 123 39.5 129.5 c 128,-1,13
 39 136 39 136 39 141 c 128,-1,14
 39 146 39 146 39 148 c 0,15,16
 37 178 37 178 31.5 212 c 128,-1,17
 26 246 26 246 19 280.5 c 128,-1,18
 12 315 12 315 6.5 347.5 c 0,19,20
 0 380 0 380 -2 408 c 1,21,22
 4 424 4 424 11.5 418.5 c 128,-1,23
 19 413 19 413 26.5 394.5 c 128,-1,24
 34 376 34 376 41 348 c 128,-1,25
 48 320 48 320 54 292 c 128,-1,26
 60 264 60 264 64 238 c 128,-1,27
 68 212 68 212 71 198 c 1,28,29
 72 197 72 197 76 197 c 0,30,-1
 80 197 l 0,31,32
 93 197 93 197 103.5 205.5 c 128,-1,33
 114 214 114 214 123 226 c 128,-1,34
 132 238 132 238 140.5 252 c 128,-1,35
 149 266 149 266 158.5 278.5 c 128,-1,36
 168 291 168 291 179 299.5 c 128,-1,37
 190 308 190 308 206 308 c 0,38,39
 215 308 215 308 217 302 c 128,-1,40
 219 296 219 296 218 288 c 1,41,42
 209 280 209 280 196.5 269 c 128,-1,43
 184 258 184 258 170.5 244 c 128,-1,44
 157 230 157 230 143.5 214.5 c 128,-1,45
 130 199 130 199 119.5 184.5 c 128,-1,46
 109 170 109 170 102.5 157 c 128,-1,47
 96 144 96 144 96 134 c 0,48,49
 96 120 96 120 105 107 c 128,-1,50
 114 94 114 94 129 84.5 c 128,-1,51
 144 75 144 75 163 67.5 c 128,-1,52
 182 60 182 60 201 55 c 128,-1,53
 220 50 220 50 236 48 c 128,-1,54
 252 46 252 46 263 45 c 1,55,56
 269 43 269 43 269.5 38.5 c 128,-1,57
 270 34 270 34 270 28 c 0,58,59
 270 18 270 18 264 13.5 c 128,-1,60
 258 9 258 9 249 7 c 128,-1,61
 240 5 240 5 230 5.5 c 128,-1,62
 220 6 220 6 213 6 c 0,63,64
 198 6 198 6 179 15 c 128,-1,65
 160 24 160 24 143 35 c 128,-1,66
 126 46 126 46 112 55 c 128,-1,67
 98 64 98 64 93 64 c 0,68,69
 83 64 83 64 79.5 54 c 128,-1,70
 76 44 76 44 74 32 c 128,-1,71
 72 20 72 20 69 10 c 128,-1,72
 66 0 66 0 56 -0 c 0,73,74
 48 0 48 0 40.5 5 c 128,-1,75
 33 10 33 10 33 20 c 0,0,1
EndSplineSet
EndChar

StartChar: l
Encoding: 108 108 79
Width: 82
VWidth: 512
Flags: HW
LayerCount: 2
Fore
SplineSet
28 5 m 1,0,1
 21 53 21 53 19 100 c 128,-1,2
 17 147 17 147 17.5 194 c 128,-1,3
 18 241 18 241 19 287.5 c 128,-1,4
 20 334 20 334 20 382 c 0,5,6
 20 388 20 388 24 389.5 c 128,-1,7
 28 391 28 391 32 391 c 0,8,9
 38 391 38 391 43 386.5 c 128,-1,10
 48 382 48 382 51 376 c 128,-1,11
 54 370 54 370 56 363 c 128,-1,12
 58 356 58 356 58 352 c 0,13,14
 62 256 62 256 63 193 c 128,-1,15
 64 130 64 130 63 91 c 128,-1,16
 62 52 62 52 59 33 c 128,-1,17
 56 14 56 14 51 7.5 c 128,-1,18
 46 1 46 1 40.5 2 c 128,-1,19
 35 3 35 3 28 5 c 1,0,1
EndSplineSet
EndChar

StartChar: m
Encoding: 109 109 80
Width: 512
VWidth: 512
Flags: HW
LayerCount: 2
Fore
SplineSet
448 24 m 0,0,1
 448 26 448 26 448 29 c 128,-1,2
 448 32 448 32 448 35.5 c 128,-1,3
 448 39 448 39 448 41.5 c 128,-1,4
 448 44 448 44 448 45 c 0,5,6
 448 47 448 47 449 56.5 c 128,-1,7
 450 66 450 66 451.5 77 c 128,-1,8
 453 88 453 88 453.5 97 c 128,-1,9
 454 106 454 106 454 109 c 0,10,11
 453 123 453 123 448.5 145.5 c 128,-1,12
 444 168 444 168 434 190 c 128,-1,13
 424 212 424 212 410 228 c 128,-1,14
 396 244 396 244 376 244 c 0,15,16
 358 244 358 244 338 235.5 c 128,-1,17
 318 227 318 227 301 212.5 c 128,-1,18
 284 198 284 198 273 179 c 128,-1,19
 262 160 262 160 262 141 c 0,20,21
 262 131 262 131 265 121.5 c 128,-1,22
 268 112 268 112 272 102.5 c 128,-1,23
 276 93 276 93 279 83.5 c 128,-1,24
 282 74 282 74 282 63 c 0,25,26
 282 55 282 55 279 46.5 c 128,-1,27
 276 38 276 38 266 38 c 0,28,29
 254 38 254 38 246 52.5 c 128,-1,30
 238 67 238 67 231.5 88.5 c 128,-1,31
 225 110 225 110 218.5 135 c 128,-1,32
 212 160 212 160 201.5 181 c 128,-1,33
 191 202 191 202 175.5 216.5 c 128,-1,34
 160 231 160 231 138 231 c 0,35,36
 120 231 120 231 106 223.5 c 128,-1,37
 92 216 92 216 82.5 203 c 128,-1,38
 73 190 73 190 68.5 174 c 128,-1,39
 64 158 64 158 64 142 c 0,40,41
 64 116 64 116 67 90 c 128,-1,42
 70 64 70 64 70 38 c 0,43,44
 70 28 70 28 68 20 c 128,-1,45
 66 12 66 12 56 12 c 0,46,47
 48 12 48 12 43 16 c 128,-1,48
 38 20 38 20 35 26 c 128,-1,49
 32 32 32 32 30 38.5 c 128,-1,50
 28 45 28 45 26 51 c 1,51,52
 27 79 27 79 26 101.5 c 128,-1,53
 25 124 25 124 23.5 145.5 c 128,-1,54
 22 167 22 167 20.5 188.5 c 128,-1,55
 19 210 19 210 19 234 c 0,56,57
 19 236 19 236 19 239 c 128,-1,58
 19 242 19 242 19.5 245 c 128,-1,59
 20 248 20 248 20 251.5 c 128,-1,60
 20 255 20 255 20 256 c 128,-1,61
 20 257 20 257 22.5 259.5 c 128,-1,62
 25 262 25 262 26 262 c 1,63,-1
 29 262 l 2,64,65
 41 262 41 262 46.5 255 c 128,-1,66
 52 248 52 248 52 237 c 1,67,68
 63 249 63 249 71 255.5 c 128,-1,69
 79 262 79 262 86.5 265 c 128,-1,70
 94 268 94 268 102 269 c 128,-1,71
 110 270 110 270 122 270 c 0,72,73
 142 270 142 270 157.5 266 c 128,-1,74
 173 262 173 262 185.5 254 c 128,-1,75
 198 246 198 246 209 234 c 128,-1,76
 220 222 220 222 231 205 c 0,77,-1
 232.5 204.5 l 0,78,-1
 234 204 l 256,79,-1
 240.5 210.5 l 0,80,81
 247 217 247 217 257 226.5 c 128,-1,82
 267 236 267 236 280 247 c 128,-1,83
 293 258 293 258 307.5 267 c 128,-1,84
 322 276 322 276 337.5 282 c 128,-1,85
 353 288 353 288 368 288 c 0,86,87
 390 288 390 288 408 279 c 128,-1,88
 426 270 426 270 440 254.5 c 128,-1,89
 454 239 454 239 464 219.5 c 128,-1,90
 474 200 474 200 481 179 c 128,-1,91
 488 158 488 158 491 137 c 128,-1,92
 494 116 494 116 494 99 c 0,93,94
 494 92 494 92 493 76 c 128,-1,95
 492 60 492 60 489 43 c 128,-1,96
 486 26 486 26 480 13 c 128,-1,97
 474 0 474 0 462 -0 c 0,98,99
 456 0 456 0 453 2 c 128,-1,100
 450 4 450 4 449 7 c 128,-1,101
 448 10 448 10 448 15 c 128,-1,102
 448 20 448 20 448 24 c 0,0,1
EndSplineSet
EndChar

StartChar: n
Encoding: 110 110 81
Width: 314
VWidth: 512
Flags: HW
LayerCount: 2
Fore
SplineSet
20 260 m 0,0,1
 20 266 20 266 24 268 c 128,-1,2
 28 270 28 270 33 270 c 0,3,4
 37 270 37 270 38.5 267.5 c 128,-1,5
 40 265 40 265 41 262.5 c 128,-1,6
 42 260 42 260 43 258 c 128,-1,7
 44 256 44 256 48 256 c 0,8,9
 58 256 58 256 71 263 c 128,-1,10
 84 270 84 270 100 279 c 128,-1,11
 116 288 116 288 133 295 c 128,-1,12
 150 302 150 302 168 302 c 0,13,14
 191 302 191 302 209.5 290 c 128,-1,15
 228 278 228 278 243 259 c 128,-1,16
 258 240 258 240 269 216 c 128,-1,17
 280 192 280 192 287 167 c 128,-1,18
 294 142 294 142 298 118.5 c 0,19,20
 302 96 302 96 302 78 c 0,21,22
 302 72 302 72 301 60 c 128,-1,23
 300 48 300 48 297 36 c 128,-1,24
 294 24 294 24 289 15 c 128,-1,25
 284 6 284 6 276 6 c 0,26,27
 274 6 274 6 271 6 c 128,-1,28
 268 6 268 6 265 7 c 128,-1,29
 262 8 262 8 259 9 c 128,-1,30
 256 10 256 10 256 13 c 0,31,32
 262 65 262 65 256.5 110 c 128,-1,33
 251 155 251 155 237.5 189 c 128,-1,34
 224 223 224 223 204.5 242.5 c 0,35,36
 186 262 186 262 164 263 c 0,37,38
 144 263 144 263 125.5 256 c 128,-1,39
 107 249 107 249 93.5 236.5 c 128,-1,40
 80 224 80 224 72 206 c 128,-1,41
 64 188 64 188 64 166 c 0,42,43
 64 145 64 145 68 124.5 c 128,-1,44
 72 104 72 104 77 83 c 128,-1,45
 82 62 82 62 86 40.5 c 0,46,47
 90 20 90 20 90 -2 c 1,48,49
 72 -2 72 -2 59.5 13 c 128,-1,50
 47 28 47 28 39.5 52 c 128,-1,51
 32 76 32 76 27.5 106 c 128,-1,52
 23 136 23 136 21.5 165 c 128,-1,53
 20 194 20 194 20 219.5 c 128,-1,54
 20 245 20 245 20 260 c 0,0,1
EndSplineSet
EndChar

StartChar: o
Encoding: 111 111 82
Width: 333
VWidth: 512
Flags: HW
LayerCount: 2
Fore
SplineSet
12 136 m 0,0,1
 12 172 12 172 28 200 c 128,-1,2
 44 228 44 228 70 246 c 128,-1,3
 96 264 96 264 129 273.5 c 128,-1,4
 162 283 162 283 194 283 c 0,5,6
 211 283 211 283 226.5 276.5 c 128,-1,7
 242 270 242 270 255 259 c 128,-1,8
 268 248 268 248 279 234 c 128,-1,9
 290 220 290 220 297.5 204 c 128,-1,10
 305 188 305 188 309.5 172.5 c 128,-1,11
 314 157 314 157 314 143 c 0,12,13
 314 109 314 109 300 82.5 c 128,-1,14
 286 56 286 56 264 37 c 128,-1,15
 242 18 242 18 213 9 c 128,-1,16
 184 0 184 0 154 -0 c 128,-1,17
 124 0 124 0 98 9 c 128,-1,18
 72 18 72 18 53 36 c 128,-1,19
 34 54 34 54 23 79 c 128,-1,20
 12 104 12 104 12 136 c 0,0,1
45 141 m 0,21,22
 45 121 45 121 52.5 102 c 128,-1,23
 60 83 60 83 74 68.5 c 128,-1,24
 88 54 88 54 106.5 46 c 0,25,26
 124 38 124 38 146 38 c 1,27,28
 158 36 158 36 174 41 c 128,-1,29
 190 46 190 46 207 56 c 128,-1,30
 224 66 224 66 239 80 c 128,-1,31
 254 94 254 94 263.5 110 c 128,-1,32
 273 126 273 126 275.5 143.5 c 128,-1,33
 278 161 278 161 269.5 178.5 c 128,-1,34
 261 196 261 196 239.5 213 c 128,-1,35
 218 230 218 230 179 244 c 1,36,37
 157 244 157 244 133.5 237 c 128,-1,38
 110 230 110 230 90 217.5 c 128,-1,39
 70 205 70 205 57.5 186 c 128,-1,40
 45 167 45 167 45 141 c 0,21,22
EndSplineSet
EndChar

StartChar: p
Encoding: 112 112 83
Width: 355
VWidth: 512
Flags: HW
LayerCount: 2
Fore
SplineSet
12 88 m 0,0,1
 12 130 12 130 27 158 c 128,-1,2
 42 186 42 186 66.5 204 c 128,-1,3
 91 222 91 222 123.5 229.5 c 128,-1,4
 156 237 156 237 190 237 c 0,5,6
 218 237 218 237 246 228 c 128,-1,7
 274 219 274 219 295 202.5 c 128,-1,8
 316 186 316 186 329 162 c 128,-1,9
 342 138 342 138 342 107 c 0,10,11
 342 80 342 80 331.5 63 c 128,-1,12
 321 46 321 46 304 36 c 128,-1,13
 287 26 287 26 265.5 22.5 c 128,-1,14
 244 19 244 19 222 19 c 0,15,16
 201 19 201 19 178.5 20.5 c 128,-1,17
 156 22 156 22 138 30 c 128,-1,18
 120 38 120 38 108 52.5 c 128,-1,19
 96 67 96 67 96 93 c 1,20,21
 110 93 110 93 123 87.5 c 128,-1,22
 136 82 136 82 149 75.5 c 128,-1,23
 162 69 162 69 175 63.5 c 128,-1,24
 188 58 188 58 203 58 c 0,25,26
 214 58 214 58 231 60 c 128,-1,27
 248 62 248 62 264 68 c 128,-1,28
 280 74 280 74 291.5 83.5 c 0,29,30
 303 92 303 92 303 108 c 0,31,32
 303 130 303 130 293 147 c 128,-1,33
 283 164 283 164 266.5 175.5 c 128,-1,34
 250 187 250 187 230 192.5 c 128,-1,35
 210 198 210 198 190 198 c 0,36,37
 187 198 187 198 177.5 197 c 128,-1,38
 168 196 168 196 154 193 c 128,-1,39
 140 190 140 190 126 185.5 c 128,-1,40
 112 181 112 181 99 174.5 c 128,-1,41
 86 168 86 168 78 160 c 128,-1,42
 70 152 70 152 70 142 c 2,43,-1
 70 134 l 1,44,45
 70 126 70 126 71.5 114 c 128,-1,46
 73 102 73 102 74 90 c 128,-1,47
 75 78 75 78 76 69 c 128,-1,48
 77 60 77 60 77 58 c 0,49,50
 79 48 79 48 82 25.5 c 128,-1,51
 85 3 85 3 89.5 -24.5 c 128,-1,52
 94 -52 94 -52 99 -83 c 128,-1,53
 104 -114 104 -114 108 -142 c 128,-1,54
 112 -170 112 -170 116 -191.5 c 0,55,56
 120 -214 120 -214 122 -224 c 0,57,58
 122 -225 122 -225 122 -225.5 c 128,-1,59
 122 -226 122 -226 122 -228 c 0,60,-1
 122 -228 l 0,61,-1
 122 -229 l 2,62,-1
 122 -230 l 1,63,64
 121 -232 121 -232 116 -237 c 128,-1,65
 111 -242 111 -242 109 -243 c 1,66,-1
 106 -243 l 2,67,68
 100 -243 100 -243 92 -230.5 c 128,-1,69
 84 -218 84 -218 76 -197 c 128,-1,70
 68 -176 68 -176 60.5 -149 c 128,-1,71
 53 -122 53 -122 46 -92.5 c 128,-1,72
 39 -63 39 -63 32.5 -34 c 128,-1,73
 26 -5 26 -5 22 19.5 c 128,-1,74
 18 44 18 44 15 62 c 128,-1,75
 12 80 12 80 12 88 c 0,0,1
EndSplineSet
EndChar

StartChar: q
Encoding: 113 113 84
Width: 281
VWidth: 512
Flags: HW
LayerCount: 2
Fore
SplineSet
173 20 m 1,0,1
 171 20 171 20 165.5 18.5 c 128,-1,2
 160 17 160 17 153.5 15.5 c 128,-1,3
 147 14 147 14 141.5 13.5 c 128,-1,4
 136 13 136 13 134 13 c 0,5,6
 102 13 102 13 79 25.5 c 128,-1,7
 56 38 56 38 41 59 c 128,-1,8
 26 80 26 80 19 106 c 128,-1,9
 12 132 12 132 12 160 c 0,10,11
 12 194 12 194 23 226 c 128,-1,12
 34 258 34 258 53.5 283.5 c 128,-1,13
 73 309 73 309 101.5 324.5 c 128,-1,14
 130 340 130 340 166 340 c 0,15,16
 180 340 180 340 195 335.5 c 128,-1,17
 210 331 210 331 224 322.5 c 128,-1,18
 238 314 238 314 247 300.5 c 128,-1,19
 256 287 256 287 256 269 c 1,20,-1
 236 38 l 1,21,22
 236 9 236 9 238 -19.5 c 128,-1,23
 240 -48 240 -48 243 -77 c 128,-1,24
 246 -106 246 -106 248 -135.5 c 128,-1,25
 250 -165 250 -165 250 -194 c 0,26,27
 250 -204 250 -204 249 -211 c 128,-1,28
 248 -218 248 -218 237 -218 c 0,29,30
 226 -218 226 -218 220 -208 c 128,-1,31
 214 -198 214 -198 210.5 -181 c 128,-1,32
 207 -164 207 -164 206 -143 c 128,-1,33
 205 -122 205 -122 204.5 -99.5 c 128,-1,34
 204 -77 204 -77 203.5 -55.5 c 128,-1,35
 203 -34 203 -34 200.5 -17.5 c 128,-1,36
 198 -1 198 -1 193 9.5 c 128,-1,37
 188 20 188 20 180 20 c 2,38,-1
 173 20 l 1,0,1
44 159 m 0,39,40
 44 139 44 139 50 121 c 128,-1,41
 56 103 56 103 67 88.5 c 128,-1,42
 78 74 78 74 95 65.5 c 128,-1,43
 112 57 112 57 133 57 c 0,44,45
 148 57 148 57 163.5 59.5 c 128,-1,46
 179 62 179 62 192 70 c 1,47,48
 196 90 196 90 197 114 c 128,-1,49
 198 138 198 138 199.5 163 c 128,-1,50
 201 188 201 188 205 213 c 128,-1,51
 209 238 209 238 218 260 c 1,52,53
 218 272 218 272 212 281 c 128,-1,54
 206 290 206 290 196 295.5 c 128,-1,55
 186 301 186 301 175 304 c 128,-1,56
 164 307 164 307 154 307 c 0,57,58
 129 307 129 307 108.5 291.5 c 128,-1,59
 88 276 88 276 74 253.5 c 128,-1,60
 60 231 60 231 52 205 c 128,-1,61
 44 179 44 179 44 159 c 0,39,40
EndSplineSet
EndChar

StartChar: r
Encoding: 114 114 85
Width: 237
VWidth: 512
Flags: HW
LayerCount: 2
Fore
SplineSet
73 0 m 1,0,1
 59 26 59 26 48.5 58 c 128,-1,2
 38 90 38 90 30 122 c 128,-1,3
 22 154 22 154 18 184 c 128,-1,4
 14 214 14 214 12 238 c 0,5,6
 12 242 12 242 12 248 c 128,-1,7
 12 254 12 254 12 260 c 128,-1,8
 12 266 12 266 14 272 c 128,-1,9
 16 278 16 278 20 282 c 1,10,-1
 20 282 l 2,11,12
 21 282 l 0,13,-1
 22 282 l 256,14,15
 22.5 282 l 0,16,17
 23 282 23 282 24 282 c 2,18,-1
 26 282 l 1,19,20
 28 282 28 282 32.5 279 c 0,21,22
 36 276 36 276 38 276 c 1,23,24
 50 280 50 280 63 285 c 128,-1,25
 76 290 76 290 89 295 c 128,-1,26
 102 300 102 300 115 304 c 128,-1,27
 128 308 128 308 142 308 c 0,28,29
 151 308 151 308 157.5 307 c 128,-1,30
 164 306 164 306 171 304.5 c 128,-1,31
 178 303 178 303 186 300.5 c 128,-1,32
 194 298 194 298 205 294 c 1,33,34
 210 290 210 290 215 287 c 128,-1,35
 220 284 220 284 223.5 279 c 128,-1,36
 227 274 227 274 229 267 c 0,37,38
 230 260 230 260 230 250 c 1,39,40
 219 248 219 248 205.5 251.5 c 128,-1,41
 192 255 192 255 176 259.5 c 128,-1,42
 160 264 160 264 143.5 267.5 c 128,-1,43
 127 271 127 271 111.5 270 c 128,-1,44
 96 269 96 269 82 261.5 c 128,-1,45
 68 254 68 254 58 237 c 1,46,47
 54 217 54 217 54.5 198.5 c 128,-1,48
 55 180 55 180 59 162.5 c 128,-1,49
 63 145 63 145 69.5 127.5 c 128,-1,50
 76 110 76 110 81.5 92.5 c 128,-1,51
 87 75 87 75 91.5 57.5 c 128,-1,52
 96 40 96 40 97 22 c 0,53,54
 97 15 97 15 89.5 7.5 c 128,-1,55
 82 0 82 0 73 0 c 1,0,1
EndSplineSet
EndChar

StartChar: s
Encoding: 115 115 86
Width: 351
VWidth: 512
Flags: HW
LayerCount: 2
Fore
SplineSet
12 80 m 1,0,1
 18 84 18 84 21.5 85.5 c 128,-1,2
 25 87 25 87 31 87 c 256,3,4
 37 87 37 87 42.5 83.5 c 128,-1,5
 48 80 48 80 53.5 76 c 128,-1,6
 59 72 59 72 64.5 68 c 128,-1,7
 70 64 70 64 76 61 c 0,8,9
 93 53 93 53 103 48.5 c 128,-1,10
 113 44 113 44 122 42 c 128,-1,11
 131 40 131 40 142 39 c 0,12,13
 154 38 154 38 172 38 c 0,14,15
 186 38 186 38 205.5 38 c 128,-1,16
 225 38 225 38 243 41 c 128,-1,17
 261 44 261 44 273.5 54 c 128,-1,18
 286 64 286 64 286 84 c 129,-1,19
 286 104 286 104 275.5 115 c 128,-1,20
 265 126 265 126 246.5 131.5 c 128,-1,21
 228 137 228 137 204.5 139.5 c 128,-1,22
 181 142 181 142 156.5 145 c 128,-1,23
 132 148 132 148 108 153 c 128,-1,24
 84 158 84 158 66 168.5 c 128,-1,25
 48 179 48 179 36 197.5 c 128,-1,26
 24 216 24 216 24 245 c 1,27,28
 28 266 28 266 45 281 c 128,-1,29
 62 296 62 296 86 303 c 128,-1,30
 110 310 110 310 136 311 c 128,-1,31
 162 312 162 312 185 304.5 c 128,-1,32
 208 297 208 297 223 282 c 128,-1,33
 238 267 238 267 238 244 c 1,34,35
 240 230 240 230 236 221.5 c 128,-1,36
 232 213 232 213 227 208.5 c 128,-1,37
 222 204 222 204 216 204.5 c 128,-1,38
 210 205 210 205 206 209.5 c 128,-1,39
 202 214 202 214 203 222.5 c 0,40,41
 204 232 204 232 210 244 c 1,42,43
 208 256 208 256 195.5 263.5 c 128,-1,44
 183 271 183 271 166 273.5 c 128,-1,45
 149 276 149 276 130.5 275 c 128,-1,46
 112 274 112 274 96 268.5 c 128,-1,47
 80 263 80 263 70 254.5 c 128,-1,48
 60 246 60 246 62 234 c 1,49,50
 62 214 62 214 73.5 203 c 128,-1,51
 85 192 85 192 104 186 c 128,-1,52
 123 180 123 180 147.5 177.5 c 128,-1,53
 172 175 172 175 197 172.5 c 128,-1,54
 222 170 222 170 246.5 165.5 c 128,-1,55
 271 161 271 161 290 151.5 c 128,-1,56
 309 142 309 142 320.5 125 c 128,-1,57
 332 108 332 108 332 80 c 0,58,59
 332 60 332 60 321 45 c 128,-1,60
 310 30 310 30 294 20 c 128,-1,61
 278 10 278 10 259 5 c 128,-1,62
 240 0 240 0 222 0 c 0,63,64
 205 0 205 0 185.5 0 c 128,-1,65
 166 0 166 0 145 2 c 128,-1,66
 124 4 124 4 104 9 c 128,-1,67
 84 14 84 14 66 23 c 128,-1,68
 48 32 48 32 34 45.5 c 128,-1,69
 20 59 20 59 12 80 c 1,0,1
EndSplineSet
EndChar

StartChar: t
Encoding: 116 116 87
Width: 224
VWidth: 512
Flags: HW
LayerCount: 2
Fore
SplineSet
90 229 m 1,0,1
 85 229 85 229 71.5 229.5 c 128,-1,2
 58 230 58 230 44 232 c 128,-1,3
 30 234 30 234 18.5 239 c 0,4,5
 6 244 6 244 6 254 c 0,6,7
 6 257 6 257 7 262.5 c 128,-1,8
 8 268 8 268 14 268 c 2,9,-1
 83 273 l 1,10,11
 86 297 86 297 87 313 c 128,-1,12
 88 329 88 329 87.5 342.5 c 128,-1,13
 87 356 87 356 85.5 371 c 128,-1,14
 84 386 84 386 84 410 c 0,15,16
 84 414 84 414 86 417 c 128,-1,17
 88 420 88 420 91 422 c 128,-1,18
 94 424 94 424 97.5 424 c 0,19,20
 102 424 102 424 104 424 c 0,21,22
 108 424 108 424 112 422 c 128,-1,23
 116 420 116 420 119 416 c 128,-1,24
 122 412 122 412 124 407 c 128,-1,25
 126 402 126 402 126 398 c 2,26,-1
 132 274 l 1,27,-1
 189 272 l 1,28,29
 201 273 201 273 210.5 267 c 128,-1,30
 220 261 220 261 220 246 c 1,31,32
 212 238 212 238 201 236 c 128,-1,33
 190 234 190 234 177.5 234 c 128,-1,34
 165 234 165 234 153 234 c 128,-1,35
 141 234 141 234 132 228 c 1,36,37
 132 224 132 224 132.5 206 c 128,-1,38
 133 188 133 188 133.5 163.5 c 128,-1,39
 134 139 134 139 135 111 c 128,-1,40
 136 83 136 83 137 59.5 c 128,-1,41
 138 36 138 36 138.5 19 c 128,-1,42
 139 2 139 2 139 0 c 1,43,44
 123 -9 123 -9 113.5 1.5 c 128,-1,45
 104 12 104 12 98.5 34 c 128,-1,46
 93 56 93 56 90.5 85 c 128,-1,47
 88 114 88 114 88 142.5 c 128,-1,48
 88 171 88 171 88.5 194.5 c 128,-1,49
 89 218 89 218 90 229 c 1,0,1
EndSplineSet
EndChar

StartChar: u
Encoding: 117 117 88
Width: 343
VWidth: 512
Flags: HW
LayerCount: 2
Fore
SplineSet
256 96 m 1,0,1
 240 88 240 88 229 76 c 128,-1,2
 218 64 218 64 207 52.5 c 128,-1,3
 196 41 196 41 182 33 c 128,-1,4
 168 25 168 25 148 25 c 0,5,6
 124 25 124 25 104 35.5 c 128,-1,7
 84 46 84 46 69 63.5 c 128,-1,8
 54 81 54 81 43 103.5 c 128,-1,9
 32 126 32 126 25 150 c 128,-1,10
 18 174 18 174 15 197 c 128,-1,11
 12 220 12 220 12 238 c 1,12,13
 6 274 6 274 13 294.5 c 128,-1,14
 20 315 20 315 30.5 320.5 c 128,-1,15
 41 326 41 326 48.5 318 c 128,-1,16
 56 310 56 310 51 288 c 0,17,18
 50 286 50 286 49 280 c 128,-1,19
 48 274 48 274 47 268 c 128,-1,20
 46 262 46 262 45.5 257 c 128,-1,21
 45 252 45 252 45 250 c 0,22,23
 45 236 45 236 47.5 217 c 128,-1,24
 50 198 50 198 56 177 c 128,-1,25
 62 156 62 156 71 136 c 128,-1,26
 80 116 80 116 92 100 c 128,-1,27
 104 84 104 84 119 74 c 128,-1,28
 134 64 134 64 154 64 c 0,29,30
 166 64 166 64 181 76 c 128,-1,31
 196 88 196 88 210 104 c 128,-1,32
 224 120 224 120 233 137.5 c 0,33,34
 242 154 242 154 243 166 c 0,35,36
 243 172 243 172 243.5 188 c 128,-1,37
 244 204 244 204 244 221 c 128,-1,38
 244 238 244 238 243.5 254 c 128,-1,39
 243 270 243 270 243 276 c 1,40,41
 247 283 247 283 251.5 286.5 c 128,-1,42
 256 290 256 290 263 290 c 0,43,44
 271 290 271 290 276.5 279 c 128,-1,45
 282 268 282 268 285 251.5 c 128,-1,46
 288 235 288 235 289 215.5 c 128,-1,47
 290 196 290 196 291 178 c 128,-1,48
 292 160 292 160 292.5 146 c 0,49,50
 292 132 292 132 294 128 c 0,51,52
 298 114 298 114 304.5 98 c 128,-1,53
 311 82 311 82 317 66 c 128,-1,54
 323 50 323 50 327.5 37 c 128,-1,55
 332 24 332 24 332 18 c 0,56,57
 332 8 332 8 326 6 c 128,-1,58
 320 4 320 4 312 4 c 0,59,60
 302 4 302 4 297 9 c 128,-1,61
 292 14 292 14 289 22 c 128,-1,62
 286 30 286 30 285 40.5 c 128,-1,63
 284 51 284 51 281 61.5 c 128,-1,64
 278 72 278 72 272.5 81 c 128,-1,65
 267 90 267 90 256 96 c 1,0,1
EndSplineSet
EndChar

StartChar: v
Encoding: 118 118 89
Width: 266
VWidth: 512
Flags: HW
LayerCount: 2
Fore
SplineSet
6 237 m 1,0,1
 6 239 6 239 8 242.5 c 128,-1,2
 10 246 10 246 12 249 c 128,-1,3
 14 252 14 252 17 254 c 128,-1,4
 20 256 20 256 22 256 c 0,5,6
 23 256 l 0,7,-1
 24 256 l 2,8,-1
 26 256 l 1,9,10
 42 248 42 248 52 234.5 c 128,-1,11
 62 221 62 221 69 203.5 c 128,-1,12
 76 186 76 186 83 167 c 128,-1,13
 90 148 90 148 98 128.5 c 128,-1,14
 106 109 106 109 117.5 91.5 c 0,15,16
 128 74 128 74 146 60 c 1,17,18
 152 80 152 80 158 99 c 128,-1,19
 164 118 164 118 172 137 c 128,-1,20
 180 156 180 156 190 177 c 128,-1,21
 200 198 200 198 214 221 c 1,22,23
 230 228 230 228 240 229 c 128,-1,24
 250 230 250 230 253.5 227 c 128,-1,25
 257 224 257 224 254.5 216 c 128,-1,26
 252 208 252 208 244 198 c 1,27,28
 239 194 239 194 231.5 177 c 128,-1,29
 224 160 224 160 216 138 c 128,-1,30
 208 116 208 116 199 91 c 128,-1,31
 190 66 190 66 181 45.5 c 128,-1,32
 172 25 172 25 162.5 11.5 c 0,33,34
 152 -2 152 -2 144 -0 c 1,35,36
 135 0 135 0 123.5 14 c 128,-1,37
 112 28 112 28 99 50.5 c 128,-1,38
 86 73 86 73 72 100.5 c 128,-1,39
 58 128 58 128 46 154 c 128,-1,40
 34 180 34 180 23 202.5 c 128,-1,41
 12 225 12 225 6 237 c 1,0,1
EndSplineSet
EndChar

StartChar: w
Encoding: 119 119 90
Width: 448
VWidth: 512
Flags: HW
LayerCount: 2
Fore
SplineSet
230 64 m 1,0,1
 203 28 203 28 176.5 14 c 128,-1,2
 150 -0 150 -0 125.5 1.5 c 128,-1,3
 101 3 101 3 79.5 18.5 c 128,-1,4
 58 34 58 34 42 58 c 128,-1,5
 26 82 26 82 17 113 c 128,-1,6
 8 144 8 144 7 175 c 128,-1,7
 6 206 6 206 15 236 c 128,-1,8
 24 266 24 266 45 288 c 1,9,10
 55 284 55 284 56.5 278 c 128,-1,11
 58 272 58 272 58 263 c 0,12,13
 58 251 58 251 56 240.5 c 128,-1,14
 54 230 54 230 51 219.5 c 128,-1,15
 48 209 48 209 46 198 c 0,16,17
 44 186 44 186 44 174 c 0,18,19
 44 166 44 166 46 153 c 128,-1,20
 48 140 48 140 52 125.5 c 128,-1,21
 56 111 56 111 62 96.5 c 128,-1,22
 68 82 68 82 76 70 c 128,-1,23
 84 58 84 58 94 51 c 128,-1,24
 104 44 104 44 116 44 c 128,-1,25
 128 44 128 44 144 50.5 c 128,-1,26
 160 57 160 57 174 67.5 c 128,-1,27
 188 78 188 78 198 91.5 c 0,28,29
 208 104 208 104 208 118 c 1,30,-1
 212 205 l 2,31,32
 212 207 212 207 214 209.5 c 128,-1,33
 216 212 216 212 219.5 213.5 c 128,-1,34
 223 215 223 215 226.5 216.5 c 0,35,-1
 230 218 l 0,36,37
 240 218 240 218 243.5 205.5 c 128,-1,38
 247 193 247 193 249 174.5 c 128,-1,39
 251 156 251 156 253.5 134 c 128,-1,40
 256 112 256 112 263 93.5 c 128,-1,41
 270 75 270 75 284 62.5 c 128,-1,42
 298 50 298 50 323 50 c 1,43,44
 347 50 347 50 361.5 60.5 c 128,-1,45
 376 71 376 71 383 86.5 c 128,-1,46
 390 102 390 102 390 122 c 128,-1,47
 390 142 390 142 385 162 c 128,-1,48
 380 182 380 182 371 200 c 128,-1,49
 362 218 362 218 352 230 c 1,50,51
 351 235 351 235 352.5 237.5 c 128,-1,52
 354 240 354 240 356 241.5 c 128,-1,53
 358 243 358 243 361.5 243.5 c 0,54,55
 366 244 366 244 368 244 c 1,56,57
 379 241 379 241 390.5 226 c 128,-1,58
 402 211 402 211 412 190 c 128,-1,59
 422 169 422 169 427 143.5 c 128,-1,60
 432 118 432 118 429 94 c 128,-1,61
 426 70 426 70 414 48 c 128,-1,62
 402 26 402 26 378 13 c 1,63,64
 349 11 349 11 330.5 10.5 c 128,-1,65
 312 10 312 10 299.5 12 c 128,-1,66
 287 14 287 14 279.5 18 c 128,-1,67
 272 22 272 22 265 28 c 128,-1,68
 258 34 258 34 250 43 c 128,-1,69
 242 52 242 52 230 64 c 1,0,1
EndSplineSet
EndChar

StartChar: x
Encoding: 120 120 91
Width: 306
VWidth: 512
Flags: HW
LayerCount: 2
Fore
SplineSet
262 -35 m 0,0,1
 244 -19 244 -19 228.5 -1.5 c 128,-1,2
 213 16 213 16 197.5 33 c 128,-1,3
 182 50 182 50 165 66 c 128,-1,4
 148 82 148 82 128 94 c 1,5,6
 119 94 119 94 110.5 87 c 128,-1,7
 102 80 102 80 95 70 c 128,-1,8
 88 60 88 60 82 48 c 128,-1,9
 76 36 76 36 70 25 c 128,-1,10
 64 14 64 14 59 6 c 128,-1,11
 54 -2 54 -2 50 -4 c 1,12,13
 38 -4 38 -4 38 9 c 0,14,15
 38 28 38 28 48 45 c 128,-1,16
 58 62 58 62 70 77 c 128,-1,17
 82 92 82 92 92 105 c 128,-1,18
 102 118 102 118 102 128 c 0,19,20
 102 129.5 l 0,21,-1
 102 132 l 0,22,23
 90 142 90 142 75.5 156 c 128,-1,24
 61 170 61 170 46.5 185.5 c 128,-1,25
 32 201 32 201 19 216.5 c 128,-1,26
 6 232 6 232 -0 247 c 1,27,28
 -1 252 -1 252 0.5 255 c 128,-1,29
 2 258 2 258 4 259 c 128,-1,30
 6 260 6 260 9.5 260.5 c 0,31,32
 14 261 14 261 16 261 c 1,33,34
 32 255 32 255 47 241.5 c 128,-1,35
 62 228 62 228 76 214 c 128,-1,36
 90 200 90 200 103.5 186 c 0,37,38
 116 172 116 172 130 164 c 1,39,40
 144 166 144 166 161 177.5 c 128,-1,41
 178 189 178 189 195.5 203.5 c 128,-1,42
 213 218 213 218 230.5 233 c 128,-1,43
 248 248 248 248 262.5 257 c 128,-1,44
 277 266 277 266 287.5 265 c 128,-1,45
 298 264 298 264 301 248 c 1,46,47
 301 244 301 244 292.5 236 c 128,-1,48
 284 228 284 228 270 218 c 128,-1,49
 256 208 256 208 240 196 c 128,-1,50
 224 184 224 184 208 172 c 128,-1,51
 192 160 192 160 179 149.5 c 0,52,53
 166 140 166 140 160 132 c 1,54,55
 174 119 174 119 193 101.5 c 128,-1,56
 212 84 212 84 230 64 c 128,-1,57
 248 44 248 44 264 23.5 c 0,58,59
 280 2 280 2 288 -16 c 1,60,61
 286 -23 286 -23 281 -29.5 c 128,-1,62
 276 -36 276 -36 268 -36 c 0,63,64
 267 -36 267 -36 266 -35.5 c 0,65,-1
 262 -35 l 0,0,1
EndSplineSet
EndChar

StartChar: y
Encoding: 121 121 92
Width: 333
VWidth: 512
Flags: HWO
LayerCount: 2
Fore
SplineSet
31 -208 m 0,0,1
 31 -204 31 -204 31 -199.5 c 128,-1,2
 31 -195 31 -195 32.5 -191.5 c 128,-1,3
 34 -188 34 -188 37 -186.5 c 128,-1,4
 40 -185 40 -185 45 -185 c 1,5,6
 55 -197 55 -197 71 -214.5 c 128,-1,7
 87 -232 87 -232 106.5 -249 c 128,-1,8
 126 -266 126 -266 148 -278 c 128,-1,9
 170 -290 170 -290 193 -291 c 1,10,11
 212 -291 212 -291 225.5 -281.5 c 128,-1,12
 239 -272 239 -272 248.5 -257 c 128,-1,13
 258 -242 258 -242 263.5 -224 c 128,-1,14
 269 -206 269 -206 272.5 -186.5 c 128,-1,15
 276 -167 276 -167 278 -149 c 128,-1,16
 280 -131 280 -131 282 -117 c 0,17,18
 283 -111 283 -111 284.5 -95.5 c 128,-1,19
 286 -80 286 -80 288 -60.5 c 128,-1,20
 290 -41 290 -41 291 -20.5 c 128,-1,21
 292 0 292 0 291 17 c 128,-1,22
 290 34 290 34 286 45 c 128,-1,23
 282 56 282 56 274 56 c 0,24,25
 262 56 262 56 249 49 c 128,-1,26
 236 42 236 42 223 34 c 128,-1,27
 210 26 210 26 196 19 c 128,-1,28
 182 12 182 12 168 12 c 0,29,30
 143 12 143 12 121.5 22.5 c 128,-1,31
 100 33 100 33 83 50 c 128,-1,32
 66 67 66 67 53 89.5 c 128,-1,33
 40 112 40 112 31 136 c 128,-1,34
 22 160 22 160 17 184 c 128,-1,35
 12 208 12 208 12 228 c 0,36,37
 12 232 12 232 11.5 243.5 c 128,-1,38
 11 255 11 255 12.5 266.5 c 128,-1,39
 14 278 14 278 18 286 c 128,-1,40
 22 294 22 294 32 294 c 0,41,42
 34 294 34 294 36.5 284 c 128,-1,43
 39 274 39 274 41.5 257 c 128,-1,44
 44 240 44 240 47.5 218 c 128,-1,45
 51 196 51 196 56.5 173 c 128,-1,46
 62 150 62 150 71 128 c 128,-1,47
 80 106 80 106 93 89 c 128,-1,48
 106 72 106 72 123 61.5 c 128,-1,49
 140 51 140 51 164 51 c 0,50,51
 179 51 179 51 194.5 57.5 c 128,-1,52
 210 64 210 64 224 74 c 128,-1,53
 238 84 238 84 250 96.5 c 128,-1,54
 262 109 262 109 269 122 c 1,55,56
 269 124 269 124 268.5 134 c 128,-1,57
 268 144 268 144 267 157.5 c 128,-1,58
 266 171 266 171 265.5 186.5 c 128,-1,59
 265 202 265 202 264.5 215 c 128,-1,60
 264 228 264 228 264 238 c 128,-1,61
 264 248 264 248 264 252 c 0,62,63
 265 292 265 292 269.5 301 c 128,-1,64
 274 310 274 310 281 295 c 128,-1,65
 288 280 288 280 295 246 c 128,-1,66
 302 212 302 212 308 165 c 128,-1,67
 314 118 314 118 318 63.5 c 128,-1,68
 322 9 322 9 321 -45.5 c 128,-1,69
 320 -100 320 -100 314 -152 c 128,-1,70
 308 -204 308 -204 294 -243.5 c 128,-1,71
 280 -283 280 -283 257 -307.5 c 128,-1,72
 234 -332 234 -332 201 -334 c 5,73,74
 187 -334 187 -334 169.5 -329 c 128,-1,75
 152 -324 152 -324 133 -315 c 128,-1,76
 114 -306 114 -306 96 -294 c 128,-1,77
 78 -282 78 -282 63 -268 c 128,-1,78
 48 -254 48 -254 39.5 -239 c 128,-1,79
 31 -224 31 -224 31 -208 c 0,0,1
EndSplineSet
EndChar

StartChar: z
Encoding: 122 122 93
Width: 314
VWidth: 512
Flags: HW
LayerCount: 2
Fore
SplineSet
57 45 m 128,-1,1
 57 57 57 57 64.5 70.5 c 128,-1,2
 72 84 72 84 82 98 c 128,-1,3
 92 112 92 112 103 124 c 128,-1,4
 114 136 114 136 120 144 c 1,5,-1
 32 148 l 2,6,7
 29 148 29 148 27.5 150 c 128,-1,8
 26 152 26 152 25.5 154.5 c 128,-1,9
 25 157 25 157 25 159.5 c 128,-1,10
 25 162 25 162 25 164 c 0,11,12
 25 170 25 170 26 173 c 128,-1,13
 27 176 27 176 29.5 177 c 128,-1,14
 32 178 32 178 36 178 c 128,-1,15
 40 178 40 178 45 179 c 0,16,17
 51 179 51 179 67.5 181.5 c 128,-1,18
 84 184 84 184 102.5 186 c 128,-1,19
 121 188 121 188 137.5 189.5 c 128,-1,20
 154 191 154 191 160 192 c 1,21,22
 169 206 169 206 175.5 215 c 128,-1,23
 182 224 182 224 186 232.5 c 128,-1,24
 190 241 190 241 191 250 c 128,-1,25
 192 259 192 259 192 271 c 0,26,27
 192 276 192 276 191 283.5 c 128,-1,28
 190 291 190 291 187 297.5 c 128,-1,29
 184 304 184 304 179 309 c 128,-1,30
 174 314 174 314 166 314 c 2,31,-1
 84 314 l 2,32,33
 76 314 76 314 70 309 c 128,-1,34
 64 304 64 304 58.5 298 c 128,-1,35
 53 292 53 292 48.5 286.5 c 128,-1,36
 44 281 44 281 39 281 c 0,37,38
 27 281 27 281 19.5 287 c 0,39,40
 12 292 12 292 12 304 c 0,41,42
 12 314 12 314 20 322 c 128,-1,43
 28 330 28 330 40.5 335.5 c 128,-1,44
 53 341 53 341 68 344.5 c 128,-1,45
 83 348 83 348 97.5 350 c 128,-1,46
 112 352 112 352 124 352.5 c 128,-1,47
 136 353 136 353 144 353 c 0,48,49
 162 353 162 353 178 347.5 c 128,-1,50
 194 342 194 342 206 332 c 128,-1,51
 218 322 218 322 224.5 307 c 128,-1,52
 231 292 231 292 231 274 c 0,53,54
 231 262 231 262 228.5 251.5 c 128,-1,55
 226 241 226 241 222 231.5 c 128,-1,56
 218 222 218 222 215.5 211.5 c 128,-1,57
 213 201 213 201 213 190 c 1,58,-1
 221.5 191 l 0,59,60
 230 192 230 192 239 192 c 128,-1,61
 248 192 248 192 255.5 190.5 c 0,62,63
 263 190 263 190 263 184 c 0,64,65
 263 183 263 183 262.5 182.5 c 128,-1,66
 262 182 262 182 262 180 c 2,67,-1
 262 179 l 1,68,69
 260 175 260 175 255.5 169.5 c 128,-1,70
 251 164 251 164 250 164 c 2,71,-1
 179 156 l 1,72,73
 174 147 174 147 164 136 c 128,-1,74
 154 125 154 125 143.5 113.5 c 128,-1,75
 133 102 133 102 125 91 c 128,-1,76
 117 80 117 80 116 70 c 128,-1,77
 115 60 115 60 123 53.5 c 0,78,79
 132 47 132 47 154 44 c 1,80,81
 168 44 168 44 185 47 c 128,-1,82
 202 50 202 50 219 54 c 128,-1,83
 236 58 236 58 252 64 c 128,-1,84
 268 70 268 70 282 77 c 1,85,86
 288 73 288 73 291 67 c 0,87,88
 294 60 294 60 294 54 c 0,89,90
 294 44 294 44 285 36.5 c 128,-1,91
 276 29 276 29 261 23 c 128,-1,92
 246 17 246 17 228 12.5 c 128,-1,93
 210 8 210 8 193 5 c 128,-1,94
 176 2 176 2 161 1 c 128,-1,95
 146 0 146 0 137 0 c 0,96,97
 127 0 127 0 113.5 2.5 c 128,-1,98
 100 5 100 5 87.5 10.5 c 128,-1,99
 75 16 75 16 66 24.5 c 128,-1,0
 57 33 57 33 57 45 c 128,-1,1
EndSplineSet
EndChar

StartChar: braceleft
Encoding: 123 123 94
Width: 269
VWidth: 512
Flags: HW
LayerCount: 2
Fore
SplineSet
44 48 m 0,0,1
 44 72 44 72 54.5 90 c 128,-1,2
 65 108 65 108 81 122.5 c 128,-1,3
 97 137 97 137 115.5 149.5 c 128,-1,4
 134 162 134 162 150 175.5 c 128,-1,5
 166 189 166 189 176 205.5 c 128,-1,6
 186 222 186 222 186 243 c 0,7,8
 186 245 186 245 186 247.5 c 128,-1,9
 186 250 186 250 186 253 c 128,-1,10
 186 256 186 256 186 259 c 0,11,-1
 186 262 l 1,12,13
 184 263 184 263 179 265.5 c 128,-1,14
 174 268 174 268 173 269 c 1,15,-1
 170 269 l 2,16,17
 157 269 157 269 139 262.5 c 128,-1,18
 121 256 121 256 102.5 248 c 128,-1,19
 84 240 84 240 68.5 231 c 128,-1,20
 53 222 53 222 45 218 c 0,21,22
 44 218 44 218 42 217.5 c 128,-1,23
 40 217 40 217 38 217 c 0,24,25
 30 217 30 217 27.5 221.5 c 128,-1,26
 25 226 25 226 25 234 c 0,27,28
 25 235 25 235 25.5 238.5 c 128,-1,29
 26 242 26 242 26 243 c 1,30,31
 36 247 36 247 51 254.5 c 128,-1,32
 66 262 66 262 80.5 271 c 128,-1,33
 95 280 95 280 106.5 291 c 128,-1,34
 118 302 118 302 122 314 c 1,35,36
 96 318 96 318 75 333 c 128,-1,37
 54 348 54 348 40.5 369 c 128,-1,38
 27 390 27 390 19.5 414.5 c 128,-1,39
 12 439 12 439 12 463 c 0,40,41
 12 493 12 493 29.5 519.5 c 128,-1,42
 47 546 47 546 73.5 566 c 128,-1,43
 100 586 100 586 131 597.5 c 128,-1,44
 162 609 162 609 189 609 c 0,45,46
 199 609 199 609 209.5 606.5 c 128,-1,47
 220 604 220 604 229 598 c 128,-1,48
 238 592 238 592 244 583.5 c 128,-1,49
 250 575 250 575 250 563 c 0,50,51
 250 557 250 557 248 550 c 128,-1,52
 246 543 246 543 240 543 c 0,53,54
 236 543 236 543 231 548.5 c 128,-1,55
 226 554 226 554 220 560 c 128,-1,56
 214 566 214 566 206 571 c 128,-1,57
 198 576 198 576 190 576 c 1,58,59
 162 574 162 574 138 564 c 128,-1,60
 114 554 114 554 95 537 c 128,-1,61
 76 520 76 520 63 497 c 128,-1,62
 50 474 50 474 44 448 c 1,63,64
 44 428 44 428 52 412.5 c 128,-1,65
 60 397 60 397 73.5 385.5 c 128,-1,66
 87 374 87 374 104 365 c 128,-1,67
 121 356 121 356 138.5 349 c 128,-1,68
 156 342 156 342 173.5 335 c 128,-1,69
 191 328 191 328 205 320 c 1,70,71
 201 308 201 308 204.5 298 c 128,-1,72
 208 288 208 288 214 278.5 c 128,-1,73
 220 269 220 269 225.5 259.5 c 128,-1,74
 231 250 231 250 231 238 c 0,75,76
 231 214 231 214 219.5 196.5 c 128,-1,77
 208 179 208 179 191 164.5 c 128,-1,78
 174 150 174 150 154 137 c 128,-1,79
 134 124 134 124 117 110 c 128,-1,80
 100 96 100 96 88.5 79 c 128,-1,81
 77 62 77 62 77 38 c 2,82,-1
 77 32 l 1,83,84
 85 18 85 18 94 6.5 c 128,-1,85
 103 -5 103 -5 114.5 -13.5 c 128,-1,86
 126 -22 126 -22 139 -27 c 128,-1,87
 152 -32 152 -32 170 -32 c 2,88,-1
 173 -32 l 1,89,90
 197 -28 197 -28 221.5 -23.5 c 128,-1,91
 246 -19 246 -19 271 -19 c 1,92,93
 271 -31 271 -31 263.5 -38.5 c 128,-1,94
 256 -46 256 -46 244 -51 c 128,-1,95
 232 -56 232 -56 217 -59 c 128,-1,96
 202 -62 202 -62 188 -63 c 128,-1,97
 174 -64 174 -64 162 -64 c 128,-1,98
 150 -64 150 -64 144 -64 c 1,99,100
 120 -68 120 -68 101 -59 c 128,-1,101
 82 -50 82 -50 70 -32.5 c 128,-1,102
 58 -15 58 -15 51 6.5 c 128,-1,103
 44 28 44 28 44 48 c 0,0,1
EndSplineSet
EndChar

StartChar: bar
Encoding: 124 124 95
Width: 102
VWidth: 512
Flags: HW
LayerCount: 2
Fore
SplineSet
51 6 m 0,0,1
 51 11 51 11 50 25 c 128,-1,2
 49 39 49 39 48 54.5 c 128,-1,3
 47 70 47 70 46 83.5 c 0,4,5
 45 96 45 96 45 102 c 0,6,7
 44 133 44 133 44 159.5 c 128,-1,8
 44 186 44 186 43.5 211.5 c 128,-1,9
 43 237 43 237 40.5 263.5 c 128,-1,10
 38 290 38 290 32 320 c 1,11,12
 27 342 27 342 19.5 367 c 128,-1,13
 12 392 12 392 12 417 c 0,14,15
 12 421 12 421 12.5 427.5 c 128,-1,16
 13 434 13 434 13 435 c 0,17,18
 13 437 13 437 15.5 439.5 c 128,-1,19
 18 442 18 442 20 442 c 128,-1,20
 22 442 22 442 26.5 439 c 0,21,22
 30 436 30 436 32 435 c 1,23,24
 49 387 49 387 59.5 339.5 c 128,-1,25
 70 292 70 292 76 243 c 128,-1,26
 82 194 82 194 83.5 144.5 c 0,27,28
 86 95 86 95 84 45 c 1,29,30
 84 44 84 44 85 41 c 128,-1,31
 86 38 86 38 87 35 c 128,-1,32
 88 32 88 32 89 29 c 0,33,-1
 90 26 l 0,34,35
 90 12 90 12 82 6 c 128,-1,36
 74 0 74 0 61 0 c 2,37,-1
 58 0 l 1,38,39
 57 0 57 0 54 2.5 c 128,-1,40
 51 5 51 5 51 6 c 0,0,1
EndSplineSet
EndChar

StartChar: braceright
Encoding: 125 125 96
Width: 301
VWidth: 512
Flags: HW
LayerCount: 2
Fore
SplineSet
140 -154 m 1,0,1
 121 -156 121 -156 98.5 -153.5 c 128,-1,2
 76 -151 76 -151 56 -142.5 c 128,-1,3
 36 -134 36 -134 20 -118 c 128,-1,4
 4 -102 4 -102 0 -77 c 0,5,6
 0 -75 0 -75 1.5 -71.5 c 128,-1,7
 3 -68 3 -68 5.5 -65 c 128,-1,8
 8 -62 8 -62 11 -59.5 c 128,-1,9
 14 -57 14 -57 16 -57 c 0,10,11
 22 -57 22 -57 26 -61.5 c 128,-1,12
 30 -66 30 -66 32.5 -71 c 128,-1,13
 35 -76 35 -76 37.5 -81.5 c 0,14,15
 40 -88 40 -88 45 -90 c 0,16,17
 51 -94 51 -94 61.5 -99 c 128,-1,18
 72 -104 72 -104 82 -109 c 128,-1,19
 92 -114 92 -114 100 -118 c 128,-1,20
 108 -122 108 -122 109 -122 c 0,21,22
 135 -128 135 -128 160.5 -121 c 128,-1,23
 186 -114 186 -114 206 -99 c 128,-1,24
 226 -84 226 -84 238 -62 c 128,-1,25
 250 -40 250 -40 250 -12 c 0,26,27
 250 0 250 0 246 14.5 c 128,-1,28
 242 29 242 29 235 45.5 c 128,-1,29
 228 62 228 62 219 79 c 128,-1,30
 210 96 210 96 200.5 111 c 128,-1,31
 191 126 191 126 182 139 c 0,32,33
 172 152 172 152 166 160 c 0,34,35
 154 174 154 174 139.5 186 c 128,-1,36
 125 198 125 198 112.5 209.5 c 128,-1,37
 100 221 100 221 91 235.5 c 128,-1,38
 82 250 82 250 82 272 c 0,39,40
 82 284 82 284 86 292 c 128,-1,41
 90 300 90 300 90 310 c 0,42,43
 90 316 90 316 88 323 c 128,-1,44
 86 330 86 330 83 336 c 128,-1,45
 80 342 80 342 78 348 c 128,-1,46
 76 354 76 354 76 362 c 0,47,48
 76 374 76 374 78 384 c 128,-1,49
 80 394 80 394 90 404 c 2,50,-1
 198 512 l 2,51,52
 201 515 201 515 202.5 520 c 128,-1,53
 204 525 204 525 205 530.5 c 128,-1,54
 206 536 206 536 206 541.5 c 0,55,56
 206 546 206 546 206 550 c 0,57,58
 206 570 206 570 196 582 c 128,-1,59
 186 594 186 594 170 600 c 128,-1,60
 154 606 154 606 136 607.5 c 128,-1,61
 118 609 118 609 102 609 c 0,62,63
 94 609 94 609 86 607.5 c 128,-1,64
 78 606 78 606 70 604 c 128,-1,65
 62 602 62 602 54 601 c 128,-1,66
 46 600 46 600 38 602 c 1,67,68
 42 594 42 594 48.5 592 c 128,-1,69
 55 590 55 590 61.5 589.5 c 128,-1,70
 68 589 68 589 73 587 c 128,-1,71
 78 585 78 585 78 576 c 0,72,73
 78 566 78 566 72 564 c 128,-1,74
 66 562 66 562 58 562 c 0,75,76
 34 562 34 562 20 575.5 c 128,-1,77
 6 589 6 589 6 612 c 0,78,79
 6 622 6 622 12.5 628 c 128,-1,80
 19 634 19 634 29.5 637.5 c 128,-1,81
 40 641 40 641 53 641.5 c 128,-1,82
 66 642 66 642 78 642 c 128,-1,83
 90 642 90 642 100 641 c 128,-1,84
 110 640 110 640 115 640 c 0,85,86
 119 640 119 640 127 640 c 128,-1,87
 135 640 135 640 144.5 640 c 128,-1,88
 154 640 154 640 162 640 c 128,-1,89
 170 640 170 640 173 640 c 1,90,91
 189 634 189 634 203.5 624.5 c 128,-1,92
 218 615 218 615 228 602.5 c 128,-1,93
 238 590 238 590 244 574.5 c 0,94,95
 250 558 250 558 250 540 c 0,96,97
 250 518 250 518 240 501.5 c 128,-1,98
 230 485 230 485 215 470.5 c 128,-1,99
 200 456 200 456 182 443 c 128,-1,100
 164 430 164 430 149 417 c 128,-1,101
 134 404 134 404 124 390.5 c 0,102,103
 114 378 114 378 114 362 c 0,104,105
 114 354 114 354 117.5 349.5 c 128,-1,106
 121 345 121 345 126.5 343 c 128,-1,107
 132 341 132 341 139 340.5 c 128,-1,108
 146 340 146 340 154 340 c 0,109,110
 158 340 158 340 169 339 c 128,-1,111
 180 338 180 338 192 338 c 128,-1,112
 204 338 204 338 215 338.5 c 0,113,114
 226 340 226 340 230 340 c 1,115,116
 240 336 240 336 242 330.5 c 0,117,118
 244 326 244 326 244 318 c 0,119,120
 244 314 244 314 243.5 308 c 128,-1,121
 243 302 243 302 237 301 c 0,122,123
 231 301 231 301 218.5 300 c 128,-1,124
 206 299 206 299 192 298 c 128,-1,125
 178 297 178 297 165 296 c 0,126,127
 152 294 152 294 148 294 c 0,128,129
 136 292 136 292 127 287 c 128,-1,130
 118 282 118 282 115 269 c 0,131,132
 115 267 115 267 120.5 259.5 c 128,-1,133
 126 252 126 252 135.5 241 c 128,-1,134
 145 230 145 230 156.5 217 c 128,-1,135
 168 204 168 204 179 192 c 128,-1,136
 190 180 190 180 199 170 c 128,-1,137
 208 160 208 160 212 154 c 0,138,139
 224 134 224 134 237 113 c 128,-1,140
 250 92 250 92 260 71 c 128,-1,141
 270 50 270 50 276.5 27.5 c 128,-1,142
 283 5 283 5 283 -20 c 0,143,144
 283 -53 283 -53 272.5 -78 c 128,-1,145
 262 -103 262 -103 242.5 -120 c 128,-1,146
 223 -137 223 -137 196.5 -145.5 c 128,-1,147
 170 -154 170 -154 140 -154 c 1,0,1
EndSplineSet
EndChar

StartChar: asciitilde
Encoding: 126 126 97
Width: 275
VWidth: 512
Flags: HW
LayerCount: 2
Fore
SplineSet
194 300 m 0,0,1
 176 293 176 293 163 296.5 c 128,-1,2
 150 300 150 300 137 308 c 128,-1,3
 124 316 124 316 112 325.5 c 0,4,5
 100 336 100 336 86 342 c 1,6,7
 67 343 67 343 58.5 335.5 c 128,-1,8
 50 328 50 328 47 317 c 128,-1,9
 44 306 44 306 44 294 c 128,-1,10
 44 282 44 282 43 276 c 128,-1,11
 42 270 42 270 37 272 c 128,-1,12
 32 274 32 274 18 290 c 1,13,14
 12 306 12 306 15 320 c 128,-1,15
 18 334 18 334 26 345 c 128,-1,16
 34 356 34 356 46 362 c 128,-1,17
 58 368 58 368 72 369 c 0,18,19
 74 369 74 369 77.5 369.5 c 128,-1,20
 81 370 81 370 89 367 c 128,-1,21
 97 364 97 364 110.5 357 c 128,-1,22
 124 350 124 350 144 338 c 0,23,24
 156 330 156 330 164 329.5 c 128,-1,25
 172 329 172 329 183 333 c 0,26,27
 185 334 185 334 189 335.5 c 128,-1,28
 193 337 193 337 193 338 c 1,29,-1
 234 370 l 1,30,31
 242 370 242 370 246.5 367 c 128,-1,32
 251 364 251 364 252.5 360.5 c 128,-1,33
 254 357 254 357 253.5 353.5 c 128,-1,34
 253 350 253 350 251 348 c 0,35,36
 233 333 233 333 223.5 324.5 c 128,-1,37
 214 316 214 316 209 311 c 128,-1,38
 204 306 204 306 203 304 c 0,39,-1
 202 302 l 0,40,-1
 200.5 302 l 0,41,42
 199 302 199 302 194 300 c 0,0,1
EndSplineSet
EndChar

StartChar: cent
Encoding: 162 162 100
Width: 307
VWidth: 512
Flags: HW
LayerCount: 2
Fore
SplineSet
151 -34 m 0,0,1
 151 -30 151 -30 150.5 -22 c 128,-1,2
 150 -14 150 -14 150 -4 c 1,3,4
 82 0 82 0 47 37 c 128,-1,5
 12 74 12 74 12 148 c 0,6,7
 12 175 12 175 22 201 c 128,-1,8
 32 227 32 227 49 247.5 c 128,-1,9
 66 268 66 268 89 282 c 128,-1,10
 112 296 112 296 138 300 c 1,11,-1
 136 310 l 2,12,13
 134 315 134 315 134 320 c 0,14,15
 132 345 132 345 134 355.5 c 128,-1,16
 136 366 136 366 140.5 366.5 c 128,-1,17
 145 367 145 367 150.5 359.5 c 128,-1,18
 156 352 156 352 161 342 c 128,-1,19
 166 332 166 332 168 320 c 128,-1,20
 170 308 170 308 168 300 c 1,21,22
 180 299 180 299 194 295.5 c 128,-1,23
 208 292 208 292 219 285 c 128,-1,24
 230 278 230 278 237 268 c 128,-1,25
 244 258 244 258 244 244 c 0,26,27
 244 241 244 241 242 232.5 c 128,-1,28
 240 224 240 224 237 216 c 128,-1,29
 234 208 234 208 231 202 c 128,-1,30
 228 196 228 196 224 196 c 1,31,32
 224 223 224 223 212 242 c 128,-1,33
 200 261 200 261 176 267 c 1,34,35
 181 241 181 241 183.5 216 c 128,-1,36
 186 191 186 191 187 164.5 c 128,-1,37
 188 138 188 138 187.5 109 c 128,-1,38
 187 80 187 80 186 45 c 1,39,40
 186 44 186 44 187 42 c 128,-1,41
 188 40 188 40 189 38 c 1,42,43
 211 37 211 37 233 37.5 c 0,44,45
 256 38 256 38 276 38 c 0,46,47
 278 38 278 38 282.5 36 c 0,48,49
 286 34 286 34 288 32 c 1,50,-1
 288 31 l 2,51,52
 288 30 288 30 288.5 29.5 c 0,53,-1
 289 28 l 0,54,55
 291 20 291 20 281.5 15 c 128,-1,56
 272 10 272 10 256 7.5 c 128,-1,57
 240 5 240 5 221.5 3.5 c 0,58,59
 204 2 204 2 188 0 c 1,60,61
 186 -8 186 -8 183 -15 c 128,-1,62
 180 -22 180 -22 176.5 -28 c 128,-1,63
 173 -34 173 -34 169 -37 c 128,-1,64
 165 -40 165 -40 161 -40 c 2,65,-1
 158 -40 l 1,66,67
 157 -40 157 -40 154 -37.5 c 128,-1,68
 151 -35 151 -35 151 -34 c 0,0,1
50 148 m 0,69,70
 50 122 50 122 58 103 c 128,-1,71
 66 84 66 84 79 71.5 c 128,-1,72
 92 59 92 59 110 51.5 c 128,-1,73
 128 44 128 44 148 41 c 1,74,75
 148 62 148 62 148 79.5 c 0,76,77
 148 96 148 96 148 102 c 0,78,79
 146 126 146 126 146 148 c 2,80,-1
 146 188 l 2,81,82
 146 208 146 208 145 228 c 128,-1,83
 144 248 144 248 142 268 c 1,84,85
 120 265 120 265 103 253.5 c 128,-1,86
 86 242 86 242 74.5 225.5 c 128,-1,87
 63 209 63 209 56.5 189 c 128,-1,88
 50 169 50 169 50 148 c 0,69,70
EndSplineSet
EndChar

